<svg width="221" height="138" viewBox="0 0 221 138" fill="none" xmlns="http://www.w3.org/2000/svg">
<g clip-path="url(#clip0)">
<path d="M190.2 91.8328C189.976 91.4685 189.835 91.0597 189.787 90.6351C189.738 90.2104 189.784 89.7803 189.92 89.3751C190.055 88.9698 190.278 88.5993 190.573 88.2896C190.867 87.9798 191.226 87.7384 191.624 87.5824L191.211 77.2017L195.832 79.9921L195.516 89.422C195.734 90.1078 195.693 90.8497 195.4 91.5071C195.108 92.1645 194.584 92.6917 193.929 92.9889C193.273 93.286 192.532 93.3325 191.845 93.1194C191.157 92.9063 190.572 92.4486 190.2 91.8328Z" fill="#A0616A"/>
<path d="M196.368 85.1032L192.26 85.7597C192.087 85.7872 191.911 85.7799 191.741 85.7383C191.571 85.6966 191.412 85.6213 191.272 85.517C191.132 85.4126 191.014 85.2812 190.925 85.1306C190.837 84.98 190.779 84.8132 190.756 84.64L189.018 71.5489L180.429 59.7945C180.111 59.3592 179.885 58.8633 179.766 58.3374C179.647 57.8116 179.637 57.267 179.737 56.7371C179.836 56.2072 180.043 55.7033 180.345 55.2565C180.646 54.8097 181.036 54.4294 181.491 54.1391L181.49 54.139C182.373 53.5753 183.443 53.385 184.465 53.6102C185.488 53.8354 186.379 54.4575 186.943 55.3397L195.715 69.0672L197.461 83.656C197.472 83.7491 197.473 83.8431 197.465 83.9365C197.438 84.2252 197.315 84.4967 197.117 84.708C196.918 84.9193 196.655 85.0583 196.368 85.1032Z" fill="#B32B27"/>
<path d="M182.203 133.693H178.639L176.944 119.945L182.204 119.946L182.203 133.693Z" fill="#A0616A"/>
<path d="M176.093 132.675H182.967V137.003H171.765C171.765 135.855 172.221 134.754 173.033 133.942C173.845 133.131 174.945 132.675 176.093 132.675Z" fill="#2F2E41"/>
<path d="M197.241 127.592L194.578 129.961L184.651 120.173L188.104 117.32L197.241 127.592Z" fill="#A0616A"/>
<path d="M191.999 130.892L197.135 126.324L200.011 129.557L191.642 137.003C191.264 136.578 190.974 136.083 190.787 135.546C190.601 135.009 190.522 134.441 190.555 133.873C190.588 133.306 190.733 132.751 190.981 132.239C191.228 131.728 191.574 131.27 191.999 130.892Z" fill="#2F2E41"/>
<path d="M146.386 55.0795C146.802 54.9825 147.234 54.9779 147.653 55.0661C148.071 55.1543 148.465 55.3332 148.806 55.59C149.148 55.8469 149.429 56.1755 149.63 56.5527C149.831 56.93 149.946 57.3467 149.969 57.7735L159.948 60.6604L155.841 64.1639L146.994 60.8853C146.274 60.8754 145.583 60.6019 145.052 60.1166C144.521 59.6314 144.186 58.9681 144.111 58.2524C144.036 57.5368 144.226 56.8185 144.645 56.2337C145.065 55.6489 145.684 55.2382 146.386 55.0794V55.0795Z" fill="#A0616A"/>
<path d="M177.5 45.1171C181.444 45.1171 184.641 41.9202 184.641 37.9766C184.641 34.0331 181.444 30.8362 177.5 30.8362C173.557 30.8362 170.36 34.0331 170.36 37.9766C170.36 41.9202 173.557 45.1171 177.5 45.1171Z" fill="#A0616A"/>
<path d="M182.641 131.119L177.68 130.722C177.36 130.696 177.06 130.554 176.838 130.321C176.616 130.089 176.487 129.782 176.477 129.461L175.092 87.6454C175.081 87.3223 175.19 87.0065 175.398 86.7591C175.606 86.5118 175.899 86.3505 176.219 86.3065L186.109 84.9264C186.313 84.8979 186.521 84.9179 186.715 84.9848C186.91 85.0516 187.086 85.1635 187.229 85.3111C187.373 85.4588 187.479 85.6382 187.54 85.8347C187.601 86.0313 187.614 86.2394 187.58 86.4422L183.795 108.61C183.785 108.67 183.78 108.732 183.781 108.794L184.054 129.797C184.056 129.971 184.024 130.143 183.959 130.303C183.894 130.464 183.798 130.611 183.676 130.734C183.554 130.857 183.409 130.955 183.249 131.022C183.089 131.089 182.918 131.123 182.744 131.123C182.71 131.123 182.675 131.122 182.641 131.119Z" fill="#2F2E41"/>
<path d="M188.994 126.103L171.953 107.137C171.83 107.001 171.737 106.84 171.681 106.665C171.625 106.491 171.605 106.307 171.625 106.124L173.777 85.9465C173.812 85.6102 173.977 85.3007 174.236 85.0832C174.494 84.8656 174.828 84.7569 175.165 84.7799L185.624 85.4772C185.824 85.4905 186.018 85.5496 186.192 85.6499C186.365 85.7501 186.513 85.8889 186.625 86.0556C186.736 86.2222 186.807 86.4121 186.834 86.6108C186.86 86.8094 186.84 87.0115 186.776 87.2013L180.51 105.74C180.449 105.917 180.439 106.107 180.48 106.289C180.521 106.471 180.611 106.638 180.741 106.772L195.217 121.775C195.354 121.917 195.458 122.088 195.519 122.276C195.581 122.464 195.599 122.663 195.572 122.859C195.546 123.055 195.475 123.242 195.366 123.407C195.257 123.571 195.111 123.709 194.941 123.809L190.633 126.355C190.373 126.508 190.067 126.567 189.769 126.521C189.47 126.475 189.197 126.328 188.994 126.103L188.994 126.103Z" fill="#2F2E41"/>
<path d="M176.221 49.5277C176.221 49.5277 180.581 45.7483 182.616 47.7834C182.616 47.7834 192.065 53.7432 187.995 70.0237C187.995 70.0237 191.483 85.7227 190.03 86.3042C188.576 86.8856 173.895 89.0661 172.732 87.3217C171.569 85.5774 170.988 58.8309 176.221 49.5277Z" fill="#B32B27"/>
<path d="M150.822 63.058L151.497 58.9524C151.526 58.78 151.588 58.615 151.681 58.4672C151.775 58.3194 151.896 58.1918 152.04 58.0918C152.183 57.9919 152.345 57.9216 152.516 57.8852C152.686 57.8488 152.863 57.847 153.034 57.8799L166.004 60.3658L179.87 55.9291C180.384 55.7649 180.925 55.7075 181.462 55.7607C181.998 55.8138 182.518 55.9763 182.99 56.238C183.461 56.4998 183.874 56.8554 184.202 57.2828C184.531 57.7101 184.769 58.2003 184.901 58.7231L184.901 58.7228C185.157 59.7379 184.999 60.8133 184.463 61.7123C183.926 62.6113 183.054 63.2603 182.039 63.5165L166.244 67.5036L151.85 64.552C151.759 64.5332 151.669 64.5047 151.583 64.467C151.318 64.3501 151.099 64.1481 150.961 63.893C150.823 63.6378 150.774 63.344 150.822 63.058Z" fill="#B32B27"/>
<path d="M180.564 43.7685C181.217 42.2583 181.769 40.2471 180.517 39.1794C179.791 38.5601 178.746 38.5588 177.795 38.4818C175.115 38.2647 172.356 37.0317 171.047 34.6839C169.737 32.336 170.468 28.8449 172.939 27.7856C174.605 27.0716 176.514 27.558 178.258 28.0524L183.493 29.5368C185.048 29.9779 186.681 30.4643 187.801 31.6304C189.587 33.4903 189.453 36.6343 188.035 38.7875C186.616 40.9407 184.48 43.1863 182.035 44.0039L180.564 43.7685Z" fill="#2F2E41"/>
<path d="M219.775 137.617H147.676C147.599 137.617 147.525 137.586 147.47 137.531C147.416 137.477 147.385 137.403 147.385 137.326C147.385 137.249 147.416 137.175 147.47 137.12C147.525 137.066 147.599 137.035 147.676 137.035H219.775C219.852 137.035 219.926 137.066 219.981 137.12C220.035 137.175 220.066 137.249 220.066 137.326C220.066 137.403 220.035 137.477 219.981 137.531C219.926 137.586 219.852 137.617 219.775 137.617Z" fill="#3F3D56"/>
<path d="M143.617 0H2.03506C1.49551 0.000598672 0.978234 0.215197 0.596715 0.596715C0.215197 0.978234 0.000598672 1.49551 0 2.03506V106.695C0.000598672 107.235 0.215197 107.752 0.596715 108.134C0.978234 108.515 1.49551 108.73 2.03506 108.73H143.617C144.157 108.73 144.674 108.515 145.056 108.134C145.437 107.752 145.652 107.235 145.652 106.695V2.03506C145.652 1.49551 145.437 0.978234 145.056 0.596715C144.674 0.215197 144.157 0.000598672 143.617 0ZM145.071 106.695C145.071 107.081 144.917 107.451 144.645 107.723C144.372 107.996 144.003 108.149 143.617 108.149H2.03506C1.64959 108.149 1.27994 107.996 1.00737 107.723C0.734796 107.451 0.5816 107.081 0.581446 106.695V2.03506C0.5816 1.64959 0.734796 1.27994 1.00737 1.00737C1.27994 0.734796 1.64959 0.5816 2.03506 0.581446H143.617C144.003 0.5816 144.372 0.734796 144.645 1.00737C144.917 1.27994 145.071 1.64959 145.071 2.03506V106.695Z" fill="#3F3D56"/>
<path d="M145.362 8.15186H0.290771V8.7333H145.362V8.15186Z" fill="#3F3D56"/>
<path d="M5.23311 6.10513C6.19648 6.10513 6.97745 5.32417 6.97745 4.36079C6.97745 3.39742 6.19648 2.61646 5.23311 2.61646C4.26974 2.61646 3.48877 3.39742 3.48877 4.36079C3.48877 5.32417 4.26974 6.10513 5.23311 6.10513Z" fill="#3F3D56"/>
<path d="M10.2478 6.10513C11.2111 6.10513 11.9921 5.32417 11.9921 4.36079C11.9921 3.39742 11.2111 2.61646 10.2478 2.61646C9.28439 2.61646 8.50342 3.39742 8.50342 4.36079C8.50342 5.32417 9.28439 6.10513 10.2478 6.10513Z" fill="#3F3D56"/>
<path d="M15.2629 6.10513C16.2263 6.10513 17.0072 5.32417 17.0072 4.36079C17.0072 3.39742 16.2263 2.61646 15.2629 2.61646C14.2995 2.61646 13.5186 3.39742 13.5186 4.36079C13.5186 5.32417 14.2995 6.10513 15.2629 6.10513Z" fill="#3F3D56"/>
<path d="M87.7468 90.5035C87.6697 90.5035 87.5957 90.4729 87.5412 90.4184C87.4867 90.3639 87.4561 90.2899 87.4561 90.2128V78.2932C87.4561 78.2161 87.4867 78.1421 87.5412 78.0876C87.5957 78.0331 87.6697 78.0024 87.7468 78.0024C87.8239 78.0024 87.8978 78.0331 87.9524 78.0876C88.0069 78.1421 88.0375 78.2161 88.0375 78.2932V90.2128C88.0375 90.2899 88.0069 90.3639 87.9523 90.4184C87.8978 90.4729 87.8239 90.5035 87.7468 90.5035Z" fill="#3F3D56"/>
<path d="M87.3486 73.6416C87.2972 73.6417 87.2468 73.628 87.2025 73.6022L70.685 63.9781C70.6185 63.9392 70.5702 63.8755 70.5506 63.801C70.531 63.7265 70.5418 63.6473 70.5805 63.5807C70.6193 63.5141 70.6829 63.4657 70.7574 63.446C70.8318 63.4262 70.9111 63.4369 70.9777 63.4755L87.4952 73.0996C87.5504 73.1318 87.5935 73.1813 87.6178 73.2405C87.6421 73.2996 87.6462 73.3651 87.6295 73.4268C87.6128 73.4885 87.5762 73.543 87.5254 73.5818C87.4747 73.6207 87.4125 73.6417 87.3486 73.6416Z" fill="#3F3D56"/>
<path d="M54.314 73.6415C54.25 73.6415 54.1879 73.6205 54.1371 73.5817C54.0863 73.5429 54.0497 73.4884 54.033 73.4267C54.0163 73.365 54.0205 73.2995 54.0447 73.2403C54.069 73.1812 54.1121 73.1317 54.1673 73.0995L70.6847 63.4754C70.7514 63.437 70.8305 63.4265 70.9048 63.4463C70.9791 63.4661 71.0426 63.5145 71.0813 63.5809C71.12 63.6474 71.1308 63.7265 71.1113 63.8009C71.0919 63.8753 71.0437 63.939 70.9774 63.9779L54.46 73.602C54.4157 73.6279 54.3653 73.6415 54.314 73.6415Z" fill="#3F3D56"/>
<path d="M104.501 88.1778C104.45 88.1778 104.399 88.1642 104.355 88.1383L87.8376 78.5142C87.7711 78.4753 87.7227 78.4116 87.7032 78.3371C87.6836 78.2626 87.6944 78.1834 87.7331 78.1168C87.7719 78.0503 87.8355 78.0018 87.91 77.9821C87.9844 77.9624 88.0637 77.973 88.1303 78.0117L104.648 87.6358C104.703 87.668 104.746 87.7174 104.77 87.7766C104.795 87.8357 104.799 87.9012 104.782 87.9629C104.765 88.0246 104.729 88.0791 104.678 88.118C104.627 88.1568 104.565 88.1778 104.501 88.1777V88.1778Z" fill="#3F3D56"/>
<path d="M71.4668 88.1776C71.4029 88.1777 71.3407 88.1567 71.2899 88.1178C71.2391 88.079 71.2026 88.0245 71.1859 87.9628C71.1692 87.9011 71.1733 87.8356 71.1976 87.7765C71.2218 87.7173 71.2649 87.6678 71.3202 87.6357L87.8376 78.0116C87.9042 77.9731 87.9833 77.9627 88.0576 77.9824C88.132 78.0022 88.1954 78.0506 88.2341 78.1171C88.2728 78.1835 88.2836 78.2626 88.2642 78.337C88.2447 78.4114 88.1966 78.4751 88.1303 78.5141L71.6128 88.1382C71.5685 88.164 71.5181 88.1776 71.4668 88.1776Z" fill="#3F3D56"/>
<path d="M70.8853 58.8148C70.8083 58.8148 70.7344 58.7843 70.6799 58.7299C70.6254 58.6756 70.5947 58.6018 70.5945 58.5248L70.5676 47.9462C70.5675 47.908 70.5749 47.8702 70.5895 47.8349C70.604 47.7996 70.6253 47.7675 70.6523 47.7404C70.6792 47.7134 70.7112 47.6919 70.7464 47.6772C70.7817 47.6625 70.8195 47.6549 70.8576 47.6548H70.8584C70.9353 47.6548 71.0092 47.6853 71.0637 47.7397C71.1182 47.794 71.1489 47.8678 71.1491 47.9448L71.176 58.5234C71.1761 58.5616 71.1686 58.5994 71.1541 58.6347C71.1396 58.67 71.1183 58.7021 71.0913 58.7292C71.0644 58.7563 71.0324 58.7777 70.9972 58.7924C70.9619 58.8071 70.9241 58.8147 70.886 58.8148L70.8853 58.8148Z" fill="#3F3D56"/>
<path d="M74.6451 64.3141H67.0712C66.7243 64.3138 66.3918 64.1758 66.1465 63.9305C65.9013 63.6853 65.7633 63.3527 65.7629 63.0059V59.1156C65.7633 58.7688 65.9013 58.4362 66.1465 58.191C66.3918 57.9457 66.7243 57.8078 67.0712 57.8074H74.6451C74.992 57.8078 75.3245 57.9457 75.5698 58.191C75.815 58.4362 75.953 58.7688 75.9534 59.1156V63.0059C75.953 63.3527 75.815 63.6853 75.5698 63.9305C75.3245 64.1758 74.992 64.3138 74.6451 64.3141Z" fill="#CCCCCC"/>
<path d="M62.1096 44.539H45.9938C45.9167 44.539 45.8428 44.5083 45.7883 44.4538C45.7338 44.3993 45.7031 44.3253 45.7031 44.2482C45.7031 44.1711 45.7338 44.0972 45.7883 44.0427C45.8428 43.9882 45.9167 43.9575 45.9938 43.9575H62.1096C62.1867 43.9575 62.2607 43.9882 62.3152 44.0427C62.3697 44.0972 62.4004 44.1711 62.4004 44.2482C62.4004 44.3253 62.3697 44.3993 62.3152 44.4538C62.2607 44.5083 62.1867 44.539 62.1096 44.539Z" fill="#3F3D56"/>
<path d="M70.8583 40.3866C70.7812 40.3866 70.7073 40.356 70.6528 40.3015C70.5983 40.2469 70.5676 40.173 70.5676 40.0959V30.0332C70.5676 29.9561 70.5983 29.8821 70.6528 29.8276C70.7073 29.7731 70.7812 29.7424 70.8583 29.7424C70.9355 29.7424 71.0094 29.7731 71.0639 29.8276C71.1184 29.8821 71.1491 29.9561 71.1491 30.0332V40.0959C71.1491 40.173 71.1184 40.2469 71.0639 40.3015C71.0094 40.356 70.9355 40.3866 70.8583 40.3866Z" fill="#3F3D56"/>
<path d="M39.7234 44.5391C39.6714 44.5391 39.6203 44.5251 39.5755 44.4985L23.9302 35.2256C23.8641 35.1861 23.8163 35.1221 23.7973 35.0475C23.7783 34.9729 23.7897 34.8938 23.829 34.8276C23.8682 34.7614 23.9321 34.7134 24.0067 34.6942C24.0812 34.675 24.1603 34.6862 24.2267 34.7253L39.872 43.9982C39.9268 44.0307 39.9694 44.0803 39.9933 44.1394C40.0172 44.1985 40.0209 44.2638 40.0041 44.3253C39.9872 44.3868 39.9506 44.441 39.8999 44.4796C39.8492 44.5182 39.7872 44.5391 39.7234 44.5391Z" fill="#3F3D56"/>
<path d="M24.0788 53.8119C24.0151 53.8119 23.9531 53.7911 23.9024 53.7524C23.8517 53.7138 23.8151 53.6596 23.7982 53.5981C23.7813 53.5367 23.7851 53.4714 23.809 53.4123C23.8329 53.3532 23.8755 53.3035 23.9303 53.271L39.5756 43.9981C39.6419 43.9588 39.7212 43.9475 39.7959 43.9666C39.8706 43.9857 39.9346 44.0337 39.974 44.1C40.0133 44.1664 40.0246 44.2456 40.0055 44.3203C39.9864 44.395 39.9384 44.4591 39.8721 44.4984L24.2268 53.7713C24.182 53.7979 24.1309 53.8119 24.0788 53.8119Z" fill="#3F3D56"/>
<path d="M44.8306 49.2282H40.9403C40.5935 49.2278 40.2609 49.0899 40.0157 48.8446C39.7704 48.5993 39.6325 48.2668 39.6321 47.9199V40.3461C39.6325 39.9992 39.7704 39.6667 40.0157 39.4214C40.2609 39.1762 40.5935 39.0382 40.9403 39.0378H44.8306C45.1775 39.0382 45.51 39.1762 45.7553 39.4214C46.0005 39.6667 46.1385 39.9992 46.1389 40.3461V47.9199C46.1385 48.2668 46.0005 48.5993 45.7553 48.8446C45.51 49.0899 45.1775 49.2278 44.8306 49.2282Z" fill="#CCCCCC"/>
<path d="M74.6451 30.8155H67.0712C66.7243 30.8151 66.3918 30.6772 66.1465 30.4319C65.9013 30.1866 65.7633 29.8541 65.7629 29.5073V25.6168C65.7633 25.27 65.9013 24.9375 66.1465 24.6922C66.3918 24.4469 66.7243 24.309 67.0712 24.3086H74.6451C74.992 24.309 75.3245 24.4469 75.5698 24.6922C75.815 24.9375 75.953 25.27 75.9534 25.6168V29.5073C75.953 29.8541 75.815 30.1866 75.5698 30.4319C75.3245 30.6772 74.992 30.8151 74.6451 30.8155Z" fill="#CCCCCC"/>
<path d="M23.0264 40.216H19.1361C18.7893 40.2156 18.4567 40.0776 18.2115 39.8324C17.9662 39.5871 17.8283 39.2546 17.8279 38.9077V31.3339C17.8283 30.987 17.9662 30.6545 18.2115 30.4092C18.4567 30.164 18.7893 30.026 19.1361 30.0256H23.0264C23.3733 30.026 23.7058 30.164 23.9511 30.4092C24.1963 30.6545 24.3343 30.987 24.3347 31.3339V38.9077C24.3343 39.2546 24.1963 39.5871 23.9511 39.8324C23.7058 40.0776 23.3733 40.2156 23.0264 40.216Z" fill="#CCCCCC"/>
<path d="M23.0264 58.5314H19.1361C18.7893 58.531 18.4567 58.3931 18.2115 58.1478C17.9662 57.9026 17.8283 57.57 17.8279 57.2232V49.6493C17.8283 49.3025 17.9662 48.9699 18.2115 48.7247C18.4567 48.4794 18.7893 48.3414 19.1361 48.3411H23.0264C23.3733 48.3414 23.7058 48.4794 23.9511 48.7247C24.1963 48.9699 24.3343 49.3025 24.3347 49.6493V57.2232C24.3343 57.57 24.1963 57.9026 23.9511 58.1478C23.7058 58.3931 23.3733 58.531 23.0264 58.5314Z" fill="#CCCCCC"/>
<path d="M95.7227 44.539H79.6069C79.5298 44.539 79.4558 44.5083 79.4013 44.4538C79.3468 44.3993 79.3162 44.3253 79.3162 44.2482C79.3162 44.1711 79.3468 44.0972 79.4013 44.0427C79.4558 43.9882 79.5298 43.9575 79.6069 43.9575H95.7227C95.7998 43.9575 95.8737 43.9882 95.9283 44.0427C95.9828 44.0972 96.0134 44.1711 96.0134 44.2482C96.0134 44.3253 95.9828 44.3993 95.9283 44.4538C95.8737 44.5083 95.7998 44.539 95.7227 44.539Z" fill="#3F3D56"/>
<path d="M101.993 44.5392C101.929 44.5392 101.867 44.5184 101.816 44.4797C101.766 44.4411 101.729 44.3869 101.712 44.3254C101.695 44.2639 101.699 44.1986 101.723 44.1395C101.747 44.0804 101.789 44.0308 101.844 43.9983L117.489 34.7254C117.522 34.706 117.559 34.6932 117.596 34.6877C117.634 34.6823 117.673 34.6844 117.71 34.6939C117.747 34.7034 117.781 34.72 117.812 34.7429C117.843 34.7658 117.868 34.7945 117.888 34.8273C117.907 34.8602 117.92 34.8966 117.925 34.9344C117.931 34.9721 117.929 35.0106 117.919 35.0476C117.91 35.0846 117.893 35.1194 117.87 35.1499C117.847 35.1805 117.819 35.2062 117.786 35.2257L102.141 44.4986C102.096 44.5252 102.045 44.5392 101.993 44.5392Z" fill="#3F3D56"/>
<path d="M117.637 53.8119C117.585 53.8119 117.534 53.7979 117.489 53.7713L101.844 44.4984C101.778 44.4591 101.73 44.395 101.711 44.3203C101.692 44.2456 101.703 44.1664 101.742 44.1001C101.782 44.0337 101.846 43.9857 101.92 43.9666C101.995 43.9475 102.074 43.9588 102.141 43.9981L117.786 53.271C117.841 53.3035 117.883 53.3531 117.907 53.4122C117.931 53.4713 117.935 53.5367 117.918 53.5981C117.901 53.6596 117.865 53.7138 117.814 53.7524C117.763 53.7911 117.701 53.812 117.637 53.8119V53.8119Z" fill="#3F3D56"/>
<path d="M100.776 49.2282H96.8854C96.5386 49.2278 96.206 49.0899 95.9608 48.8446C95.7155 48.5993 95.5775 48.2668 95.5771 47.9199V40.3461C95.5775 39.9992 95.7155 39.6667 95.9608 39.4215C96.206 39.1762 96.5386 39.0382 96.8854 39.0378H100.776C101.123 39.0382 101.455 39.1762 101.7 39.4215C101.946 39.6667 102.084 39.9992 102.084 40.3461V47.9199C102.084 48.2668 101.946 48.5993 101.7 48.8446C101.455 49.0899 101.123 49.2278 100.776 49.2282Z" fill="#CCCCCC"/>
<path d="M122.58 40.216H118.69C118.343 40.2156 118.01 40.0776 117.765 39.8324C117.52 39.5871 117.382 39.2546 117.381 38.9077V31.3339C117.382 30.987 117.52 30.6545 117.765 30.4092C118.01 30.164 118.343 30.026 118.69 30.0256H122.58C122.927 30.026 123.259 30.164 123.505 30.4092C123.75 30.6545 123.888 30.987 123.888 31.3339V38.9077C123.888 39.2546 123.75 39.5871 123.505 39.8324C123.259 40.0776 122.927 40.2156 122.58 40.216Z" fill="#CCCCCC"/>
<path d="M122.58 58.5314H118.69C118.343 58.531 118.01 58.3931 117.765 58.1478C117.52 57.9026 117.382 57.57 117.381 57.2232V49.6493C117.382 49.3025 117.52 48.9699 117.765 48.7247C118.01 48.4794 118.343 48.3415 118.69 48.3411H122.58C122.927 48.3415 123.259 48.4794 123.505 48.7247C123.75 48.9699 123.888 49.3025 123.888 49.6493V57.2232C123.888 57.57 123.75 57.9026 123.505 58.1478C123.259 58.3931 122.927 58.531 122.58 58.5314Z" fill="#CCCCCC"/>
<path d="M57.7831 79.1408H50.2091C49.8623 79.1404 49.5297 79.0025 49.2845 78.7572C49.0392 78.5119 48.9013 78.1794 48.9009 77.8326V73.9423C48.9013 73.5954 49.0392 73.2629 49.2845 73.0176C49.5297 72.7724 49.8623 72.6344 50.2091 72.634H57.7831C58.1299 72.6344 58.4624 72.7724 58.7077 73.0176C58.953 73.2629 59.0909 73.5954 59.0913 73.9423V77.8326C59.0909 78.1794 58.953 78.5119 58.7077 78.7572C58.4624 79.0025 58.1299 79.1404 57.7831 79.1408Z" fill="#CCCCCC"/>
<path d="M91.4532 79.1408H83.8793C83.5324 79.1404 83.1999 79.0025 82.9547 78.7572C82.7094 78.5119 82.5714 78.1794 82.571 77.8326V73.9423C82.5714 73.5954 82.7094 73.2629 82.9547 73.0176C83.1999 72.7724 83.5324 72.6344 83.8793 72.634H91.4532C91.8001 72.6344 92.1326 72.7724 92.3779 73.0176C92.6231 73.2629 92.7611 73.5954 92.7615 73.9423V77.8326C92.7611 78.1794 92.6231 78.5119 92.3779 78.7572C92.1326 79.0025 91.8001 79.1404 91.4532 79.1408Z" fill="#CCCCCC"/>
<path d="M76.045 93.3862H68.4711C68.1242 93.3858 67.7917 93.2478 67.5464 93.0026C67.3012 92.7573 67.1632 92.4248 67.1628 92.0779V88.1876C67.1632 87.8408 67.3012 87.5083 67.5464 87.263C67.7917 87.0177 68.1242 86.8798 68.4711 86.8794H76.045C76.3919 86.8798 76.7244 87.0177 76.9697 87.263C77.2149 87.5083 77.3529 87.8408 77.3533 88.1876V92.0779C77.3529 92.4248 77.2149 92.7573 76.9697 93.0026C76.7244 93.2478 76.3919 93.3858 76.045 93.3862Z" fill="#CCCCCC"/>
<path d="M108.315 93.3862H100.741C100.394 93.3858 100.062 93.2478 99.8165 93.0026C99.5712 92.7573 99.4333 92.4248 99.4329 92.0779V88.1876C99.4333 87.8408 99.5712 87.5083 99.8165 87.263C100.062 87.0177 100.394 86.8798 100.741 86.8794H108.315C108.662 86.8798 108.994 87.0177 109.24 87.263C109.485 87.5083 109.623 87.8408 109.623 88.1876V92.0779C109.623 92.4248 109.485 92.7573 109.24 93.0026C108.994 93.2478 108.662 93.3858 108.315 93.3862Z" fill="#CCCCCC"/>
<path d="M91.4532 93.3862H83.8793C83.5324 93.3858 83.1999 93.2478 82.9547 93.0026C82.7094 92.7573 82.5714 92.4248 82.571 92.0779V88.1876C82.5714 87.8408 82.7094 87.5083 82.9547 87.263C83.1999 87.0177 83.5324 86.8798 83.8793 86.8794H91.4532C91.8001 86.8798 92.1326 87.0177 92.3779 87.263C92.6231 87.5083 92.7611 87.8408 92.7615 88.1876V92.0779C92.7611 92.4248 92.6231 92.7573 92.3779 93.0026C92.1326 93.2478 91.8001 93.3858 91.4532 93.3862Z" fill="#CCCCCC"/>
<path d="M80.0649 49.3058H61.651C61.3042 49.3054 60.9716 49.1674 60.7264 48.9221C60.4811 48.6769 60.3432 48.3443 60.3428 47.9975V40.4992C60.3432 40.1523 60.4811 39.8198 60.7264 39.5745C60.9716 39.3293 61.3042 39.1913 61.651 39.1909H80.065C80.4118 39.1913 80.7443 39.3293 80.9896 39.5745C81.2349 39.8198 81.3728 40.1523 81.3732 40.4992V47.9975C81.3728 48.3444 81.2349 48.6769 80.9896 48.9221C80.7443 49.1674 80.4118 49.3054 80.0649 49.3058Z" fill="#B32B27"/>
</g>
<defs>
<clipPath id="clip0">
<rect width="220.066" height="137.617" fill="white"/>
</clipPath>
</defs>
</svg>
