<svg width="360" height="531" viewBox="0 0 360 531" fill="none" xmlns="http://www.w3.org/2000/svg">
<path d="M0 0L178.5 70.5L360 0V531H0V0Z" fill="#404A53"/>
<circle cx="180" cy="244" r="78" stroke="#B32B27" stroke-width="4"/>
<circle cx="180" cy="295.2" r="80" fill="#404A53"/>
<path d="M202.5 280H157.5C153.367 280 150 276.637 150 272.5V237.5C150 233.363 153.367 230 157.5 230H202.5C206.633 230 210 233.363 210 237.5V272.5C210 276.637 206.633 280 202.5 280ZM157.5 235C156.123 235 155 236.12 155 237.5V272.5C155 273.88 156.123 275 157.5 275H202.5C203.877 275 205 273.88 205 272.5V237.5C205 236.12 203.877 235 202.5 235H157.5Z" fill="white"/>
<path d="M197.5 235C196.12 235 195 233.88 195 232.5V220C195 211.73 188.27 205 180 205C171.73 205 165 211.73 165 220V232.5C165 233.88 163.88 235 162.5 235C161.12 235 160 233.88 160 232.5V220C160 208.97 168.97 200 180 200C191.03 200 200 208.97 200 220V232.5C200 233.88 198.88 235 197.5 235Z" fill="white"/>
<path d="M180 256.667C176.323 256.667 173.333 253.677 173.333 250C173.333 246.323 176.323 243.333 180 243.333C183.677 243.333 186.667 246.323 186.667 250C186.667 253.677 183.677 256.667 180 256.667ZM180 248.333C179.083 248.333 178.333 249.08 178.333 250C178.333 250.92 179.083 251.667 180 251.667C180.917 251.667 181.667 250.92 181.667 250C181.667 249.08 180.917 248.333 180 248.333Z" fill="white"/>
<path d="M180 266.667C178.62 266.667 177.5 265.547 177.5 264.167V255C177.5 253.62 178.62 252.5 180 252.5C181.38 252.5 182.5 253.62 182.5 255V264.167C182.5 265.547 181.38 266.667 180 266.667Z" fill="white"/>
</svg>
