<svg width="243" height="433" viewBox="0 0 243 433" fill="none" xmlns="http://www.w3.org/2000/svg">
<rect width="243" height="433" fill="white"/>
<g filter="url(#filter0_d)">
<rect x="12.0002" width="219.613" height="126.121" fill="#5FB2F5"/>
</g>
<g filter="url(#filter1_d)">
<rect x="12" y="126.121" width="219.613" height="274.879" fill="white"/>
</g>
<g filter="url(#filter2_d)">
<path d="M77.7754 89.5076V61.0946H94.9134V64.4976H81.7524V73.0666H93.4374V76.4286H81.7524V89.5076H77.7754ZM113.696 77.6176C114.133 78.1642 114.68 78.8886 115.336 79.7906C116.019 80.6652 116.716 81.6492 117.427 82.7426C118.138 83.8086 118.835 84.9292 119.518 86.1046C120.229 87.2799 120.83 88.4142 121.322 89.5076H116.976C116.429 88.4689 115.828 87.4166 115.172 86.3506C114.543 85.2846 113.901 84.2732 113.245 83.3166C112.589 82.3326 111.933 81.4169 111.277 80.5696C110.648 79.7222 110.074 78.9842 109.555 78.3556C109.2 78.3829 108.831 78.3966 108.448 78.3966C108.093 78.3966 107.724 78.3966 107.341 78.3966H103.774V89.5076H99.7969V61.5046C100.918 61.2312 102.161 61.0536 103.528 60.9716C104.922 60.8622 106.193 60.8076 107.341 60.8076C111.332 60.8076 114.366 61.5592 116.443 63.0626C118.548 64.5659 119.6 66.8072 119.6 69.7866C119.6 71.6726 119.094 73.2852 118.083 74.6246C117.099 75.9639 115.637 76.9616 113.696 77.6176ZM107.669 64.2926C105.974 64.2926 104.676 64.3336 103.774 64.4156V75.1166H106.603C107.97 75.1166 109.2 75.0482 110.293 74.9116C111.386 74.7749 112.302 74.5152 113.04 74.1326C113.805 73.7499 114.393 73.2169 114.803 72.5336C115.213 71.8229 115.418 70.8936 115.418 69.7456C115.418 68.6796 115.213 67.7912 114.803 67.0806C114.393 66.3699 113.833 65.8096 113.122 65.3996C112.439 64.9896 111.619 64.7026 110.662 64.5386C109.733 64.3746 108.735 64.2926 107.669 64.2926ZM125.582 89.5076V61.0946H142.925V64.4976H129.559V72.9436H141.449V76.2646H129.559V86.1046H143.95V89.5076H125.582ZM149.005 89.5076V61.0946H166.348V64.4976H152.982V72.9436H164.872V76.2646H152.982V86.1046H167.373V89.5076H149.005Z" fill="white"/>
</g>
<g filter="url(#filter3_d)">
<path d="M95.9488 44.9998V26.7738H102.657C105.187 26.7738 106.453 27.9091 106.453 30.1798V32.5198C106.453 33.4211 106.279 34.1231 105.933 34.6258C105.603 35.1284 105.135 35.4318 104.529 35.5358C105.153 35.6398 105.673 35.9691 106.089 36.5238C106.505 37.0784 106.713 37.8238 106.713 38.7598V40.7358C106.713 43.5784 105.343 44.9998 102.605 44.9998H95.9488ZM104.685 38.7598C104.685 38.0838 104.494 37.5291 104.113 37.0958C103.731 36.6624 103.177 36.4458 102.449 36.4458H97.9768V42.9198H102.475C103.948 42.9198 104.685 42.1658 104.685 40.6578V38.7598ZM104.555 30.8298C104.555 29.5124 103.922 28.8538 102.657 28.8538H97.9768V34.7038H102.631C103.289 34.7038 103.775 34.5218 104.087 34.1578C104.399 33.7938 104.555 33.3084 104.555 32.7018V30.8298ZM112.013 44.9998C110.921 44.9998 110.115 44.7398 109.595 44.2198C109.092 43.6824 108.841 42.8938 108.841 41.8538V39.9038C108.841 37.9278 109.898 36.9398 112.013 36.9398H117.187V35.9258C117.187 34.4351 116.52 33.6898 115.185 33.6898H109.595V31.6618H115.185C117.785 31.6618 119.085 33.0571 119.085 35.8478V44.9998H112.013ZM117.187 38.6558H112.169C111.164 38.6558 110.661 39.1844 110.661 40.2418V41.5938C110.661 42.6164 111.164 43.1278 112.169 43.1278H117.187V38.6558ZM121.465 44.9998V42.9978H128.173C129.265 42.9978 129.811 42.4864 129.811 41.4638V40.5278C129.811 40.0424 129.663 39.6784 129.369 39.4358C129.074 39.1758 128.675 39.0458 128.173 39.0458H124.793C123.631 39.0458 122.73 38.8204 122.089 38.3698C121.465 37.9191 121.153 37.1044 121.153 35.9258V35.3278C121.153 34.6171 121.231 34.0278 121.387 33.5598C121.543 33.0918 121.777 32.7191 122.089 32.4418C122.418 32.1471 122.825 31.9478 123.311 31.8438C123.813 31.7224 124.403 31.6618 125.079 31.6618H131.059V33.6898H124.559C124.056 33.6898 123.666 33.8198 123.389 34.0798C123.129 34.3398 122.999 34.7471 122.999 35.3018V35.7178C122.999 36.2378 123.146 36.6538 123.441 36.9658C123.735 37.2778 124.186 37.4338 124.793 37.4338H128.251C129.308 37.4338 130.14 37.6504 130.747 38.0838C131.371 38.5171 131.683 39.2798 131.683 40.3718V41.2298C131.683 42.4951 131.414 43.4398 130.877 44.0638C130.357 44.6878 129.473 44.9998 128.225 44.9998H121.465ZM134.063 29.8938V26.7738H136.039V29.8938H134.063ZM134.063 44.9998V31.6618H136.039V44.9998H134.063ZM142.477 44.9998C139.877 44.9998 138.577 43.6044 138.577 40.8138V35.9778C138.577 33.1004 139.877 31.6618 142.477 31.6618H147.157V33.6898H142.529C141.194 33.6898 140.527 34.4784 140.527 36.0558V40.7618C140.527 42.2524 141.194 42.9978 142.529 42.9978H147.209V44.9998H142.477Z" fill="white"/>
</g>
<g clip-path="url(#clip0)">
<path d="M46.6758 165.852C41.5768 165.852 37.429 169.996 37.429 175.091C37.429 180.186 41.5768 184.331 46.6758 184.331C51.7749 184.331 55.9227 180.186 55.9227 175.091C55.9227 169.997 51.7749 165.852 46.6758 165.852ZM46.6758 182.899C42.3675 182.899 38.8615 179.397 38.8615 175.091C38.8615 170.786 42.3675 167.283 46.6758 167.283C50.9848 167.283 54.4902 170.786 54.4902 175.091C54.4902 179.397 50.9841 182.899 46.6758 182.899Z" fill="#5FB2F5"/>
<path d="M50.918 171.878C50.6265 171.613 50.1731 171.634 49.9067 171.927L45.5374 176.734L43.4266 174.59C43.148 174.308 42.6953 174.304 42.4138 174.581C42.1316 174.858 42.1273 175.311 42.4052 175.593L45.0475 178.277C45.1829 178.415 45.3662 178.491 45.5582 178.491C45.5625 178.491 45.5675 178.491 45.5718 178.492C45.7695 178.488 45.9557 178.403 46.0882 178.257L50.9667 172.889C51.2324 172.596 51.2109 172.144 50.918 171.878Z" fill="#5FB2F5"/>
</g>
<path d="M68.0446 171.665C68.6526 171.43 69.2446 171.132 69.8206 170.769C70.3966 170.396 70.9246 169.932 71.4046 169.377H72.4606V180.465H70.9726V171.441C70.8446 171.558 70.6846 171.681 70.4926 171.809C70.3113 171.937 70.1086 172.06 69.8846 172.177C69.6713 172.294 69.442 172.406 69.1966 172.513C68.962 172.62 68.7326 172.71 68.5086 172.785L68.0446 171.665ZM87.435 175.009H88.987V180.193C88.859 180.236 88.6723 180.284 88.427 180.337C88.1923 180.39 87.915 180.444 87.595 180.497C87.2857 180.55 86.9443 180.593 86.571 180.625C86.1977 180.668 85.819 180.689 85.435 180.689C84.6563 180.689 83.947 180.561 83.307 180.305C82.667 180.049 82.1177 179.676 81.659 179.185C81.2003 178.694 80.843 178.092 80.587 177.377C80.3417 176.662 80.219 175.841 80.219 174.913C80.219 173.985 80.3577 173.164 80.635 172.449C80.923 171.724 81.307 171.116 81.787 170.625C82.267 170.134 82.827 169.761 83.467 169.505C84.1177 169.249 84.811 169.121 85.547 169.121C86.0483 169.121 86.491 169.153 86.875 169.217C87.2697 169.281 87.6057 169.356 87.883 169.441C88.1603 169.526 88.3843 169.612 88.555 169.697C88.7363 169.782 88.859 169.846 88.923 169.889L88.427 171.185C88.1177 170.982 87.707 170.817 87.195 170.689C86.683 170.55 86.1603 170.481 85.627 170.481C85.0617 170.481 84.5443 170.582 84.075 170.785C83.6163 170.988 83.2217 171.281 82.891 171.665C82.571 172.049 82.3203 172.518 82.139 173.073C81.9577 173.617 81.867 174.23 81.867 174.913C81.867 175.574 81.9417 176.177 82.091 176.721C82.251 177.265 82.4857 177.734 82.795 178.129C83.115 178.513 83.5043 178.812 83.963 179.025C84.4323 179.238 84.9817 179.345 85.611 179.345C86.059 179.345 86.4377 179.324 86.747 179.281C87.067 179.228 87.2963 179.18 87.435 179.137V175.009ZM94.409 180.561C94.185 180.561 93.9397 180.556 93.673 180.545C93.417 180.534 93.1557 180.518 92.889 180.497C92.633 180.476 92.377 180.449 92.121 180.417C91.865 180.385 91.6303 180.342 91.417 180.289V169.537C91.6303 169.484 91.865 169.441 92.121 169.409C92.377 169.377 92.633 169.35 92.889 169.329C93.1557 169.308 93.417 169.292 93.673 169.281C93.929 169.27 94.169 169.265 94.393 169.265C95.033 169.265 95.6303 169.313 96.185 169.409C96.7503 169.505 97.2357 169.67 97.641 169.905C98.057 170.129 98.3823 170.428 98.617 170.801C98.8517 171.174 98.969 171.633 98.969 172.177C98.969 172.785 98.825 173.286 98.537 173.681C98.249 174.065 97.865 174.353 97.385 174.545C98.0357 174.737 98.553 175.041 98.937 175.457C99.321 175.873 99.513 176.46 99.513 177.217C99.513 178.326 99.1023 179.164 98.281 179.729C97.4703 180.284 96.1797 180.561 94.409 180.561ZM92.953 175.297V179.201C93.0703 179.212 93.209 179.222 93.369 179.233C93.5077 179.244 93.6677 179.254 93.849 179.265C94.041 179.265 94.2597 179.265 94.505 179.265C94.9637 179.265 95.3957 179.238 95.801 179.185C96.217 179.121 96.5797 179.014 96.889 178.865C97.1983 178.716 97.4437 178.508 97.625 178.241C97.817 177.974 97.913 177.638 97.913 177.233C97.913 176.87 97.8437 176.566 97.705 176.321C97.5663 176.065 97.3637 175.862 97.097 175.713C96.841 175.564 96.5317 175.457 96.169 175.393C95.8063 175.329 95.401 175.297 94.953 175.297H92.953ZM92.953 174.049H94.585C94.969 174.049 95.3317 174.022 95.673 173.969C96.0143 173.916 96.3077 173.82 96.553 173.681C96.809 173.542 97.0063 173.361 97.145 173.137C97.2943 172.913 97.369 172.63 97.369 172.289C97.369 171.969 97.2943 171.702 97.145 171.489C96.9957 171.265 96.7877 171.089 96.521 170.961C96.265 170.822 95.961 170.721 95.609 170.657C95.257 170.593 94.8837 170.561 94.489 170.561C94.0943 170.561 93.785 170.566 93.561 170.577C93.337 170.588 93.1343 170.604 92.953 170.625V174.049ZM112.649 176.305C112.649 176.966 112.553 177.564 112.361 178.097C112.169 178.63 111.897 179.089 111.545 179.473C111.204 179.857 110.793 180.156 110.313 180.369C109.833 180.572 109.311 180.673 108.745 180.673C108.18 180.673 107.657 180.572 107.177 180.369C106.697 180.156 106.281 179.857 105.929 179.473C105.588 179.089 105.321 178.63 105.129 178.097C104.937 177.564 104.841 176.966 104.841 176.305C104.841 175.654 104.937 175.062 105.129 174.529C105.321 173.985 105.588 173.521 105.929 173.137C106.281 172.753 106.697 172.46 107.177 172.257C107.657 172.044 108.18 171.937 108.745 171.937C109.311 171.937 109.833 172.044 110.313 172.257C110.793 172.46 111.204 172.753 111.545 173.137C111.897 173.521 112.169 173.985 112.361 174.529C112.553 175.062 112.649 175.654 112.649 176.305ZM111.097 176.305C111.097 175.366 110.884 174.625 110.457 174.081C110.041 173.526 109.471 173.249 108.745 173.249C108.02 173.249 107.444 173.526 107.017 174.081C106.601 174.625 106.393 175.366 106.393 176.305C106.393 177.244 106.601 177.99 107.017 178.545C107.444 179.089 108.02 179.361 108.745 179.361C109.471 179.361 110.041 179.089 110.457 178.545C110.884 177.99 111.097 177.244 111.097 176.305ZM117.991 168.049C118.428 168.049 118.802 168.081 119.111 168.145C119.431 168.209 119.655 168.268 119.783 168.321L119.511 169.601C119.383 169.537 119.202 169.478 118.967 169.425C118.732 169.361 118.444 169.329 118.103 169.329C117.41 169.329 116.924 169.521 116.647 169.905C116.37 170.278 116.231 170.785 116.231 171.425V172.145H119.431V173.393H116.231V180.465H114.743V171.393C114.743 170.326 115.004 169.505 115.527 168.929C116.05 168.342 116.871 168.049 117.991 168.049ZM126.554 179.393C127.162 179.393 127.61 179.313 127.898 179.153C128.197 178.993 128.346 178.737 128.346 178.385C128.346 178.022 128.202 177.734 127.914 177.521C127.626 177.308 127.151 177.068 126.49 176.801C126.17 176.673 125.861 176.545 125.562 176.417C125.274 176.278 125.023 176.118 124.81 175.937C124.597 175.756 124.426 175.537 124.298 175.281C124.17 175.025 124.106 174.71 124.106 174.337C124.106 173.601 124.378 173.02 124.922 172.593C125.466 172.156 126.207 171.937 127.146 171.937C127.381 171.937 127.615 171.953 127.85 171.985C128.085 172.006 128.303 172.038 128.506 172.081C128.709 172.113 128.885 172.15 129.034 172.193C129.194 172.236 129.317 172.273 129.402 172.305L129.13 173.585C128.97 173.5 128.719 173.414 128.378 173.329C128.037 173.233 127.626 173.185 127.146 173.185C126.73 173.185 126.367 173.27 126.058 173.441C125.749 173.601 125.594 173.857 125.594 174.209C125.594 174.39 125.626 174.55 125.69 174.689C125.765 174.828 125.871 174.956 126.01 175.073C126.159 175.18 126.341 175.281 126.554 175.377C126.767 175.473 127.023 175.574 127.322 175.681C127.717 175.83 128.069 175.98 128.378 176.129C128.687 176.268 128.949 176.433 129.162 176.625C129.386 176.817 129.557 177.052 129.674 177.329C129.791 177.596 129.85 177.926 129.85 178.321C129.85 179.089 129.562 179.67 128.986 180.065C128.421 180.46 127.61 180.657 126.554 180.657C125.818 180.657 125.242 180.593 124.826 180.465C124.41 180.348 124.127 180.257 123.978 180.193L124.25 178.913C124.421 178.977 124.693 179.073 125.066 179.201C125.439 179.329 125.935 179.393 126.554 179.393ZM133.151 172.145H136.303V173.393H133.151V177.233C133.151 177.649 133.183 177.996 133.247 178.273C133.311 178.54 133.407 178.753 133.535 178.913C133.663 179.062 133.823 179.169 134.015 179.233C134.207 179.297 134.431 179.329 134.687 179.329C135.135 179.329 135.492 179.281 135.759 179.185C136.036 179.078 136.228 179.004 136.335 178.961L136.623 180.193C136.473 180.268 136.212 180.358 135.839 180.465C135.465 180.582 135.039 180.641 134.559 180.641C133.993 180.641 133.524 180.572 133.151 180.433C132.788 180.284 132.495 180.065 132.271 179.777C132.047 179.489 131.887 179.137 131.791 178.721C131.705 178.294 131.663 177.804 131.663 177.249V169.825L133.151 169.569V172.145ZM145.321 176.305C145.321 176.966 145.225 177.564 145.033 178.097C144.841 178.63 144.569 179.089 144.217 179.473C143.876 179.857 143.465 180.156 142.985 180.369C142.505 180.572 141.983 180.673 141.417 180.673C140.852 180.673 140.329 180.572 139.849 180.369C139.369 180.156 138.953 179.857 138.601 179.473C138.26 179.089 137.993 178.63 137.801 178.097C137.609 177.564 137.513 176.966 137.513 176.305C137.513 175.654 137.609 175.062 137.801 174.529C137.993 173.985 138.26 173.521 138.601 173.137C138.953 172.753 139.369 172.46 139.849 172.257C140.329 172.044 140.852 171.937 141.417 171.937C141.983 171.937 142.505 172.044 142.985 172.257C143.465 172.46 143.876 172.753 144.217 173.137C144.569 173.521 144.841 173.985 145.033 174.529C145.225 175.062 145.321 175.654 145.321 176.305ZM143.769 176.305C143.769 175.366 143.556 174.625 143.129 174.081C142.713 173.526 142.143 173.249 141.417 173.249C140.692 173.249 140.116 173.526 139.689 174.081C139.273 174.625 139.065 175.366 139.065 176.305C139.065 177.244 139.273 177.99 139.689 178.545C140.116 179.089 140.692 179.361 141.417 179.361C142.143 179.361 142.713 179.089 143.129 178.545C143.556 177.99 143.769 177.244 143.769 176.305ZM150.487 171.969C150.615 171.969 150.759 171.98 150.919 172.001C151.089 172.012 151.255 172.033 151.415 172.065C151.575 172.086 151.719 172.113 151.847 172.145C151.985 172.166 152.087 172.188 152.151 172.209L151.895 173.505C151.777 173.462 151.58 173.414 151.303 173.361C151.036 173.297 150.689 173.265 150.263 173.265C149.985 173.265 149.708 173.297 149.431 173.361C149.164 173.414 148.988 173.452 148.903 173.473V180.465H147.415V172.497C147.767 172.369 148.204 172.252 148.727 172.145C149.249 172.028 149.836 171.969 150.487 171.969ZM156.403 179.393C156.755 179.393 157.064 179.388 157.331 179.377C157.608 179.356 157.837 179.324 158.019 179.281V176.801C157.912 176.748 157.736 176.705 157.491 176.673C157.256 176.63 156.968 176.609 156.627 176.609C156.403 176.609 156.163 176.625 155.907 176.657C155.661 176.689 155.432 176.758 155.219 176.865C155.016 176.961 154.845 177.1 154.707 177.281C154.568 177.452 154.499 177.681 154.499 177.969C154.499 178.502 154.669 178.876 155.011 179.089C155.352 179.292 155.816 179.393 156.403 179.393ZM156.275 171.937C156.872 171.937 157.373 172.017 157.779 172.177C158.195 172.326 158.525 172.545 158.771 172.833C159.027 173.11 159.208 173.446 159.315 173.841C159.421 174.225 159.475 174.652 159.475 175.121V180.321C159.347 180.342 159.165 180.374 158.931 180.417C158.707 180.449 158.451 180.481 158.163 180.513C157.875 180.545 157.56 180.572 157.219 180.593C156.888 180.625 156.557 180.641 156.227 180.641C155.757 180.641 155.325 180.593 154.931 180.497C154.536 180.401 154.195 180.252 153.907 180.049C153.619 179.836 153.395 179.558 153.235 179.217C153.075 178.876 152.995 178.465 152.995 177.985C152.995 177.526 153.085 177.132 153.267 176.801C153.459 176.47 153.715 176.204 154.035 176.001C154.355 175.798 154.728 175.649 155.155 175.553C155.581 175.457 156.029 175.409 156.499 175.409C156.648 175.409 156.803 175.42 156.963 175.441C157.123 175.452 157.272 175.473 157.411 175.505C157.56 175.526 157.688 175.548 157.795 175.569C157.901 175.59 157.976 175.606 158.019 175.617V175.201C158.019 174.956 157.992 174.716 157.939 174.481C157.885 174.236 157.789 174.022 157.651 173.841C157.512 173.649 157.32 173.5 157.075 173.393C156.84 173.276 156.531 173.217 156.147 173.217C155.656 173.217 155.224 173.254 154.851 173.329C154.488 173.393 154.216 173.462 154.035 173.537L153.859 172.305C154.051 172.22 154.371 172.14 154.819 172.065C155.267 171.98 155.752 171.937 156.275 171.937ZM167.162 179.633C167.034 179.718 166.783 179.83 166.41 179.969C166.047 180.097 165.621 180.161 165.13 180.161C164.629 180.161 164.154 180.081 163.706 179.921C163.269 179.761 162.885 179.516 162.554 179.185C162.223 178.844 161.962 178.422 161.77 177.921C161.578 177.42 161.482 176.822 161.482 176.129C161.482 175.521 161.573 174.966 161.754 174.465C161.935 173.953 162.197 173.516 162.538 173.153C162.89 172.78 163.317 172.492 163.818 172.289C164.319 172.076 164.885 171.969 165.514 171.969C166.207 171.969 166.81 172.022 167.322 172.129C167.845 172.225 168.282 172.316 168.634 172.401V179.825C168.634 181.105 168.303 182.033 167.642 182.609C166.981 183.185 165.978 183.473 164.634 183.473C164.111 183.473 163.615 183.43 163.146 183.345C162.687 183.26 162.287 183.158 161.946 183.041L162.218 181.745C162.517 181.862 162.879 181.964 163.306 182.049C163.743 182.145 164.197 182.193 164.666 182.193C165.551 182.193 166.186 182.017 166.57 181.665C166.965 181.313 167.162 180.753 167.162 179.985V179.633ZM167.146 173.457C166.997 173.414 166.794 173.377 166.538 173.345C166.293 173.302 165.957 173.281 165.53 173.281C164.73 173.281 164.111 173.542 163.674 174.065C163.247 174.588 163.034 175.281 163.034 176.145C163.034 176.625 163.093 177.036 163.21 177.377C163.338 177.718 163.503 178.001 163.706 178.225C163.919 178.449 164.159 178.614 164.426 178.721C164.703 178.828 164.986 178.881 165.274 178.881C165.669 178.881 166.031 178.828 166.362 178.721C166.693 178.604 166.954 178.47 167.146 178.321V173.457ZM170.732 176.321C170.732 175.585 170.839 174.945 171.052 174.401C171.265 173.846 171.548 173.388 171.9 173.025C172.252 172.662 172.657 172.39 173.116 172.209C173.575 172.028 174.044 171.937 174.524 171.937C175.644 171.937 176.503 172.289 177.1 172.993C177.697 173.686 177.996 174.748 177.996 176.177C177.996 176.241 177.996 176.326 177.996 176.433C177.996 176.529 177.991 176.62 177.98 176.705H172.284C172.348 177.569 172.599 178.225 173.036 178.673C173.473 179.121 174.156 179.345 175.084 179.345C175.607 179.345 176.044 179.302 176.396 179.217C176.759 179.121 177.031 179.03 177.212 178.945L177.42 180.193C177.239 180.289 176.919 180.39 176.46 180.497C176.012 180.604 175.5 180.657 174.924 180.657C174.199 180.657 173.569 180.55 173.036 180.337C172.513 180.113 172.081 179.809 171.74 179.425C171.399 179.041 171.143 178.588 170.972 178.065C170.812 177.532 170.732 176.95 170.732 176.321ZM176.444 175.505C176.455 174.833 176.284 174.284 175.932 173.857C175.591 173.42 175.116 173.201 174.508 173.201C174.167 173.201 173.863 173.27 173.596 173.409C173.34 173.537 173.121 173.708 172.94 173.921C172.759 174.134 172.615 174.38 172.508 174.657C172.412 174.934 172.348 175.217 172.316 175.505H176.444Z" fill="#404A53"/>
<g clip-path="url(#clip1)">
<path d="M46.6758 209.278C41.5768 209.278 37.429 213.422 37.429 218.517C37.429 223.612 41.5768 227.757 46.6758 227.757C51.7749 227.757 55.9227 223.612 55.9227 218.517C55.9227 213.423 51.7749 209.278 46.6758 209.278ZM46.6758 226.325C42.3675 226.325 38.8615 222.823 38.8615 218.517C38.8615 214.212 42.3675 210.709 46.6758 210.709C50.9848 210.709 54.4902 214.212 54.4902 218.517C54.4902 222.823 50.9841 226.325 46.6758 226.325Z" fill="#5FB2F5"/>
<path d="M50.918 215.304C50.6265 215.039 50.1731 215.06 49.9067 215.353L45.5374 220.16L43.4266 218.016C43.148 217.734 42.6953 217.73 42.4138 218.007C42.1316 218.284 42.1273 218.737 42.4052 219.019L45.0475 221.703C45.1829 221.841 45.3662 221.917 45.5582 221.917C45.5625 221.917 45.5675 221.917 45.5718 221.918C45.7695 221.914 45.9557 221.829 46.0882 221.683L50.9667 216.316C51.2324 216.022 51.2109 215.57 50.918 215.304Z" fill="#5FB2F5"/>
</g>
<path d="M67.4846 219.726C67.4846 218.776 67.6233 217.939 67.9006 217.214C68.1886 216.488 68.5726 215.886 69.0526 215.406C69.5433 214.915 70.1086 214.547 70.7486 214.302C71.3993 214.056 72.0873 213.934 72.8126 213.934C73.5273 213.934 74.1993 214.056 74.8286 214.302C75.4686 214.547 76.0286 214.915 76.5086 215.406C76.9886 215.886 77.3673 216.488 77.6446 217.214C77.9326 217.939 78.0766 218.776 78.0766 219.726C78.0766 220.675 77.9326 221.512 77.6446 222.238C77.3673 222.963 76.9886 223.571 76.5086 224.062C76.0286 224.542 75.4686 224.904 74.8286 225.15C74.1993 225.395 73.5273 225.518 72.8126 225.518C72.0873 225.518 71.3993 225.395 70.7486 225.15C70.1086 224.904 69.5433 224.542 69.0526 224.062C68.5726 223.571 68.1886 222.963 67.9006 222.238C67.6233 221.512 67.4846 220.675 67.4846 219.726ZM69.1166 219.726C69.1166 220.398 69.202 221.011 69.3726 221.566C69.5433 222.11 69.7833 222.574 70.0926 222.958C70.4126 223.342 70.7966 223.64 71.2446 223.854C71.7033 224.056 72.2153 224.158 72.7806 224.158C73.346 224.158 73.8526 224.056 74.3006 223.854C74.7486 223.64 75.1273 223.342 75.4366 222.958C75.7566 222.574 76.002 222.11 76.1726 221.566C76.3433 221.011 76.4286 220.398 76.4286 219.726C76.4286 219.054 76.3433 218.446 76.1726 217.902C76.002 217.347 75.7566 216.878 75.4366 216.494C75.1273 216.11 74.7486 215.816 74.3006 215.614C73.8526 215.4 73.346 215.294 72.7806 215.294C72.2153 215.294 71.7033 215.4 71.2446 215.614C70.7966 215.816 70.4126 216.11 70.0926 216.494C69.7833 216.878 69.5433 217.347 69.3726 217.902C69.202 218.446 69.1166 219.054 69.1166 219.726ZM80.2898 217.198C80.6311 217.112 81.0844 217.022 81.6498 216.926C82.2151 216.83 82.8658 216.782 83.6018 216.782C84.2631 216.782 84.8124 216.878 85.2498 217.07C85.6871 217.251 86.0338 217.512 86.2898 217.854C86.5564 218.184 86.7431 218.584 86.8498 219.054C86.9564 219.523 87.0098 220.04 87.0098 220.606V225.278H85.5218V220.926C85.5218 220.414 85.4844 219.976 85.4098 219.614C85.3458 219.251 85.2338 218.958 85.0738 218.734C84.9138 218.51 84.7004 218.35 84.4338 218.254C84.1671 218.147 83.8364 218.094 83.4418 218.094C83.2818 218.094 83.1164 218.099 82.9458 218.11C82.7751 218.12 82.6098 218.136 82.4498 218.158C82.3004 218.168 82.1618 218.184 82.0338 218.206C81.9164 218.227 81.8311 218.243 81.7778 218.254V225.278H80.2898V217.198ZM91.9733 225.438C91.0559 225.416 90.4053 225.219 90.0213 224.846C89.6373 224.472 89.4453 223.891 89.4453 223.102V213.118L90.9333 212.862V222.862C90.9333 223.107 90.9546 223.31 90.9973 223.47C91.0399 223.63 91.1093 223.758 91.2053 223.854C91.3013 223.95 91.4293 224.024 91.5893 224.078C91.7493 224.12 91.9466 224.158 92.1813 224.19L91.9733 225.438ZM95.3403 225.278H93.8523V216.958H95.3403V225.278ZM94.5883 215.454C94.3216 215.454 94.0923 215.368 93.9003 215.198C93.7189 215.016 93.6283 214.776 93.6283 214.478C93.6283 214.179 93.7189 213.944 93.9003 213.774C94.0923 213.592 94.3216 213.502 94.5883 213.502C94.8549 213.502 95.0789 213.592 95.2603 213.774C95.4523 213.944 95.5483 214.179 95.5483 214.478C95.5483 214.776 95.4523 215.016 95.2603 215.198C95.0789 215.368 94.8549 215.454 94.5883 215.454ZM97.8991 217.198C98.2405 217.112 98.6938 217.022 99.2591 216.926C99.8245 216.83 100.475 216.782 101.211 216.782C101.872 216.782 102.422 216.878 102.859 217.07C103.296 217.251 103.643 217.512 103.899 217.854C104.166 218.184 104.352 218.584 104.459 219.054C104.566 219.523 104.619 220.04 104.619 220.606V225.278H103.131V220.926C103.131 220.414 103.094 219.976 103.019 219.614C102.955 219.251 102.843 218.958 102.683 218.734C102.523 218.51 102.31 218.35 102.043 218.254C101.776 218.147 101.446 218.094 101.051 218.094C100.891 218.094 100.726 218.099 100.555 218.11C100.384 218.12 100.219 218.136 100.059 218.158C99.9098 218.168 99.7711 218.184 99.6431 218.206C99.5258 218.227 99.4405 218.243 99.3871 218.254V225.278H97.8991V217.198ZM106.623 221.134C106.623 220.398 106.729 219.758 106.943 219.214C107.156 218.659 107.439 218.2 107.791 217.838C108.143 217.475 108.548 217.203 109.007 217.022C109.465 216.84 109.935 216.75 110.415 216.75C111.535 216.75 112.393 217.102 112.991 217.806C113.588 218.499 113.887 219.56 113.887 220.99C113.887 221.054 113.887 221.139 113.887 221.246C113.887 221.342 113.881 221.432 113.871 221.518H108.175C108.239 222.382 108.489 223.038 108.927 223.486C109.364 223.934 110.047 224.158 110.975 224.158C111.497 224.158 111.935 224.115 112.287 224.03C112.649 223.934 112.921 223.843 113.103 223.758L113.311 225.006C113.129 225.102 112.809 225.203 112.351 225.31C111.903 225.416 111.391 225.47 110.815 225.47C110.089 225.47 109.46 225.363 108.927 225.15C108.404 224.926 107.972 224.622 107.631 224.238C107.289 223.854 107.033 223.4 106.863 222.878C106.703 222.344 106.623 221.763 106.623 221.134ZM112.335 220.318C112.345 219.646 112.175 219.096 111.823 218.67C111.481 218.232 111.007 218.014 110.399 218.014C110.057 218.014 109.753 218.083 109.487 218.222C109.231 218.35 109.012 218.52 108.831 218.734C108.649 218.947 108.505 219.192 108.399 219.47C108.303 219.747 108.239 220.03 108.207 220.318H112.335ZM119.727 217.198C120.069 217.112 120.517 217.022 121.071 216.926C121.637 216.83 122.287 216.782 123.023 216.782C123.557 216.782 124.005 216.856 124.367 217.006C124.73 217.144 125.034 217.352 125.279 217.63C125.354 217.576 125.471 217.502 125.631 217.406C125.791 217.31 125.989 217.219 126.223 217.134C126.458 217.038 126.719 216.958 127.007 216.894C127.295 216.819 127.605 216.782 127.935 216.782C128.575 216.782 129.098 216.878 129.503 217.07C129.909 217.251 130.223 217.512 130.447 217.854C130.682 218.195 130.837 218.6 130.911 219.07C130.997 219.539 131.039 220.051 131.039 220.606V225.278H129.551V220.926C129.551 220.435 129.525 220.014 129.471 219.662C129.429 219.31 129.338 219.016 129.199 218.782C129.071 218.547 128.89 218.376 128.655 218.27C128.431 218.152 128.138 218.094 127.775 218.094C127.274 218.094 126.858 218.163 126.527 218.302C126.207 218.43 125.989 218.547 125.871 218.654C125.957 218.931 126.021 219.235 126.063 219.566C126.106 219.896 126.127 220.243 126.127 220.606V225.278H124.639V220.926C124.639 220.435 124.613 220.014 124.559 219.662C124.506 219.31 124.41 219.016 124.271 218.782C124.143 218.547 123.962 218.376 123.727 218.27C123.503 218.152 123.215 218.094 122.863 218.094C122.714 218.094 122.554 218.099 122.383 218.11C122.213 218.12 122.047 218.136 121.887 218.158C121.738 218.168 121.599 218.184 121.471 218.206C121.343 218.227 121.258 218.243 121.215 218.254V225.278H119.727V217.198ZM140.853 221.118C140.853 221.779 140.757 222.376 140.565 222.91C140.373 223.443 140.101 223.902 139.749 224.286C139.407 224.67 138.997 224.968 138.517 225.182C138.037 225.384 137.514 225.486 136.949 225.486C136.383 225.486 135.861 225.384 135.381 225.182C134.901 224.968 134.485 224.67 134.133 224.286C133.791 223.902 133.525 223.443 133.333 222.91C133.141 222.376 133.045 221.779 133.045 221.118C133.045 220.467 133.141 219.875 133.333 219.342C133.525 218.798 133.791 218.334 134.133 217.95C134.485 217.566 134.901 217.272 135.381 217.07C135.861 216.856 136.383 216.75 136.949 216.75C137.514 216.75 138.037 216.856 138.517 217.07C138.997 217.272 139.407 217.566 139.749 217.95C140.101 218.334 140.373 218.798 140.565 219.342C140.757 219.875 140.853 220.467 140.853 221.118ZM139.301 221.118C139.301 220.179 139.087 219.438 138.661 218.894C138.245 218.339 137.674 218.062 136.949 218.062C136.223 218.062 135.647 218.339 135.221 218.894C134.805 219.438 134.597 220.179 134.597 221.118C134.597 222.056 134.805 222.803 135.221 223.358C135.647 223.902 136.223 224.174 136.949 224.174C137.674 224.174 138.245 223.902 138.661 223.358C139.087 222.803 139.301 222.056 139.301 221.118ZM148.322 218.718C148.141 218.568 147.879 218.424 147.538 218.286C147.197 218.147 146.823 218.078 146.418 218.078C145.991 218.078 145.623 218.158 145.314 218.318C145.015 218.467 144.77 218.68 144.578 218.958C144.386 219.224 144.247 219.544 144.162 219.918C144.077 220.291 144.034 220.691 144.034 221.118C144.034 222.088 144.274 222.84 144.754 223.374C145.234 223.896 145.874 224.158 146.674 224.158C147.079 224.158 147.415 224.142 147.682 224.11C147.959 224.067 148.173 224.024 148.322 223.982V218.718ZM148.322 213.118L149.81 212.862V225.038C149.469 225.134 149.031 225.23 148.498 225.326C147.965 225.422 147.351 225.47 146.658 225.47C146.018 225.47 145.442 225.368 144.93 225.166C144.418 224.963 143.981 224.675 143.618 224.302C143.255 223.928 142.973 223.475 142.77 222.942C142.578 222.398 142.482 221.79 142.482 221.118C142.482 220.478 142.562 219.891 142.722 219.358C142.893 218.824 143.138 218.366 143.458 217.982C143.778 217.598 144.167 217.299 144.626 217.086C145.095 216.872 145.629 216.766 146.226 216.766C146.706 216.766 147.127 216.83 147.49 216.958C147.863 217.086 148.141 217.208 148.322 217.326V213.118ZM151.904 221.134C151.904 220.398 152.011 219.758 152.224 219.214C152.437 218.659 152.72 218.2 153.072 217.838C153.424 217.475 153.829 217.203 154.288 217.022C154.747 216.84 155.216 216.75 155.696 216.75C156.816 216.75 157.675 217.102 158.272 217.806C158.869 218.499 159.168 219.56 159.168 220.99C159.168 221.054 159.168 221.139 159.168 221.246C159.168 221.342 159.163 221.432 159.152 221.518H153.456C153.52 222.382 153.771 223.038 154.208 223.486C154.645 223.934 155.328 224.158 156.256 224.158C156.779 224.158 157.216 224.115 157.568 224.03C157.931 223.934 158.203 223.843 158.384 223.758L158.592 225.006C158.411 225.102 158.091 225.203 157.632 225.31C157.184 225.416 156.672 225.47 156.096 225.47C155.371 225.47 154.741 225.363 154.208 225.15C153.685 224.926 153.253 224.622 152.912 224.238C152.571 223.854 152.315 223.4 152.144 222.878C151.984 222.344 151.904 221.763 151.904 221.134ZM157.616 220.318C157.627 219.646 157.456 219.096 157.104 218.67C156.763 218.232 156.288 218.014 155.68 218.014C155.339 218.014 155.035 218.083 154.768 218.222C154.512 218.35 154.293 218.52 154.112 218.734C153.931 218.947 153.787 219.192 153.68 219.47C153.584 219.747 153.52 220.03 153.488 220.318H157.616ZM172.353 221.118C172.353 221.779 172.257 222.376 172.065 222.91C171.873 223.443 171.601 223.902 171.249 224.286C170.907 224.67 170.497 224.968 170.017 225.182C169.537 225.384 169.014 225.486 168.449 225.486C167.883 225.486 167.361 225.384 166.881 225.182C166.401 224.968 165.985 224.67 165.633 224.286C165.291 223.902 165.025 223.443 164.833 222.91C164.641 222.376 164.545 221.779 164.545 221.118C164.545 220.467 164.641 219.875 164.833 219.342C165.025 218.798 165.291 218.334 165.633 217.95C165.985 217.566 166.401 217.272 166.881 217.07C167.361 216.856 167.883 216.75 168.449 216.75C169.014 216.75 169.537 216.856 170.017 217.07C170.497 217.272 170.907 217.566 171.249 217.95C171.601 218.334 171.873 218.798 172.065 219.342C172.257 219.875 172.353 220.467 172.353 221.118ZM170.801 221.118C170.801 220.179 170.587 219.438 170.161 218.894C169.745 218.339 169.174 218.062 168.449 218.062C167.723 218.062 167.147 218.339 166.721 218.894C166.305 219.438 166.097 220.179 166.097 221.118C166.097 222.056 166.305 222.803 166.721 223.358C167.147 223.902 167.723 224.174 168.449 224.174C169.174 224.174 169.745 223.902 170.161 223.358C170.587 222.803 170.801 222.056 170.801 221.118ZM174.446 217.198C174.787 217.112 175.241 217.022 175.806 216.926C176.371 216.83 177.022 216.782 177.758 216.782C178.419 216.782 178.969 216.878 179.406 217.07C179.843 217.251 180.19 217.512 180.446 217.854C180.713 218.184 180.899 218.584 181.006 219.054C181.113 219.523 181.166 220.04 181.166 220.606V225.278H179.678V220.926C179.678 220.414 179.641 219.976 179.566 219.614C179.502 219.251 179.39 218.958 179.23 218.734C179.07 218.51 178.857 218.35 178.59 218.254C178.323 218.147 177.993 218.094 177.598 218.094C177.438 218.094 177.273 218.099 177.102 218.11C176.931 218.12 176.766 218.136 176.606 218.158C176.457 218.168 176.318 218.184 176.19 218.206C176.073 218.227 175.987 218.243 175.934 218.254V225.278H174.446V217.198ZM186.13 225.438C185.212 225.416 184.562 225.219 184.178 224.846C183.794 224.472 183.602 223.891 183.602 223.102V213.118L185.09 212.862V222.862C185.09 223.107 185.111 223.31 185.154 223.47C185.196 223.63 185.266 223.758 185.362 223.854C185.458 223.95 185.586 224.024 185.746 224.078C185.906 224.12 186.103 224.158 186.338 224.19L186.13 225.438ZM187.033 226.83C187.15 226.883 187.299 226.931 187.481 226.974C187.673 227.027 187.859 227.054 188.041 227.054C188.627 227.054 189.086 226.92 189.417 226.654C189.747 226.398 190.046 225.976 190.313 225.39C189.641 224.11 189.011 222.755 188.425 221.326C187.849 219.886 187.369 218.43 186.985 216.958H188.585C188.702 217.438 188.841 217.955 189.001 218.51C189.171 219.064 189.358 219.635 189.561 220.222C189.763 220.808 189.982 221.395 190.217 221.982C190.451 222.568 190.697 223.134 190.953 223.678C191.358 222.558 191.71 221.448 192.009 220.35C192.307 219.251 192.59 218.12 192.857 216.958H194.393C194.009 218.526 193.582 220.035 193.113 221.486C192.643 222.926 192.137 224.275 191.593 225.534C191.379 226.014 191.155 226.424 190.921 226.766C190.697 227.118 190.446 227.406 190.169 227.63C189.891 227.854 189.577 228.019 189.225 228.126C188.883 228.232 188.494 228.286 188.057 228.286C187.939 228.286 187.817 228.275 187.689 228.254C187.561 228.243 187.433 228.222 187.305 228.19C187.187 228.168 187.075 228.142 186.969 228.11C186.873 228.078 186.803 228.051 186.761 228.03L187.033 226.83Z" fill="#404A53"/>
<g clip-path="url(#clip2)">
<path d="M46.6758 254.09C41.5768 254.09 37.429 258.234 37.429 263.329C37.429 268.424 41.5768 272.569 46.6758 272.569C51.7749 272.569 55.9227 268.424 55.9227 263.329C55.9227 258.235 51.7749 254.09 46.6758 254.09ZM46.6758 271.137C42.3675 271.137 38.8615 267.635 38.8615 263.329C38.8615 259.024 42.3675 255.521 46.6758 255.521C50.9848 255.521 54.4902 259.024 54.4902 263.329C54.4902 267.635 50.9841 271.137 46.6758 271.137Z" fill="#5FB2F5"/>
<path d="M50.918 260.116C50.6265 259.852 50.1731 259.872 49.9067 260.165L45.5374 264.972L43.4266 262.828C43.148 262.546 42.6953 262.542 42.4138 262.82C42.1316 263.097 42.1273 263.55 42.4052 263.832L45.0475 266.516C45.1829 266.653 45.3662 266.73 45.5582 266.73C45.5625 266.73 45.5675 266.73 45.5718 266.73C45.7695 266.726 45.9557 266.641 46.0882 266.495L50.9667 261.128C51.2324 260.834 51.2109 260.382 50.918 260.116Z" fill="#5FB2F5"/>
</g>
<path d="M72.0606 268.944C71.3353 268.944 70.706 268.832 70.1726 268.608C69.6393 268.384 69.202 268.08 68.8606 267.696C68.5193 267.301 68.2633 266.837 68.0926 266.304C67.9326 265.77 67.8526 265.194 67.8526 264.576V257.616H69.4046V264.4C69.4046 265.509 69.65 266.314 70.1406 266.816C70.6313 267.317 71.2713 267.568 72.0606 267.568C72.4553 267.568 72.8126 267.509 73.1326 267.392C73.4633 267.264 73.746 267.072 73.9806 266.816C74.2153 266.56 74.3966 266.234 74.5246 265.84C74.6526 265.434 74.7166 264.954 74.7166 264.4V257.616H76.2686V264.576C76.2686 265.194 76.1833 265.77 76.0126 266.304C75.8526 266.837 75.5966 267.301 75.2446 267.696C74.9033 268.08 74.466 268.384 73.9326 268.608C73.41 268.832 72.786 268.944 72.0606 268.944ZM84.6283 264.56C84.6283 263.589 84.3883 262.842 83.9083 262.32C83.4283 261.797 82.7883 261.536 81.9883 261.536C81.5403 261.536 81.1883 261.552 80.9323 261.584C80.6869 261.616 80.4896 261.653 80.3403 261.696V266.944C80.5216 267.093 80.7829 267.237 81.1243 267.376C81.4656 267.514 81.8389 267.584 82.2443 267.584C82.6709 267.584 83.0336 267.509 83.3323 267.36C83.6416 267.2 83.8923 266.986 84.0843 266.72C84.2763 266.442 84.4149 266.122 84.5003 265.76C84.5856 265.386 84.6283 264.986 84.6283 264.56ZM86.1803 264.56C86.1803 265.189 86.0949 265.77 85.9243 266.304C85.7643 266.837 85.5243 267.296 85.2043 267.68C84.8843 268.064 84.4896 268.362 84.0203 268.576C83.5616 268.789 83.0336 268.896 82.4363 268.896C81.9563 268.896 81.5296 268.832 81.1563 268.704C80.7936 268.576 80.5216 268.453 80.3403 268.336V271.664H78.8523V260.64C79.2043 260.554 79.6416 260.464 80.1643 260.368C80.6976 260.261 81.3109 260.208 82.0043 260.208C82.6443 260.208 83.2203 260.309 83.7323 260.512C84.2443 260.714 84.6816 261.002 85.0443 261.376C85.4069 261.749 85.6843 262.208 85.8763 262.752C86.0789 263.285 86.1803 263.888 86.1803 264.56ZM93.3693 260.384H96.5213V261.632H93.3693V265.472C93.3693 265.888 93.4013 266.234 93.4653 266.512C93.5293 266.778 93.6253 266.992 93.7533 267.152C93.8813 267.301 94.0413 267.408 94.2333 267.472C94.4253 267.536 94.6493 267.568 94.9053 267.568C95.3533 267.568 95.7106 267.52 95.9773 267.424C96.2546 267.317 96.4466 267.242 96.5533 267.2L96.8413 268.432C96.6919 268.506 96.4306 268.597 96.0573 268.704C95.6839 268.821 95.2573 268.88 94.7773 268.88C94.2119 268.88 93.7426 268.81 93.3693 268.672C93.0066 268.522 92.7133 268.304 92.4893 268.016C92.2653 267.728 92.1053 267.376 92.0093 266.96C91.9239 266.533 91.8813 266.042 91.8813 265.488V258.064L93.3693 257.808V260.384ZM105.54 264.544C105.54 265.205 105.444 265.802 105.252 266.336C105.06 266.869 104.788 267.328 104.436 267.712C104.095 268.096 103.684 268.394 103.204 268.608C102.724 268.81 102.201 268.912 101.636 268.912C101.071 268.912 100.548 268.81 100.068 268.608C99.588 268.394 99.172 268.096 98.82 267.712C98.4787 267.328 98.212 266.869 98.02 266.336C97.828 265.802 97.732 265.205 97.732 264.544C97.732 263.893 97.828 263.301 98.02 262.768C98.212 262.224 98.4787 261.76 98.82 261.376C99.172 260.992 99.588 260.698 100.068 260.496C100.548 260.282 101.071 260.176 101.636 260.176C102.201 260.176 102.724 260.282 103.204 260.496C103.684 260.698 104.095 260.992 104.436 261.376C104.788 261.76 105.06 262.224 105.252 262.768C105.444 263.301 105.54 263.893 105.54 264.544ZM103.988 264.544C103.988 263.605 103.775 262.864 103.348 262.32C102.932 261.765 102.361 261.488 101.636 261.488C100.911 261.488 100.335 261.765 99.908 262.32C99.492 262.864 99.284 263.605 99.284 264.544C99.284 265.482 99.492 266.229 99.908 266.784C100.335 267.328 100.911 267.6 101.636 267.6C102.361 267.6 102.932 267.328 103.348 266.784C103.775 266.229 103.988 265.482 103.988 264.544ZM111.545 259.904C112.153 259.669 112.745 259.37 113.321 259.008C113.897 258.634 114.425 258.17 114.905 257.616H115.961V268.704H114.473V259.68C114.345 259.797 114.185 259.92 113.993 260.048C113.811 260.176 113.609 260.298 113.385 260.416C113.171 260.533 112.942 260.645 112.697 260.752C112.462 260.858 112.233 260.949 112.009 261.024L111.545 259.904ZM119.888 263.152C119.888 261.296 120.213 259.866 120.864 258.864C121.525 257.861 122.437 257.36 123.6 257.36C124.763 257.36 125.669 257.861 126.32 258.864C126.981 259.866 127.312 261.296 127.312 263.152C127.312 265.008 126.981 266.437 126.32 267.44C125.669 268.442 124.763 268.944 123.6 268.944C122.437 268.944 121.525 268.442 120.864 267.44C120.213 266.437 119.888 265.008 119.888 263.152ZM125.744 263.152C125.744 262.544 125.707 261.968 125.632 261.424C125.568 260.88 125.451 260.405 125.28 260C125.12 259.594 124.901 259.274 124.624 259.04C124.347 258.794 124.005 258.672 123.6 258.672C123.195 258.672 122.853 258.794 122.576 259.04C122.299 259.274 122.075 259.594 121.904 260C121.744 260.405 121.627 260.88 121.552 261.424C121.488 261.968 121.456 262.544 121.456 263.152C121.456 263.76 121.488 264.336 121.552 264.88C121.627 265.424 121.744 265.898 121.904 266.304C122.075 266.709 122.299 267.034 122.576 267.28C122.853 267.514 123.195 267.632 123.6 267.632C124.005 267.632 124.347 267.514 124.624 267.28C124.901 267.034 125.12 266.709 125.28 266.304C125.451 265.898 125.568 265.424 125.632 264.88C125.707 264.336 125.744 263.76 125.744 263.152ZM135.038 267.632C135.646 267.632 136.094 267.552 136.382 267.392C136.681 267.232 136.83 266.976 136.83 266.624C136.83 266.261 136.686 265.973 136.398 265.76C136.11 265.546 135.636 265.306 134.974 265.04C134.654 264.912 134.345 264.784 134.046 264.656C133.758 264.517 133.508 264.357 133.294 264.176C133.081 263.994 132.91 263.776 132.782 263.52C132.654 263.264 132.59 262.949 132.59 262.576C132.59 261.84 132.862 261.258 133.406 260.832C133.95 260.394 134.692 260.176 135.63 260.176C135.865 260.176 136.1 260.192 136.334 260.224C136.569 260.245 136.788 260.277 136.99 260.32C137.193 260.352 137.369 260.389 137.518 260.432C137.678 260.474 137.801 260.512 137.886 260.544L137.614 261.824C137.454 261.738 137.204 261.653 136.862 261.568C136.521 261.472 136.11 261.424 135.63 261.424C135.214 261.424 134.852 261.509 134.542 261.68C134.233 261.84 134.078 262.096 134.078 262.448C134.078 262.629 134.11 262.789 134.174 262.928C134.249 263.066 134.356 263.194 134.494 263.312C134.644 263.418 134.825 263.52 135.038 263.616C135.252 263.712 135.508 263.813 135.806 263.92C136.201 264.069 136.553 264.218 136.862 264.368C137.172 264.506 137.433 264.672 137.646 264.864C137.87 265.056 138.041 265.29 138.158 265.568C138.276 265.834 138.334 266.165 138.334 266.56C138.334 267.328 138.046 267.909 137.47 268.304C136.905 268.698 136.094 268.896 135.038 268.896C134.302 268.896 133.726 268.832 133.31 268.704C132.894 268.586 132.612 268.496 132.462 268.432L132.734 267.152C132.905 267.216 133.177 267.312 133.55 267.44C133.924 267.568 134.42 267.632 135.038 267.632ZM139.779 264.56C139.779 263.824 139.886 263.184 140.099 262.64C140.312 262.085 140.595 261.626 140.947 261.264C141.299 260.901 141.704 260.629 142.163 260.448C142.622 260.266 143.091 260.176 143.571 260.176C144.691 260.176 145.55 260.528 146.147 261.232C146.744 261.925 147.043 262.986 147.043 264.416C147.043 264.48 147.043 264.565 147.043 264.672C147.043 264.768 147.038 264.858 147.027 264.944H141.331C141.395 265.808 141.646 266.464 142.083 266.912C142.52 267.36 143.203 267.584 144.131 267.584C144.654 267.584 145.091 267.541 145.443 267.456C145.806 267.36 146.078 267.269 146.259 267.184L146.467 268.432C146.286 268.528 145.966 268.629 145.507 268.736C145.059 268.842 144.547 268.896 143.971 268.896C143.246 268.896 142.616 268.789 142.083 268.576C141.56 268.352 141.128 268.048 140.787 267.664C140.446 267.28 140.19 266.826 140.019 266.304C139.859 265.77 139.779 265.189 139.779 264.56ZM145.491 263.744C145.502 263.072 145.331 262.522 144.979 262.096C144.638 261.658 144.163 261.44 143.555 261.44C143.214 261.44 142.91 261.509 142.643 261.648C142.387 261.776 142.168 261.946 141.987 262.16C141.806 262.373 141.662 262.618 141.555 262.896C141.459 263.173 141.395 263.456 141.363 263.744H145.491ZM152.796 268.896C152.124 268.896 151.532 268.789 151.02 268.576C150.519 268.362 150.092 268.064 149.74 267.68C149.399 267.296 149.143 266.842 148.972 266.32C148.802 265.786 148.716 265.2 148.716 264.56C148.716 263.92 148.807 263.333 148.988 262.8C149.18 262.266 149.447 261.808 149.788 261.424C150.13 261.029 150.546 260.725 151.036 260.512C151.538 260.288 152.092 260.176 152.7 260.176C153.074 260.176 153.447 260.208 153.82 260.272C154.194 260.336 154.551 260.437 154.892 260.576L154.556 261.84C154.332 261.733 154.071 261.648 153.772 261.584C153.484 261.52 153.175 261.488 152.844 261.488C152.012 261.488 151.372 261.749 150.924 262.272C150.487 262.794 150.268 263.557 150.268 264.56C150.268 265.008 150.316 265.418 150.412 265.792C150.519 266.165 150.679 266.485 150.892 266.752C151.116 267.018 151.399 267.226 151.74 267.376C152.082 267.514 152.498 267.584 152.988 267.584C153.383 267.584 153.74 267.546 154.06 267.472C154.38 267.397 154.631 267.317 154.812 267.232L155.02 268.48C154.935 268.533 154.812 268.586 154.652 268.64C154.492 268.682 154.311 268.72 154.108 268.752C153.906 268.794 153.687 268.826 153.452 268.848C153.228 268.88 153.01 268.896 152.796 268.896ZM158.01 260.384H161.162V261.632H158.01V265.472C158.01 265.888 158.042 266.234 158.106 266.512C158.17 266.778 158.266 266.992 158.394 267.152C158.522 267.301 158.682 267.408 158.874 267.472C159.066 267.536 159.29 267.568 159.546 267.568C159.994 267.568 160.351 267.52 160.618 267.424C160.895 267.317 161.087 267.242 161.194 267.2L161.482 268.432C161.333 268.506 161.071 268.597 160.698 268.704C160.325 268.821 159.898 268.88 159.418 268.88C158.853 268.88 158.383 268.81 158.01 268.672C157.647 268.522 157.354 268.304 157.13 268.016C156.906 267.728 156.746 267.376 156.65 266.96C156.565 266.533 156.522 266.042 156.522 265.488V258.064L158.01 257.808V260.384ZM164.543 268.704H163.055V260.384H164.543V268.704ZM163.791 258.88C163.525 258.88 163.295 258.794 163.103 258.624C162.922 258.442 162.831 258.202 162.831 257.904C162.831 257.605 162.922 257.37 163.103 257.2C163.295 257.018 163.525 256.928 163.791 256.928C164.058 256.928 164.282 257.018 164.463 257.2C164.655 257.37 164.751 257.605 164.751 257.904C164.751 258.202 164.655 258.442 164.463 258.624C164.282 258.794 164.058 258.88 163.791 258.88ZM174.446 264.544C174.446 265.205 174.35 265.802 174.158 266.336C173.966 266.869 173.694 267.328 173.342 267.712C173.001 268.096 172.59 268.394 172.11 268.608C171.63 268.81 171.108 268.912 170.542 268.912C169.977 268.912 169.454 268.81 168.974 268.608C168.494 268.394 168.078 268.096 167.726 267.712C167.385 267.328 167.118 266.869 166.926 266.336C166.734 265.802 166.638 265.205 166.638 264.544C166.638 263.893 166.734 263.301 166.926 262.768C167.118 262.224 167.385 261.76 167.726 261.376C168.078 260.992 168.494 260.698 168.974 260.496C169.454 260.282 169.977 260.176 170.542 260.176C171.108 260.176 171.63 260.282 172.11 260.496C172.59 260.698 173.001 260.992 173.342 261.376C173.694 261.76 173.966 262.224 174.158 262.768C174.35 263.301 174.446 263.893 174.446 264.544ZM172.894 264.544C172.894 263.605 172.681 262.864 172.254 262.32C171.838 261.765 171.268 261.488 170.542 261.488C169.817 261.488 169.241 261.765 168.814 262.32C168.398 262.864 168.19 263.605 168.19 264.544C168.19 265.482 168.398 266.229 168.814 266.784C169.241 267.328 169.817 267.6 170.542 267.6C171.268 267.6 171.838 267.328 172.254 266.784C172.681 266.229 172.894 265.482 172.894 264.544ZM176.54 260.624C176.881 260.538 177.334 260.448 177.9 260.352C178.465 260.256 179.116 260.208 179.852 260.208C180.513 260.208 181.062 260.304 181.5 260.496C181.937 260.677 182.284 260.938 182.54 261.28C182.806 261.61 182.993 262.01 183.1 262.48C183.206 262.949 183.26 263.466 183.26 264.032V268.704H181.772V264.352C181.772 263.84 181.734 263.402 181.66 263.04C181.596 262.677 181.484 262.384 181.324 262.16C181.164 261.936 180.95 261.776 180.684 261.68C180.417 261.573 180.086 261.52 179.692 261.52C179.532 261.52 179.366 261.525 179.196 261.536C179.025 261.546 178.86 261.562 178.7 261.584C178.55 261.594 178.412 261.61 178.284 261.632C178.166 261.653 178.081 261.669 178.028 261.68V268.704H176.54V260.624ZM187.663 267.632C188.271 267.632 188.719 267.552 189.007 267.392C189.306 267.232 189.455 266.976 189.455 266.624C189.455 266.261 189.311 265.973 189.023 265.76C188.735 265.546 188.261 265.306 187.599 265.04C187.279 264.912 186.97 264.784 186.671 264.656C186.383 264.517 186.133 264.357 185.919 264.176C185.706 263.994 185.535 263.776 185.407 263.52C185.279 263.264 185.215 262.949 185.215 262.576C185.215 261.84 185.487 261.258 186.031 260.832C186.575 260.394 187.317 260.176 188.255 260.176C188.49 260.176 188.725 260.192 188.959 260.224C189.194 260.245 189.413 260.277 189.615 260.32C189.818 260.352 189.994 260.389 190.143 260.432C190.303 260.474 190.426 260.512 190.511 260.544L190.239 261.824C190.079 261.738 189.829 261.653 189.487 261.568C189.146 261.472 188.735 261.424 188.255 261.424C187.839 261.424 187.477 261.509 187.167 261.68C186.858 261.84 186.703 262.096 186.703 262.448C186.703 262.629 186.735 262.789 186.799 262.928C186.874 263.066 186.981 263.194 187.119 263.312C187.269 263.418 187.45 263.52 187.663 263.616C187.877 263.712 188.133 263.813 188.431 263.92C188.826 264.069 189.178 264.218 189.487 264.368C189.797 264.506 190.058 264.672 190.271 264.864C190.495 265.056 190.666 265.29 190.783 265.568C190.901 265.834 190.959 266.165 190.959 266.56C190.959 267.328 190.671 267.909 190.095 268.304C189.53 268.698 188.719 268.896 187.663 268.896C186.927 268.896 186.351 268.832 185.935 268.704C185.519 268.586 185.237 268.496 185.087 268.432L185.359 267.152C185.53 267.216 185.802 267.312 186.175 267.44C186.549 267.568 187.045 267.632 187.663 267.632Z" fill="#404A53"/>
<defs>
<filter id="filter0_d" x="2.74398" y="0" width="238.126" height="144.633" filterUnits="userSpaceOnUse" color-interpolation-filters="sRGB">
<feFlood flood-opacity="0" result="BackgroundImageFix"/>
<feColorMatrix in="SourceAlpha" type="matrix" values="0 0 0 0 0 0 0 0 0 0 0 0 0 0 0 0 0 0 127 0"/>
<feOffset dy="9.25626"/>
<feGaussianBlur stdDeviation="4.62813"/>
<feColorMatrix type="matrix" values="0 0 0 0 0 0 0 0 0 0 0 0 0 0 0 0 0 0 0.25 0"/>
<feBlend mode="normal" in2="BackgroundImageFix" result="effect1_dropShadow"/>
<feBlend mode="normal" in="SourceGraphic" in2="effect1_dropShadow" result="shape"/>
</filter>
<filter id="filter1_d" x="2.74374" y="126.121" width="238.126" height="293.391" filterUnits="userSpaceOnUse" color-interpolation-filters="sRGB">
<feFlood flood-opacity="0" result="BackgroundImageFix"/>
<feColorMatrix in="SourceAlpha" type="matrix" values="0 0 0 0 0 0 0 0 0 0 0 0 0 0 0 0 0 0 127 0"/>
<feOffset dy="9.25626"/>
<feGaussianBlur stdDeviation="4.62813"/>
<feColorMatrix type="matrix" values="0 0 0 0 0 0 0 0 0 0 0 0 0 0 0 0 0 0 0.25 0"/>
<feBlend mode="normal" in2="BackgroundImageFix" result="effect1_dropShadow"/>
<feBlend mode="normal" in="SourceGraphic" in2="effect1_dropShadow" result="shape"/>
</filter>
<filter id="filter2_d" x="75.9241" y="60.8076" width="93.3" height="32.4025" filterUnits="userSpaceOnUse" color-interpolation-filters="sRGB">
<feFlood flood-opacity="0" result="BackgroundImageFix"/>
<feColorMatrix in="SourceAlpha" type="matrix" values="0 0 0 0 0 0 0 0 0 0 0 0 0 0 0 0 0 0 127 0"/>
<feOffset dy="1.85125"/>
<feGaussianBlur stdDeviation="0.925626"/>
<feColorMatrix type="matrix" values="0 0 0 0 0 0 0 0 0 0 0 0 0 0 0 0 0 0 0.25 0"/>
<feBlend mode="normal" in2="BackgroundImageFix" result="effect1_dropShadow"/>
<feBlend mode="normal" in="SourceGraphic" in2="effect1_dropShadow" result="shape"/>
</filter>
<filter id="filter3_d" x="94.0975" y="26.7737" width="54.9623" height="21.9285" filterUnits="userSpaceOnUse" color-interpolation-filters="sRGB">
<feFlood flood-opacity="0" result="BackgroundImageFix"/>
<feColorMatrix in="SourceAlpha" type="matrix" values="0 0 0 0 0 0 0 0 0 0 0 0 0 0 0 0 0 0 127 0"/>
<feOffset dy="1.85125"/>
<feGaussianBlur stdDeviation="0.925626"/>
<feColorMatrix type="matrix" values="0 0 0 0 0 0 0 0 0 0 0 0 0 0 0 0 0 0 0.25 0"/>
<feBlend mode="normal" in2="BackgroundImageFix" result="effect1_dropShadow"/>
<feBlend mode="normal" in="SourceGraphic" in2="effect1_dropShadow" result="shape"/>
</filter>
<clipPath id="clip0">
<rect width="18.4938" height="18.4792" fill="white" transform="translate(37.429 165.852)"/>
</clipPath>
<clipPath id="clip1">
<rect width="18.4938" height="18.4792" fill="white" transform="translate(37.429 209.278)"/>
</clipPath>
<clipPath id="clip2">
<rect width="18.4938" height="18.4792" fill="white" transform="translate(37.429 254.09)"/>
</clipPath>
</defs>
</svg>
