<svg width="243" height="433" viewBox="0 0 243 433" fill="none" xmlns="http://www.w3.org/2000/svg">
<rect width="243" height="433" fill="white"/>
<g filter="url(#filter0_d)">
<rect x="12.4646" width="219.613" height="126.121" fill="#4075A0"/>
</g>
<g filter="url(#filter1_d)">
<rect x="12" y="126.121" width="219.613" height="274.879" fill="white"/>
</g>
<g filter="url(#filter2_d)">
<path d="M98.7595 85.6126C100.864 85.6126 102.34 85.2846 103.187 84.6286C104.035 83.9452 104.458 83.0842 104.458 82.0456C104.458 81.2802 104.267 80.6242 103.884 80.0776C103.529 79.5309 103.037 79.0526 102.408 78.6426C101.807 78.2326 101.096 77.8636 100.276 77.5356C99.4838 77.2076 98.6638 76.8932 97.8165 76.5926C96.9965 76.2919 96.1765 75.9639 95.3565 75.6086C94.5638 75.2259 93.8531 74.7749 93.2245 74.2556C92.5958 73.7089 92.0765 73.0666 91.6665 72.3286C91.2838 71.5632 91.0925 70.6339 91.0925 69.5406C91.0925 67.5999 91.6665 66.0146 92.8145 64.7846C93.9898 63.5272 95.6845 62.7346 97.8985 62.4066V57.6916H101.301V62.2836C102.504 62.3382 103.625 62.4886 104.663 62.7346C105.702 62.9806 106.522 63.2129 107.123 63.4316L106.344 66.6296C105.688 66.3836 104.868 66.1376 103.884 65.8916C102.9 65.6182 101.67 65.4816 100.194 65.4816C98.5545 65.4816 97.2835 65.7959 96.3815 66.4246C95.5068 67.0532 95.0695 67.9416 95.0695 69.0896C95.0695 69.7182 95.1925 70.2512 95.4385 70.6886C95.7118 71.1259 96.0945 71.5222 96.5865 71.8776C97.0785 72.2056 97.6525 72.5062 98.3085 72.7796C98.9918 73.0529 99.7435 73.3399 100.563 73.6406C101.629 74.0506 102.641 74.4742 103.597 74.9116C104.554 75.3489 105.388 75.8819 106.098 76.5106C106.836 77.1119 107.424 77.8362 107.861 78.6836C108.299 79.5309 108.517 80.5559 108.517 81.7586C108.517 83.6992 107.93 85.2709 106.754 86.4736C105.579 87.6489 103.761 88.3869 101.301 88.6876V93.9766H97.8985V88.8106C95.9851 88.7559 94.4271 88.5509 93.2245 88.1956C92.0218 87.8129 91.1198 87.4576 90.5185 87.1296L91.5435 84.0546C92.3635 84.4372 93.3475 84.7926 94.4955 85.1206C95.6435 85.4486 97.0648 85.6126 98.7595 85.6126ZM114.973 66.9576C116.531 66.3562 118.048 65.5909 119.524 64.6616C121 63.7049 122.353 62.5159 123.583 61.0946H126.289V89.5076H122.476V66.3836C122.148 66.6842 121.738 66.9986 121.246 67.3266C120.781 67.6546 120.262 67.9689 119.688 68.2696C119.141 68.5702 118.554 68.8572 117.925 69.1306C117.324 69.4039 116.736 69.6362 116.162 69.8276L114.973 66.9576ZM142.462 72.0416C146.589 72.2056 149.609 73.1076 151.523 74.7476C153.463 76.3876 154.434 78.6152 154.434 81.4306C154.434 82.6879 154.215 83.8496 153.778 84.9156C153.368 85.9816 152.725 86.8972 151.851 87.6626C151.003 88.4279 149.924 89.0292 148.612 89.4666C147.3 89.9039 145.742 90.1226 143.938 90.1226C143.227 90.1226 142.503 90.0679 141.765 89.9586C141.027 89.8492 140.343 89.7126 139.715 89.5486C139.086 89.3846 138.526 89.2206 138.034 89.0566C137.542 88.8926 137.186 88.7559 136.968 88.6466L137.706 85.3256C138.17 85.5442 138.922 85.8312 139.961 86.1866C141.027 86.5419 142.325 86.7196 143.856 86.7196C145.086 86.7196 146.111 86.5829 146.931 86.3096C147.778 86.0362 148.461 85.6672 148.981 85.2026C149.5 84.7379 149.869 84.2049 150.088 83.6036C150.334 82.9749 150.457 82.3189 150.457 81.6356C150.457 80.5969 150.279 79.6812 149.924 78.8886C149.568 78.0686 148.94 77.3852 148.038 76.8386C147.136 76.2919 145.933 75.8819 144.43 75.6086C142.926 75.3079 141.027 75.1576 138.731 75.1576C138.895 73.8182 139.018 72.5609 139.1 71.3856C139.209 70.2102 139.305 69.0622 139.387 67.9416C139.469 66.8209 139.537 65.7139 139.592 64.6206C139.646 63.4999 139.701 62.3246 139.756 61.0946H153.45V64.3336H143.077C143.049 64.7436 143.008 65.3039 142.954 66.0146C142.899 66.6979 142.844 67.4222 142.79 68.1876C142.735 68.9256 142.68 69.6499 142.626 70.3606C142.571 71.0712 142.516 71.6316 142.462 72.0416Z" fill="white"/>
</g>
<g filter="url(#filter3_d)">
<path d="M77.1754 45V42.92H83.5194C85.114 42.92 85.9114 42.114 85.9114 40.502V38.916C85.9114 37.512 85.166 36.81 83.6754 36.81H81.1014C78.38 36.81 77.0194 35.4493 77.0194 32.728V31.324C77.0194 28.2907 78.4494 26.774 81.3094 26.774H87.3154V28.854H81.3094C79.8014 28.854 79.0474 29.6773 79.0474 31.324V32.728C79.0474 34.1667 79.7927 34.886 81.2834 34.886H83.8574C86.5787 34.886 87.9394 36.2293 87.9394 38.916V40.502C87.9394 43.5007 86.466 45 83.5194 45H77.1754ZM93.8456 45C91.367 45 90.1276 43.5787 90.1276 40.736V27.112H92.1036V31.662H95.4576V33.378H92.1036V40.814C92.1036 42.374 92.745 43.154 94.0276 43.154H95.4056V45H93.8456ZM100.456 45C99.3635 45 98.5575 44.74 98.0375 44.22C97.5349 43.6827 97.2835 42.894 97.2835 41.854V39.904C97.2835 37.928 98.3409 36.94 100.456 36.94H105.63V35.926C105.63 34.4353 104.962 33.69 103.628 33.69H98.0375V31.662H103.628C106.228 31.662 107.528 33.0573 107.528 35.848V45H100.456ZM105.63 38.656H100.612C99.6062 38.656 99.1035 39.1847 99.1035 40.242V41.594C99.1035 42.6167 99.6062 43.128 100.612 43.128H105.63V38.656ZM118.617 45V35.874C118.617 34.418 118.097 33.69 117.057 33.69H113.755C113.079 33.69 112.602 33.872 112.325 34.236C112.065 34.5827 111.935 35.1373 111.935 35.9V45H109.985V31.662H111.857V33.3C112.1 32.6933 112.429 32.2687 112.845 32.026C113.278 31.7833 113.868 31.662 114.613 31.662H117.551C119.544 31.662 120.541 33.0227 120.541 35.744V45H118.617ZM126.806 45C124.206 45 122.906 43.6047 122.906 40.814V35.848C122.906 33.0573 124.206 31.662 126.806 31.662H131.096V26.774H133.072V45H126.806ZM131.096 33.69H126.884C125.532 33.69 124.856 34.4353 124.856 35.926V40.762C124.856 42.2527 125.532 42.998 126.884 42.998H131.096V33.69ZM138.541 45C137.449 45 136.643 44.74 136.123 44.22C135.621 43.6827 135.369 42.894 135.369 41.854V39.904C135.369 37.928 136.427 36.94 138.541 36.94H143.715V35.926C143.715 34.4353 143.048 33.69 141.713 33.69H136.123V31.662H141.713C144.313 31.662 145.613 33.0573 145.613 35.848V45H138.541ZM143.715 38.656H138.697C137.692 38.656 137.189 39.1847 137.189 40.242V41.594C137.189 42.6167 137.692 43.128 138.697 43.128H143.715V38.656ZM148.071 45V31.662H149.943V33.3C150.186 32.6933 150.515 32.2687 150.931 32.026C151.364 31.7833 151.954 31.662 152.699 31.662H155.429V33.69H151.841C151.165 33.69 150.688 33.872 150.411 34.236C150.151 34.5827 150.021 35.1373 150.021 35.9V45H148.071ZM160.88 45C158.28 45 156.98 43.6047 156.98 40.814V35.848C156.98 33.0573 158.28 31.662 160.88 31.662H165.17V26.774H167.146V45H160.88ZM165.17 33.69H160.958C159.606 33.69 158.93 34.4353 158.93 35.926V40.762C158.93 42.2527 159.606 42.998 160.958 42.998H165.17V33.69Z" fill="white"/>
</g>
<g clip-path="url(#clip0)">
<path d="M44.3641 165.852C39.265 165.852 35.1172 169.996 35.1172 175.091C35.1172 180.186 39.265 184.331 44.3641 184.331C49.4631 184.331 53.6109 180.186 53.6109 175.091C53.6109 169.997 49.4631 165.852 44.3641 165.852ZM44.3641 182.9C40.0558 182.9 36.5497 179.397 36.5497 175.091C36.5497 170.786 40.0558 167.283 44.3641 167.283C48.6731 167.283 52.1784 170.786 52.1784 175.091C52.1784 179.397 48.6724 182.9 44.3641 182.9Z" fill="#5FB2F5"/>
<path d="M48.6065 171.878C48.3149 171.614 47.8616 171.634 47.5951 171.927L43.2259 176.734L41.1151 174.59C40.8365 174.308 40.3838 174.304 40.1023 174.582C39.8201 174.859 39.8158 175.312 40.0937 175.594L42.736 178.277C42.8714 178.415 43.0547 178.491 43.2467 178.491C43.251 178.491 43.256 178.491 43.2603 178.492C43.458 178.488 43.6442 178.403 43.7767 178.257L48.6551 172.89C48.9209 172.596 48.8994 172.144 48.6065 171.878Z" fill="#5FB2F5"/>
</g>
<path d="M65.7329 171.665C66.3409 171.431 66.9329 171.132 67.5089 170.769C68.0849 170.396 68.6129 169.932 69.0929 169.377H70.1489V180.465H68.6609V171.441C68.5329 171.559 68.3729 171.681 68.1809 171.809C67.9995 171.937 67.7969 172.06 67.5729 172.177C67.3595 172.295 67.1302 172.407 66.8849 172.513C66.6502 172.62 66.4209 172.711 66.1969 172.785L65.7329 171.665ZM74.0761 174.913C74.0761 173.057 74.4015 171.628 75.0521 170.625C75.7135 169.623 76.6255 169.121 77.7881 169.121C78.9508 169.121 79.8575 169.623 80.5081 170.625C81.1695 171.628 81.5001 173.057 81.5001 174.913C81.5001 176.769 81.1695 178.199 80.5081 179.201C79.8575 180.204 78.9508 180.705 77.7881 180.705C76.6255 180.705 75.7135 180.204 75.0521 179.201C74.4015 178.199 74.0761 176.769 74.0761 174.913ZM79.9321 174.913C79.9321 174.305 79.8948 173.729 79.8201 173.185C79.7561 172.641 79.6388 172.167 79.4681 171.761C79.3081 171.356 79.0895 171.036 78.8121 170.801C78.5348 170.556 78.1935 170.433 77.7881 170.433C77.3828 170.433 77.0415 170.556 76.7641 170.801C76.4868 171.036 76.2628 171.356 76.0921 171.761C75.9321 172.167 75.8148 172.641 75.7401 173.185C75.6761 173.729 75.6441 174.305 75.6441 174.913C75.6441 175.521 75.6761 176.097 75.7401 176.641C75.8148 177.185 75.9321 177.66 76.0921 178.065C76.2628 178.471 76.4868 178.796 76.7641 179.041C77.0415 179.276 77.3828 179.393 77.7881 179.393C78.1935 179.393 78.5348 179.276 78.8121 179.041C79.0895 178.796 79.3081 178.471 79.4681 178.065C79.6388 177.66 79.7561 177.185 79.8201 176.641C79.8948 176.097 79.9321 175.521 79.9321 174.913ZM94.1545 175.009H95.7065V180.193C95.5785 180.236 95.3918 180.284 95.1465 180.337C94.9118 180.391 94.6345 180.444 94.3145 180.497C94.0052 180.551 93.6638 180.593 93.2905 180.625C92.9172 180.668 92.5385 180.689 92.1545 180.689C91.3758 180.689 90.6665 180.561 90.0265 180.305C89.3865 180.049 88.8372 179.676 88.3785 179.185C87.9198 178.695 87.5625 178.092 87.3065 177.377C87.0612 176.663 86.9385 175.841 86.9385 174.913C86.9385 173.985 87.0772 173.164 87.3545 172.449C87.6425 171.724 88.0265 171.116 88.5065 170.625C88.9865 170.135 89.5465 169.761 90.1865 169.505C90.8372 169.249 91.5305 169.121 92.2665 169.121C92.7678 169.121 93.2105 169.153 93.5945 169.217C93.9892 169.281 94.3252 169.356 94.6025 169.441C94.8798 169.527 95.1038 169.612 95.2745 169.697C95.4558 169.783 95.5785 169.847 95.6425 169.889L95.1465 171.185C94.8372 170.983 94.4265 170.817 93.9145 170.689C93.4025 170.551 92.8798 170.481 92.3465 170.481C91.7812 170.481 91.2638 170.583 90.7945 170.785C90.3358 170.988 89.9412 171.281 89.6105 171.665C89.2905 172.049 89.0398 172.519 88.8585 173.073C88.6772 173.617 88.5865 174.231 88.5865 174.913C88.5865 175.575 88.6612 176.177 88.8105 176.721C88.9705 177.265 89.2052 177.735 89.5145 178.129C89.8345 178.513 90.2238 178.812 90.6825 179.025C91.1518 179.239 91.7012 179.345 92.3305 179.345C92.7785 179.345 93.1572 179.324 93.4665 179.281C93.7865 179.228 94.0158 179.18 94.1545 179.137V175.009ZM101.128 180.561C100.904 180.561 100.659 180.556 100.392 180.545C100.136 180.535 99.8752 180.519 99.6085 180.497C99.3525 180.476 99.0965 180.449 98.8405 180.417C98.5845 180.385 98.3498 180.343 98.1365 180.289V169.537C98.3498 169.484 98.5845 169.441 98.8405 169.409C99.0965 169.377 99.3525 169.351 99.6085 169.329C99.8752 169.308 100.136 169.292 100.392 169.281C100.648 169.271 100.888 169.265 101.112 169.265C101.752 169.265 102.35 169.313 102.904 169.409C103.47 169.505 103.955 169.671 104.36 169.905C104.776 170.129 105.102 170.428 105.336 170.801C105.571 171.175 105.688 171.633 105.688 172.177C105.688 172.785 105.544 173.287 105.256 173.681C104.968 174.065 104.584 174.353 104.104 174.545C104.755 174.737 105.272 175.041 105.656 175.457C106.04 175.873 106.232 176.46 106.232 177.217C106.232 178.327 105.822 179.164 105 179.729C104.19 180.284 102.899 180.561 101.128 180.561ZM99.6725 175.297V179.201C99.7898 179.212 99.9285 179.223 100.088 179.233C100.227 179.244 100.387 179.255 100.568 179.265C100.76 179.265 100.979 179.265 101.224 179.265C101.683 179.265 102.115 179.239 102.52 179.185C102.936 179.121 103.299 179.015 103.608 178.865C103.918 178.716 104.163 178.508 104.344 178.241C104.536 177.975 104.632 177.639 104.632 177.233C104.632 176.871 104.563 176.567 104.424 176.321C104.286 176.065 104.083 175.863 103.816 175.713C103.56 175.564 103.251 175.457 102.888 175.393C102.526 175.329 102.12 175.297 101.672 175.297H99.6725ZM99.6725 174.049H101.304C101.688 174.049 102.051 174.023 102.392 173.969C102.734 173.916 103.027 173.82 103.272 173.681C103.528 173.543 103.726 173.361 103.864 173.137C104.014 172.913 104.088 172.631 104.088 172.289C104.088 171.969 104.014 171.703 103.864 171.489C103.715 171.265 103.507 171.089 103.24 170.961C102.984 170.823 102.68 170.721 102.328 170.657C101.976 170.593 101.603 170.561 101.208 170.561C100.814 170.561 100.504 170.567 100.28 170.577C100.056 170.588 99.8538 170.604 99.6725 170.625V174.049ZM119.369 176.305C119.369 176.967 119.273 177.564 119.081 178.097C118.889 178.631 118.617 179.089 118.265 179.473C117.924 179.857 117.513 180.156 117.033 180.369C116.553 180.572 116.03 180.673 115.465 180.673C114.9 180.673 114.377 180.572 113.897 180.369C113.417 180.156 113.001 179.857 112.649 179.473C112.308 179.089 112.041 178.631 111.849 178.097C111.657 177.564 111.561 176.967 111.561 176.305C111.561 175.655 111.657 175.063 111.849 174.529C112.041 173.985 112.308 173.521 112.649 173.137C113.001 172.753 113.417 172.46 113.897 172.257C114.377 172.044 114.9 171.937 115.465 171.937C116.03 171.937 116.553 172.044 117.033 172.257C117.513 172.46 117.924 172.753 118.265 173.137C118.617 173.521 118.889 173.985 119.081 174.529C119.273 175.063 119.369 175.655 119.369 176.305ZM117.817 176.305C117.817 175.367 117.604 174.625 117.177 174.081C116.761 173.527 116.19 173.249 115.465 173.249C114.74 173.249 114.164 173.527 113.737 174.081C113.321 174.625 113.113 175.367 113.113 176.305C113.113 177.244 113.321 177.991 113.737 178.545C114.164 179.089 114.74 179.361 115.465 179.361C116.19 179.361 116.761 179.089 117.177 178.545C117.604 177.991 117.817 177.244 117.817 176.305ZM124.71 168.049C125.148 168.049 125.521 168.081 125.83 168.145C126.15 168.209 126.374 168.268 126.502 168.321L126.23 169.601C126.102 169.537 125.921 169.479 125.686 169.425C125.452 169.361 125.164 169.329 124.822 169.329C124.129 169.329 123.644 169.521 123.366 169.905C123.089 170.279 122.95 170.785 122.95 171.425V172.145H126.15V173.393H122.95V180.465H121.462V171.393C121.462 170.327 121.724 169.505 122.246 168.929C122.769 168.343 123.59 168.049 124.71 168.049ZM133.273 179.393C133.881 179.393 134.329 179.313 134.617 179.153C134.916 178.993 135.065 178.737 135.065 178.385C135.065 178.023 134.921 177.735 134.633 177.521C134.345 177.308 133.871 177.068 133.209 176.801C132.889 176.673 132.58 176.545 132.281 176.417C131.993 176.279 131.743 176.119 131.529 175.937C131.316 175.756 131.145 175.537 131.017 175.281C130.889 175.025 130.825 174.711 130.825 174.337C130.825 173.601 131.097 173.02 131.641 172.593C132.185 172.156 132.927 171.937 133.865 171.937C134.1 171.937 134.335 171.953 134.569 171.985C134.804 172.007 135.023 172.039 135.225 172.081C135.428 172.113 135.604 172.151 135.753 172.193C135.913 172.236 136.036 172.273 136.121 172.305L135.849 173.585C135.689 173.5 135.439 173.415 135.097 173.329C134.756 173.233 134.345 173.185 133.865 173.185C133.449 173.185 133.087 173.271 132.777 173.441C132.468 173.601 132.313 173.857 132.313 174.209C132.313 174.391 132.345 174.551 132.409 174.689C132.484 174.828 132.591 174.956 132.729 175.073C132.879 175.18 133.06 175.281 133.273 175.377C133.487 175.473 133.743 175.575 134.041 175.681C134.436 175.831 134.788 175.98 135.097 176.129C135.407 176.268 135.668 176.433 135.881 176.625C136.105 176.817 136.276 177.052 136.393 177.329C136.511 177.596 136.569 177.927 136.569 178.321C136.569 179.089 136.281 179.671 135.705 180.065C135.14 180.46 134.329 180.657 133.273 180.657C132.537 180.657 131.961 180.593 131.545 180.465C131.129 180.348 130.847 180.257 130.697 180.193L130.969 178.913C131.14 178.977 131.412 179.073 131.785 179.201C132.159 179.329 132.655 179.393 133.273 179.393ZM139.87 172.145H143.022V173.393H139.87V177.233C139.87 177.649 139.902 177.996 139.966 178.273C140.03 178.54 140.126 178.753 140.254 178.913C140.382 179.063 140.542 179.169 140.734 179.233C140.926 179.297 141.15 179.329 141.406 179.329C141.854 179.329 142.211 179.281 142.478 179.185C142.755 179.079 142.947 179.004 143.054 178.961L143.342 180.193C143.193 180.268 142.931 180.359 142.558 180.465C142.185 180.583 141.758 180.641 141.278 180.641C140.713 180.641 140.243 180.572 139.87 180.433C139.507 180.284 139.214 180.065 138.99 179.777C138.766 179.489 138.606 179.137 138.51 178.721C138.425 178.295 138.382 177.804 138.382 177.249V169.825L139.87 169.569V172.145ZM152.041 176.305C152.041 176.967 151.945 177.564 151.753 178.097C151.561 178.631 151.289 179.089 150.937 179.473C150.595 179.857 150.185 180.156 149.705 180.369C149.225 180.572 148.702 180.673 148.137 180.673C147.571 180.673 147.049 180.572 146.569 180.369C146.089 180.156 145.673 179.857 145.321 179.473C144.979 179.089 144.713 178.631 144.521 178.097C144.329 177.564 144.233 176.967 144.233 176.305C144.233 175.655 144.329 175.063 144.521 174.529C144.713 173.985 144.979 173.521 145.321 173.137C145.673 172.753 146.089 172.46 146.569 172.257C147.049 172.044 147.571 171.937 148.137 171.937C148.702 171.937 149.225 172.044 149.705 172.257C150.185 172.46 150.595 172.753 150.937 173.137C151.289 173.521 151.561 173.985 151.753 174.529C151.945 175.063 152.041 175.655 152.041 176.305ZM150.489 176.305C150.489 175.367 150.275 174.625 149.849 174.081C149.433 173.527 148.862 173.249 148.137 173.249C147.411 173.249 146.835 173.527 146.409 174.081C145.993 174.625 145.785 175.367 145.785 176.305C145.785 177.244 145.993 177.991 146.409 178.545C146.835 179.089 147.411 179.361 148.137 179.361C148.862 179.361 149.433 179.089 149.849 178.545C150.275 177.991 150.489 177.244 150.489 176.305ZM157.206 171.969C157.334 171.969 157.478 171.98 157.638 172.001C157.809 172.012 157.974 172.033 158.134 172.065C158.294 172.087 158.438 172.113 158.566 172.145C158.705 172.167 158.806 172.188 158.87 172.209L158.614 173.505C158.497 173.463 158.3 173.415 158.022 173.361C157.756 173.297 157.409 173.265 156.982 173.265C156.705 173.265 156.428 173.297 156.15 173.361C155.884 173.415 155.708 173.452 155.622 173.473V180.465H154.134V172.497C154.486 172.369 154.924 172.252 155.446 172.145C155.969 172.028 156.556 171.969 157.206 171.969ZM163.122 179.393C163.474 179.393 163.783 179.388 164.05 179.377C164.327 179.356 164.557 179.324 164.738 179.281V176.801C164.631 176.748 164.455 176.705 164.21 176.673C163.975 176.631 163.687 176.609 163.346 176.609C163.122 176.609 162.882 176.625 162.626 176.657C162.381 176.689 162.151 176.759 161.938 176.865C161.735 176.961 161.565 177.1 161.426 177.281C161.287 177.452 161.218 177.681 161.218 177.969C161.218 178.503 161.389 178.876 161.73 179.089C162.071 179.292 162.535 179.393 163.122 179.393ZM162.994 171.937C163.591 171.937 164.093 172.017 164.498 172.177C164.914 172.327 165.245 172.545 165.49 172.833C165.746 173.111 165.927 173.447 166.034 173.841C166.141 174.225 166.194 174.652 166.194 175.121V180.321C166.066 180.343 165.885 180.375 165.65 180.417C165.426 180.449 165.17 180.481 164.882 180.513C164.594 180.545 164.279 180.572 163.938 180.593C163.607 180.625 163.277 180.641 162.946 180.641C162.477 180.641 162.045 180.593 161.65 180.497C161.255 180.401 160.914 180.252 160.626 180.049C160.338 179.836 160.114 179.559 159.954 179.217C159.794 178.876 159.714 178.465 159.714 177.985C159.714 177.527 159.805 177.132 159.986 176.801C160.178 176.471 160.434 176.204 160.754 176.001C161.074 175.799 161.447 175.649 161.874 175.553C162.301 175.457 162.749 175.409 163.218 175.409C163.367 175.409 163.522 175.42 163.682 175.441C163.842 175.452 163.991 175.473 164.13 175.505C164.279 175.527 164.407 175.548 164.514 175.569C164.621 175.591 164.695 175.607 164.738 175.617V175.201C164.738 174.956 164.711 174.716 164.658 174.481C164.605 174.236 164.509 174.023 164.37 173.841C164.231 173.649 164.039 173.5 163.794 173.393C163.559 173.276 163.25 173.217 162.866 173.217C162.375 173.217 161.943 173.255 161.57 173.329C161.207 173.393 160.935 173.463 160.754 173.537L160.578 172.305C160.77 172.22 161.09 172.14 161.538 172.065C161.986 171.98 162.471 171.937 162.994 171.937ZM173.881 179.633C173.753 179.719 173.503 179.831 173.129 179.969C172.767 180.097 172.34 180.161 171.849 180.161C171.348 180.161 170.873 180.081 170.425 179.921C169.988 179.761 169.604 179.516 169.273 179.185C168.943 178.844 168.681 178.423 168.489 177.921C168.297 177.42 168.201 176.823 168.201 176.129C168.201 175.521 168.292 174.967 168.473 174.465C168.655 173.953 168.916 173.516 169.257 173.153C169.609 172.78 170.036 172.492 170.537 172.289C171.039 172.076 171.604 171.969 172.233 171.969C172.927 171.969 173.529 172.023 174.041 172.129C174.564 172.225 175.001 172.316 175.353 172.401V179.825C175.353 181.105 175.023 182.033 174.361 182.609C173.7 183.185 172.697 183.473 171.353 183.473C170.831 183.473 170.335 183.431 169.865 183.345C169.407 183.26 169.007 183.159 168.665 183.041L168.937 181.745C169.236 181.863 169.599 181.964 170.025 182.049C170.463 182.145 170.916 182.193 171.385 182.193C172.271 182.193 172.905 182.017 173.289 181.665C173.684 181.313 173.881 180.753 173.881 179.985V179.633ZM173.865 173.457C173.716 173.415 173.513 173.377 173.257 173.345C173.012 173.303 172.676 173.281 172.249 173.281C171.449 173.281 170.831 173.543 170.393 174.065C169.967 174.588 169.753 175.281 169.753 176.145C169.753 176.625 169.812 177.036 169.929 177.377C170.057 177.719 170.223 178.001 170.425 178.225C170.639 178.449 170.879 178.615 171.145 178.721C171.423 178.828 171.705 178.881 171.993 178.881C172.388 178.881 172.751 178.828 173.081 178.721C173.412 178.604 173.673 178.471 173.865 178.321V173.457ZM177.451 176.321C177.451 175.585 177.558 174.945 177.771 174.401C177.985 173.847 178.267 173.388 178.619 173.025C178.971 172.663 179.377 172.391 179.835 172.209C180.294 172.028 180.763 171.937 181.243 171.937C182.363 171.937 183.222 172.289 183.819 172.993C184.417 173.687 184.715 174.748 184.715 176.177C184.715 176.241 184.715 176.327 184.715 176.433C184.715 176.529 184.71 176.62 184.699 176.705H179.003C179.067 177.569 179.318 178.225 179.755 178.673C180.193 179.121 180.875 179.345 181.803 179.345C182.326 179.345 182.763 179.303 183.115 179.217C183.478 179.121 183.75 179.031 183.931 178.945L184.139 180.193C183.958 180.289 183.638 180.391 183.179 180.497C182.731 180.604 182.219 180.657 181.643 180.657C180.918 180.657 180.289 180.551 179.755 180.337C179.233 180.113 178.801 179.809 178.459 179.425C178.118 179.041 177.862 178.588 177.691 178.065C177.531 177.532 177.451 176.951 177.451 176.321ZM183.163 175.505C183.174 174.833 183.003 174.284 182.651 173.857C182.31 173.42 181.835 173.201 181.227 173.201C180.886 173.201 180.582 173.271 180.315 173.409C180.059 173.537 179.841 173.708 179.659 173.921C179.478 174.135 179.334 174.38 179.227 174.657C179.131 174.935 179.067 175.217 179.035 175.505H183.163Z" fill="#404A53"/>
<g clip-path="url(#clip1)">
<path d="M44.3641 209.278C39.265 209.278 35.1172 213.422 35.1172 218.517C35.1172 223.612 39.265 227.757 44.3641 227.757C49.4631 227.757 53.6109 223.612 53.6109 218.517C53.6109 213.423 49.4631 209.278 44.3641 209.278ZM44.3641 226.326C40.0558 226.326 36.5497 222.823 36.5497 218.517C36.5497 214.212 40.0558 210.709 44.3641 210.709C48.6731 210.709 52.1784 214.212 52.1784 218.517C52.1784 222.823 48.6724 226.326 44.3641 226.326Z" fill="#5FB2F5"/>
<path d="M48.6065 215.304C48.3149 215.04 47.8616 215.06 47.5951 215.353L43.2259 220.16L41.1151 218.016C40.8365 217.734 40.3838 217.73 40.1023 218.008C39.8201 218.285 39.8158 218.738 40.0937 219.02L42.736 221.704C42.8714 221.841 43.0547 221.917 43.2467 221.917C43.251 221.917 43.256 221.917 43.2603 221.918C43.458 221.914 43.6442 221.829 43.7767 221.683L48.6551 216.316C48.9209 216.022 48.8994 215.57 48.6065 215.304Z" fill="#5FB2F5"/>
</g>
<path d="M65.1729 219.726C65.1729 218.776 65.3115 217.939 65.5889 217.214C65.8769 216.488 66.2609 215.886 66.7409 215.406C67.2315 214.915 67.7969 214.547 68.4369 214.302C69.0875 214.056 69.7755 213.934 70.5009 213.934C71.2155 213.934 71.8875 214.056 72.5169 214.302C73.1569 214.547 73.7169 214.915 74.1969 215.406C74.6769 215.886 75.0555 216.488 75.3329 217.214C75.6209 217.939 75.7649 218.776 75.7649 219.726C75.7649 220.675 75.6209 221.512 75.3329 222.238C75.0555 222.963 74.6769 223.571 74.1969 224.062C73.7169 224.542 73.1569 224.904 72.5169 225.15C71.8875 225.395 71.2155 225.518 70.5009 225.518C69.7755 225.518 69.0875 225.395 68.4369 225.15C67.7969 224.904 67.2315 224.542 66.7409 224.062C66.2609 223.571 65.8769 222.963 65.5889 222.238C65.3115 221.512 65.1729 220.675 65.1729 219.726ZM66.8049 219.726C66.8049 220.398 66.8902 221.011 67.0609 221.566C67.2315 222.11 67.4715 222.574 67.7809 222.958C68.1009 223.342 68.4849 223.64 68.9329 223.854C69.3915 224.056 69.9035 224.158 70.4689 224.158C71.0342 224.158 71.5409 224.056 71.9889 223.854C72.4369 223.64 72.8155 223.342 73.1249 222.958C73.4449 222.574 73.6902 222.11 73.8609 221.566C74.0315 221.011 74.1169 220.398 74.1169 219.726C74.1169 219.054 74.0315 218.446 73.8609 217.902C73.6902 217.347 73.4449 216.878 73.1249 216.494C72.8155 216.11 72.4369 215.816 71.9889 215.614C71.5409 215.4 71.0342 215.294 70.4689 215.294C69.9035 215.294 69.3915 215.4 68.9329 215.614C68.4849 215.816 68.1009 216.11 67.7809 216.494C67.4715 216.878 67.2315 217.347 67.0609 217.902C66.8902 218.446 66.8049 219.054 66.8049 219.726ZM77.978 217.198C78.3193 217.112 78.7727 217.022 79.338 216.926C79.9033 216.83 80.554 216.782 81.29 216.782C81.9513 216.782 82.5007 216.878 82.938 217.07C83.3753 217.251 83.722 217.512 83.978 217.854C84.2447 218.184 84.4313 218.584 84.538 219.054C84.6447 219.523 84.698 220.04 84.698 220.606V225.278H83.21V220.926C83.21 220.414 83.1727 219.976 83.098 219.614C83.034 219.251 82.922 218.958 82.762 218.734C82.602 218.51 82.3887 218.35 82.122 218.254C81.8553 218.147 81.5247 218.094 81.13 218.094C80.97 218.094 80.8047 218.099 80.634 218.11C80.4633 218.12 80.298 218.136 80.138 218.158C79.9887 218.168 79.85 218.184 79.722 218.206C79.6047 218.227 79.5193 218.243 79.466 218.254V225.278H77.978V217.198ZM89.6615 225.438C88.7442 225.416 88.0935 225.219 87.7095 224.846C87.3255 224.472 87.1335 223.891 87.1335 223.102V213.118L88.6215 212.862V222.862C88.6215 223.107 88.6428 223.31 88.6855 223.47C88.7282 223.63 88.7975 223.758 88.8935 223.854C88.9895 223.95 89.1175 224.024 89.2775 224.078C89.4375 224.12 89.6348 224.158 89.8695 224.19L89.6615 225.438ZM93.0285 225.278H91.5405V216.958H93.0285V225.278ZM92.2765 215.454C92.0098 215.454 91.7805 215.368 91.5885 215.198C91.4072 215.016 91.3165 214.776 91.3165 214.478C91.3165 214.179 91.4072 213.944 91.5885 213.774C91.7805 213.592 92.0098 213.502 92.2765 213.502C92.5432 213.502 92.7672 213.592 92.9485 213.774C93.1405 213.944 93.2365 214.179 93.2365 214.478C93.2365 214.776 93.1405 215.016 92.9485 215.198C92.7672 215.368 92.5432 215.454 92.2765 215.454ZM95.5874 217.198C95.9287 217.112 96.382 217.022 96.9474 216.926C97.5127 216.83 98.1634 216.782 98.8994 216.782C99.5607 216.782 100.11 216.878 100.547 217.07C100.985 217.251 101.331 217.512 101.587 217.854C101.854 218.184 102.041 218.584 102.147 219.054C102.254 219.523 102.307 220.04 102.307 220.606V225.278H100.819V220.926C100.819 220.414 100.782 219.976 100.707 219.614C100.643 219.251 100.531 218.958 100.371 218.734C100.211 218.51 99.998 218.35 99.7314 218.254C99.4647 218.147 99.134 218.094 98.7394 218.094C98.5794 218.094 98.414 218.099 98.2434 218.11C98.0727 218.12 97.9074 218.136 97.7474 218.158C97.598 218.168 97.4594 218.184 97.3314 218.206C97.214 218.227 97.1287 218.243 97.0754 218.254V225.278H95.5874V217.198ZM104.311 221.134C104.311 220.398 104.418 219.758 104.631 219.214C104.844 218.659 105.127 218.2 105.479 217.838C105.831 217.475 106.236 217.203 106.695 217.022C107.154 216.84 107.623 216.75 108.103 216.75C109.223 216.75 110.082 217.102 110.679 217.806C111.276 218.499 111.575 219.56 111.575 220.99C111.575 221.054 111.575 221.139 111.575 221.246C111.575 221.342 111.57 221.432 111.559 221.518H105.863C105.927 222.382 106.178 223.038 106.615 223.486C107.052 223.934 107.735 224.158 108.663 224.158C109.186 224.158 109.623 224.115 109.975 224.03C110.338 223.934 110.61 223.843 110.791 223.758L110.999 225.006C110.818 225.102 110.498 225.203 110.039 225.31C109.591 225.416 109.079 225.47 108.503 225.47C107.778 225.47 107.148 225.363 106.615 225.15C106.092 224.926 105.66 224.622 105.319 224.238C104.978 223.854 104.722 223.4 104.551 222.878C104.391 222.344 104.311 221.763 104.311 221.134ZM110.023 220.318C110.034 219.646 109.863 219.096 109.511 218.67C109.17 218.232 108.695 218.014 108.087 218.014C107.746 218.014 107.442 218.083 107.175 218.222C106.919 218.35 106.7 218.52 106.519 218.734C106.338 218.947 106.194 219.192 106.087 219.47C105.991 219.747 105.927 220.03 105.895 220.318H110.023ZM120.231 224.206C120.583 224.206 120.893 224.2 121.159 224.19C121.437 224.168 121.666 224.136 121.847 224.094V221.614C121.741 221.56 121.565 221.518 121.319 221.486C121.085 221.443 120.797 221.422 120.455 221.422C120.231 221.422 119.991 221.438 119.735 221.47C119.49 221.502 119.261 221.571 119.047 221.678C118.845 221.774 118.674 221.912 118.535 222.094C118.397 222.264 118.327 222.494 118.327 222.782C118.327 223.315 118.498 223.688 118.839 223.902C119.181 224.104 119.645 224.206 120.231 224.206ZM120.103 216.75C120.701 216.75 121.202 216.83 121.607 216.99C122.023 217.139 122.354 217.358 122.599 217.646C122.855 217.923 123.037 218.259 123.143 218.654C123.25 219.038 123.303 219.464 123.303 219.934V225.134C123.175 225.155 122.994 225.187 122.759 225.23C122.535 225.262 122.279 225.294 121.991 225.326C121.703 225.358 121.389 225.384 121.047 225.406C120.717 225.438 120.386 225.454 120.055 225.454C119.586 225.454 119.154 225.406 118.759 225.31C118.365 225.214 118.023 225.064 117.735 224.862C117.447 224.648 117.223 224.371 117.063 224.03C116.903 223.688 116.823 223.278 116.823 222.798C116.823 222.339 116.914 221.944 117.095 221.614C117.287 221.283 117.543 221.016 117.863 220.814C118.183 220.611 118.557 220.462 118.983 220.366C119.41 220.27 119.858 220.222 120.327 220.222C120.477 220.222 120.631 220.232 120.791 220.254C120.951 220.264 121.101 220.286 121.239 220.318C121.389 220.339 121.517 220.36 121.623 220.382C121.73 220.403 121.805 220.419 121.847 220.43V220.014C121.847 219.768 121.821 219.528 121.767 219.294C121.714 219.048 121.618 218.835 121.479 218.654C121.341 218.462 121.149 218.312 120.903 218.206C120.669 218.088 120.359 218.03 119.975 218.03C119.485 218.03 119.053 218.067 118.679 218.142C118.317 218.206 118.045 218.275 117.863 218.35L117.687 217.118C117.879 217.032 118.199 216.952 118.647 216.878C119.095 216.792 119.581 216.75 120.103 216.75ZM125.775 217.198C126.116 217.112 126.57 217.022 127.135 216.926C127.7 216.83 128.351 216.782 129.087 216.782C129.748 216.782 130.298 216.878 130.735 217.07C131.172 217.251 131.519 217.512 131.775 217.854C132.042 218.184 132.228 218.584 132.335 219.054C132.442 219.523 132.495 220.04 132.495 220.606V225.278H131.007V220.926C131.007 220.414 130.97 219.976 130.895 219.614C130.831 219.251 130.719 218.958 130.559 218.734C130.399 218.51 130.186 218.35 129.919 218.254C129.652 218.147 129.322 218.094 128.927 218.094C128.767 218.094 128.602 218.099 128.431 218.11C128.26 218.12 128.095 218.136 127.935 218.158C127.786 218.168 127.647 218.184 127.519 218.206C127.402 218.227 127.316 218.243 127.263 218.254V225.278H125.775V217.198ZM140.338 218.718C140.157 218.568 139.896 218.424 139.554 218.286C139.213 218.147 138.84 218.078 138.434 218.078C138.008 218.078 137.64 218.158 137.33 218.318C137.032 218.467 136.786 218.68 136.594 218.958C136.402 219.224 136.264 219.544 136.178 219.918C136.093 220.291 136.05 220.691 136.05 221.118C136.05 222.088 136.29 222.84 136.77 223.374C137.25 223.896 137.89 224.158 138.69 224.158C139.096 224.158 139.432 224.142 139.698 224.11C139.976 224.067 140.189 224.024 140.338 223.982V218.718ZM140.338 213.118L141.826 212.862V225.038C141.485 225.134 141.048 225.23 140.514 225.326C139.981 225.422 139.368 225.47 138.674 225.47C138.034 225.47 137.458 225.368 136.946 225.166C136.434 224.963 135.997 224.675 135.634 224.302C135.272 223.928 134.989 223.475 134.786 222.942C134.594 222.398 134.498 221.79 134.498 221.118C134.498 220.478 134.578 219.891 134.738 219.358C134.909 218.824 135.154 218.366 135.474 217.982C135.794 217.598 136.184 217.299 136.642 217.086C137.112 216.872 137.645 216.766 138.242 216.766C138.722 216.766 139.144 216.83 139.506 216.958C139.88 217.086 140.157 217.208 140.338 217.326V213.118ZM155.431 221.118C155.431 221.779 155.335 222.376 155.143 222.91C154.951 223.443 154.679 223.902 154.327 224.286C153.986 224.67 153.575 224.968 153.095 225.182C152.615 225.384 152.093 225.486 151.527 225.486C150.962 225.486 150.439 225.384 149.959 225.182C149.479 224.968 149.063 224.67 148.711 224.286C148.37 223.902 148.103 223.443 147.911 222.91C147.719 222.376 147.623 221.779 147.623 221.118C147.623 220.467 147.719 219.875 147.911 219.342C148.103 218.798 148.37 218.334 148.711 217.95C149.063 217.566 149.479 217.272 149.959 217.07C150.439 216.856 150.962 216.75 151.527 216.75C152.093 216.75 152.615 216.856 153.095 217.07C153.575 217.272 153.986 217.566 154.327 217.95C154.679 218.334 154.951 218.798 155.143 219.342C155.335 219.875 155.431 220.467 155.431 221.118ZM153.879 221.118C153.879 220.179 153.666 219.438 153.239 218.894C152.823 218.339 152.253 218.062 151.527 218.062C150.802 218.062 150.226 218.339 149.799 218.894C149.383 219.438 149.175 220.179 149.175 221.118C149.175 222.056 149.383 222.803 149.799 223.358C150.226 223.902 150.802 224.174 151.527 224.174C152.253 224.174 152.823 223.902 153.239 223.358C153.666 222.803 153.879 222.056 153.879 221.118ZM160.773 212.862C161.21 212.862 161.584 212.894 161.893 212.958C162.213 213.022 162.437 213.08 162.565 213.134L162.293 214.414C162.165 214.35 161.984 214.291 161.749 214.238C161.514 214.174 161.226 214.142 160.885 214.142C160.192 214.142 159.706 214.334 159.429 214.718C159.152 215.091 159.013 215.598 159.013 216.238V216.958H162.213V218.206H159.013V225.278H157.525V216.206C157.525 215.139 157.786 214.318 158.309 213.742C158.832 213.155 159.653 212.862 160.773 212.862ZM167.013 212.862C167.386 212.862 167.706 212.888 167.973 212.942C168.24 212.984 168.432 213.027 168.549 213.07L168.341 214.35C168.224 214.307 168.064 214.264 167.861 214.222C167.658 214.168 167.413 214.142 167.125 214.142C166.432 214.142 165.946 214.334 165.669 214.718C165.392 215.091 165.253 215.598 165.253 216.238V216.958H168.453V218.206H165.253V225.278H163.765V216.206C163.765 215.139 164.026 214.318 164.549 213.742C165.072 213.155 165.893 212.862 167.013 212.862ZM172.501 225.438C171.584 225.416 170.933 225.219 170.549 224.846C170.165 224.472 169.973 223.891 169.973 223.102V213.118L171.461 212.862V222.862C171.461 223.107 171.482 223.31 171.525 223.47C171.568 223.63 171.637 223.758 171.733 223.854C171.829 223.95 171.957 224.024 172.117 224.078C172.277 224.12 172.474 224.158 172.709 224.19L172.501 225.438ZM175.857 225.278H174.369V216.958H175.857V225.278ZM175.105 215.454C174.838 215.454 174.609 215.368 174.417 215.198C174.235 215.016 174.145 214.776 174.145 214.478C174.145 214.179 174.235 213.944 174.417 213.774C174.609 213.592 174.838 213.502 175.105 213.502C175.371 213.502 175.595 213.592 175.777 213.774C175.969 213.944 176.065 214.179 176.065 214.478C176.065 214.776 175.969 215.016 175.777 215.198C175.595 215.368 175.371 215.454 175.105 215.454ZM178.415 217.198C178.757 217.112 179.21 217.022 179.775 216.926C180.341 216.83 180.991 216.782 181.727 216.782C182.389 216.782 182.938 216.878 183.375 217.07C183.813 217.251 184.159 217.512 184.415 217.854C184.682 218.184 184.869 218.584 184.975 219.054C185.082 219.523 185.135 220.04 185.135 220.606V225.278H183.647V220.926C183.647 220.414 183.61 219.976 183.535 219.614C183.471 219.251 183.359 218.958 183.199 218.734C183.039 218.51 182.826 218.35 182.559 218.254C182.293 218.147 181.962 218.094 181.567 218.094C181.407 218.094 181.242 218.099 181.071 218.11C180.901 218.12 180.735 218.136 180.575 218.158C180.426 218.168 180.287 218.184 180.159 218.206C180.042 218.227 179.957 218.243 179.903 218.254V225.278H178.415V217.198ZM187.139 221.134C187.139 220.398 187.246 219.758 187.459 219.214C187.672 218.659 187.955 218.2 188.307 217.838C188.659 217.475 189.064 217.203 189.523 217.022C189.982 216.84 190.451 216.75 190.931 216.75C192.051 216.75 192.91 217.102 193.507 217.806C194.104 218.499 194.403 219.56 194.403 220.99C194.403 221.054 194.403 221.139 194.403 221.246C194.403 221.342 194.398 221.432 194.387 221.518H188.691C188.755 222.382 189.006 223.038 189.443 223.486C189.88 223.934 190.563 224.158 191.491 224.158C192.014 224.158 192.451 224.115 192.803 224.03C193.166 223.934 193.438 223.843 193.619 223.758L193.827 225.006C193.646 225.102 193.326 225.203 192.867 225.31C192.419 225.416 191.907 225.47 191.331 225.47C190.606 225.47 189.976 225.363 189.443 225.15C188.92 224.926 188.488 224.622 188.147 224.238C187.806 223.854 187.55 223.4 187.379 222.878C187.219 222.344 187.139 221.763 187.139 221.134ZM192.851 220.318C192.862 219.646 192.691 219.096 192.339 218.67C191.998 218.232 191.523 218.014 190.915 218.014C190.574 218.014 190.27 218.083 190.003 218.222C189.747 218.35 189.528 218.52 189.347 218.734C189.166 218.947 189.022 219.192 188.915 219.47C188.819 219.747 188.755 220.03 188.723 220.318H192.851Z" fill="#404A53"/>
<g clip-path="url(#clip2)">
<path d="M44.3641 254.09C39.265 254.09 35.1172 258.234 35.1172 263.329C35.1172 268.425 39.265 272.569 44.3641 272.569C49.4631 272.569 53.6109 268.424 53.6109 263.329C53.6109 258.235 49.4631 254.09 44.3641 254.09ZM44.3641 271.138C40.0558 271.138 36.5497 267.635 36.5497 263.329C36.5497 259.024 40.0558 255.521 44.3641 255.521C48.6731 255.521 52.1784 259.024 52.1784 263.329C52.1784 267.635 48.6724 271.138 44.3641 271.138Z" fill="#5FB2F5"/>
<path d="M48.6065 260.117C48.3149 259.852 47.8616 259.873 47.5951 260.165L43.2259 264.973L41.1151 262.828C40.8365 262.547 40.3838 262.542 40.1023 262.82C39.8201 263.097 39.8158 263.55 40.0937 263.832L42.736 266.516C42.8714 266.653 43.0547 266.73 43.2467 266.73C43.251 266.73 43.256 266.73 43.2603 266.73C43.458 266.726 43.6442 266.642 43.7767 266.496L48.6551 261.128C48.9209 260.835 48.8994 260.382 48.6065 260.117Z" fill="#5FB2F5"/>
</g>
<path d="M69.7489 268.944C69.0235 268.944 68.3942 268.832 67.8609 268.608C67.3275 268.384 66.8902 268.08 66.5489 267.696C66.2075 267.301 65.9515 266.837 65.7809 266.304C65.6209 265.771 65.5409 265.195 65.5409 264.576V257.616H67.0929V264.4C67.0929 265.509 67.3382 266.315 67.8289 266.816C68.3195 267.317 68.9595 267.568 69.7489 267.568C70.1435 267.568 70.5009 267.509 70.8209 267.392C71.1515 267.264 71.4342 267.072 71.6689 266.816C71.9035 266.56 72.0849 266.235 72.2129 265.84C72.3409 265.435 72.4049 264.955 72.4049 264.4V257.616H73.9569V264.576C73.9569 265.195 73.8715 265.771 73.7009 266.304C73.5409 266.837 73.2849 267.301 72.9329 267.696C72.5915 268.08 72.1542 268.384 71.6209 268.608C71.0982 268.832 70.4742 268.944 69.7489 268.944ZM76.5405 260.624C76.8818 260.539 77.3352 260.448 77.9005 260.352C78.4658 260.256 79.1165 260.208 79.8525 260.208C80.5138 260.208 81.0632 260.304 81.5005 260.496C81.9378 260.677 82.2845 260.939 82.5405 261.28C82.8072 261.611 82.9938 262.011 83.1005 262.48C83.2072 262.949 83.2605 263.467 83.2605 264.032V268.704H81.7725V264.352C81.7725 263.84 81.7352 263.403 81.6605 263.04C81.5965 262.677 81.4845 262.384 81.3245 262.16C81.1645 261.936 80.9512 261.776 80.6845 261.68C80.4178 261.573 80.0872 261.52 79.6925 261.52C79.5325 261.52 79.3672 261.525 79.1965 261.536C79.0258 261.547 78.8605 261.563 78.7005 261.584C78.5512 261.595 78.4125 261.611 78.2845 261.632C78.1672 261.653 78.0818 261.669 78.0285 261.68V268.704H76.5405V260.624ZM88.224 268.864C87.3067 268.843 86.656 268.645 86.272 268.272C85.888 267.899 85.696 267.317 85.696 266.528V256.544L87.184 256.288V266.288C87.184 266.533 87.2053 266.736 87.248 266.896C87.2907 267.056 87.36 267.184 87.456 267.28C87.552 267.376 87.68 267.451 87.84 267.504C88 267.547 88.1973 267.584 88.432 267.616L88.224 268.864ZM91.591 268.704H90.103V260.384H91.591V268.704ZM90.839 258.88C90.5723 258.88 90.343 258.795 90.151 258.624C89.9697 258.443 89.879 258.203 89.879 257.904C89.879 257.605 89.9697 257.371 90.151 257.2C90.343 257.019 90.5723 256.928 90.839 256.928C91.1057 256.928 91.3297 257.019 91.511 257.2C91.703 257.371 91.799 257.605 91.799 257.904C91.799 258.203 91.703 258.443 91.511 258.624C91.3297 258.795 91.1057 258.88 90.839 258.88ZM94.1499 260.624C94.4912 260.539 94.9392 260.448 95.4939 260.352C96.0592 260.256 96.7099 260.208 97.4459 260.208C97.9792 260.208 98.4272 260.283 98.7899 260.432C99.1525 260.571 99.4565 260.779 99.7019 261.056C99.7765 261.003 99.8939 260.928 100.054 260.832C100.214 260.736 100.411 260.645 100.646 260.56C100.881 260.464 101.142 260.384 101.43 260.32C101.718 260.245 102.027 260.208 102.358 260.208C102.998 260.208 103.521 260.304 103.926 260.496C104.331 260.677 104.646 260.939 104.87 261.28C105.105 261.621 105.259 262.027 105.334 262.496C105.419 262.965 105.462 263.477 105.462 264.032V268.704H103.974V264.352C103.974 263.861 103.947 263.44 103.894 263.088C103.851 262.736 103.761 262.443 103.622 262.208C103.494 261.973 103.313 261.803 103.078 261.696C102.854 261.579 102.561 261.52 102.198 261.52C101.697 261.52 101.281 261.589 100.95 261.728C100.63 261.856 100.411 261.973 100.294 262.08C100.379 262.357 100.443 262.661 100.486 262.992C100.529 263.323 100.55 263.669 100.55 264.032V268.704H99.0619V264.352C99.0619 263.861 99.0352 263.44 98.9819 263.088C98.9285 262.736 98.8325 262.443 98.6939 262.208C98.5659 261.973 98.3845 261.803 98.1499 261.696C97.9259 261.579 97.6379 261.52 97.2859 261.52C97.1365 261.52 96.9765 261.525 96.8059 261.536C96.6352 261.547 96.4699 261.563 96.3099 261.584C96.1605 261.595 96.0219 261.611 95.8939 261.632C95.7659 261.653 95.6805 261.669 95.6379 261.68V268.704H94.1499V260.624ZM109.419 268.704H107.931V260.384H109.419V268.704ZM108.667 258.88C108.4 258.88 108.171 258.795 107.979 258.624C107.798 258.443 107.707 258.203 107.707 257.904C107.707 257.605 107.798 257.371 107.979 257.2C108.171 257.019 108.4 256.928 108.667 256.928C108.934 256.928 109.158 257.019 109.339 257.2C109.531 257.371 109.627 257.605 109.627 257.904C109.627 258.203 109.531 258.443 109.339 258.624C109.158 258.795 108.934 258.88 108.667 258.88ZM113.37 260.384H116.522V261.632H113.37V265.472C113.37 265.888 113.402 266.235 113.466 266.512C113.53 266.779 113.626 266.992 113.754 267.152C113.882 267.301 114.042 267.408 114.234 267.472C114.426 267.536 114.65 267.568 114.906 267.568C115.354 267.568 115.711 267.52 115.978 267.424C116.255 267.317 116.447 267.243 116.554 267.2L116.842 268.432C116.693 268.507 116.431 268.597 116.058 268.704C115.685 268.821 115.258 268.88 114.778 268.88C114.213 268.88 113.743 268.811 113.37 268.672C113.007 268.523 112.714 268.304 112.49 268.016C112.266 267.728 112.106 267.376 112.01 266.96C111.925 266.533 111.882 266.043 111.882 265.488V258.064L113.37 257.808V260.384ZM117.795 264.56C117.795 263.824 117.902 263.184 118.115 262.64C118.329 262.085 118.611 261.627 118.963 261.264C119.315 260.901 119.721 260.629 120.179 260.448C120.638 260.267 121.107 260.176 121.587 260.176C122.707 260.176 123.566 260.528 124.163 261.232C124.761 261.925 125.059 262.987 125.059 264.416C125.059 264.48 125.059 264.565 125.059 264.672C125.059 264.768 125.054 264.859 125.043 264.944H119.347C119.411 265.808 119.662 266.464 120.099 266.912C120.537 267.36 121.219 267.584 122.147 267.584C122.67 267.584 123.107 267.541 123.459 267.456C123.822 267.36 124.094 267.269 124.275 267.184L124.483 268.432C124.302 268.528 123.982 268.629 123.523 268.736C123.075 268.843 122.563 268.896 121.987 268.896C121.262 268.896 120.633 268.789 120.099 268.576C119.577 268.352 119.145 268.048 118.803 267.664C118.462 267.28 118.206 266.827 118.035 266.304C117.875 265.771 117.795 265.189 117.795 264.56ZM123.507 263.744C123.518 263.072 123.347 262.523 122.995 262.096C122.654 261.659 122.179 261.44 121.571 261.44C121.23 261.44 120.926 261.509 120.659 261.648C120.403 261.776 120.185 261.947 120.003 262.16C119.822 262.373 119.678 262.619 119.571 262.896C119.475 263.173 119.411 263.456 119.379 263.744H123.507ZM132.573 262.144C132.391 261.995 132.13 261.851 131.789 261.712C131.447 261.573 131.074 261.504 130.669 261.504C130.242 261.504 129.874 261.584 129.565 261.744C129.266 261.893 129.021 262.107 128.829 262.384C128.637 262.651 128.498 262.971 128.413 263.344C128.327 263.717 128.285 264.117 128.285 264.544C128.285 265.515 128.525 266.267 129.005 266.8C129.485 267.323 130.125 267.584 130.925 267.584C131.33 267.584 131.666 267.568 131.933 267.536C132.21 267.493 132.423 267.451 132.573 267.408V262.144ZM132.573 256.544L134.061 256.288V268.464C133.719 268.56 133.282 268.656 132.749 268.752C132.215 268.848 131.602 268.896 130.909 268.896C130.269 268.896 129.693 268.795 129.181 268.592C128.669 268.389 128.231 268.101 127.869 267.728C127.506 267.355 127.223 266.901 127.021 266.368C126.829 265.824 126.733 265.216 126.733 264.544C126.733 263.904 126.813 263.317 126.973 262.784C127.143 262.251 127.389 261.792 127.709 261.408C128.029 261.024 128.418 260.725 128.877 260.512C129.346 260.299 129.879 260.192 130.477 260.192C130.957 260.192 131.378 260.256 131.741 260.384C132.114 260.512 132.391 260.635 132.573 260.752V256.544ZM142.258 267.632C142.866 267.632 143.314 267.552 143.602 267.392C143.9 267.232 144.05 266.976 144.05 266.624C144.05 266.261 143.906 265.973 143.618 265.76C143.33 265.547 142.855 265.307 142.194 265.04C141.874 264.912 141.564 264.784 141.266 264.656C140.978 264.517 140.727 264.357 140.514 264.176C140.3 263.995 140.13 263.776 140.002 263.52C139.874 263.264 139.81 262.949 139.81 262.576C139.81 261.84 140.082 261.259 140.626 260.832C141.17 260.395 141.911 260.176 142.85 260.176C143.084 260.176 143.319 260.192 143.554 260.224C143.788 260.245 144.007 260.277 144.21 260.32C144.412 260.352 144.588 260.389 144.738 260.432C144.898 260.475 145.02 260.512 145.106 260.544L144.834 261.824C144.674 261.739 144.423 261.653 144.082 261.568C143.74 261.472 143.33 261.424 142.85 261.424C142.434 261.424 142.071 261.509 141.762 261.68C141.452 261.84 141.298 262.096 141.298 262.448C141.298 262.629 141.33 262.789 141.394 262.928C141.468 263.067 141.575 263.195 141.714 263.312C141.863 263.419 142.044 263.52 142.258 263.616C142.471 263.712 142.727 263.813 143.026 263.92C143.42 264.069 143.772 264.219 144.082 264.368C144.391 264.507 144.652 264.672 144.866 264.864C145.09 265.056 145.26 265.291 145.378 265.568C145.495 265.835 145.554 266.165 145.554 266.56C145.554 267.328 145.266 267.909 144.69 268.304C144.124 268.699 143.314 268.896 142.258 268.896C141.522 268.896 140.946 268.832 140.53 268.704C140.114 268.587 139.831 268.496 139.682 268.432L139.954 267.152C140.124 267.216 140.396 267.312 140.77 267.44C141.143 267.568 141.639 267.632 142.258 267.632ZM146.998 264.56C146.998 263.824 147.105 263.184 147.318 262.64C147.532 262.085 147.814 261.627 148.166 261.264C148.518 260.901 148.924 260.629 149.382 260.448C149.841 260.267 150.31 260.176 150.79 260.176C151.91 260.176 152.769 260.528 153.366 261.232C153.964 261.925 154.262 262.987 154.262 264.416C154.262 264.48 154.262 264.565 154.262 264.672C154.262 264.768 154.257 264.859 154.246 264.944H148.55C148.614 265.808 148.865 266.464 149.302 266.912C149.74 267.36 150.422 267.584 151.35 267.584C151.873 267.584 152.31 267.541 152.662 267.456C153.025 267.36 153.297 267.269 153.478 267.184L153.686 268.432C153.505 268.528 153.185 268.629 152.726 268.736C152.278 268.843 151.766 268.896 151.19 268.896C150.465 268.896 149.836 268.789 149.302 268.576C148.78 268.352 148.348 268.048 148.006 267.664C147.665 267.28 147.409 266.827 147.238 266.304C147.078 265.771 146.998 265.189 146.998 264.56ZM152.71 263.744C152.721 263.072 152.55 262.523 152.198 262.096C151.857 261.659 151.382 261.44 150.774 261.44C150.433 261.44 150.129 261.509 149.862 261.648C149.606 261.776 149.388 261.947 149.206 262.16C149.025 262.373 148.881 262.619 148.774 262.896C148.678 263.173 148.614 263.456 148.582 263.744H152.71ZM160.016 268.896C159.344 268.896 158.752 268.789 158.24 268.576C157.739 268.363 157.312 268.064 156.96 267.68C156.619 267.296 156.363 266.843 156.192 266.32C156.021 265.787 155.936 265.2 155.936 264.56C155.936 263.92 156.027 263.333 156.208 262.8C156.4 262.267 156.667 261.808 157.008 261.424C157.349 261.029 157.765 260.725 158.256 260.512C158.757 260.288 159.312 260.176 159.92 260.176C160.293 260.176 160.667 260.208 161.04 260.272C161.413 260.336 161.771 260.437 162.112 260.576L161.776 261.84C161.552 261.733 161.291 261.648 160.992 261.584C160.704 261.52 160.395 261.488 160.064 261.488C159.232 261.488 158.592 261.749 158.144 262.272C157.707 262.795 157.488 263.557 157.488 264.56C157.488 265.008 157.536 265.419 157.632 265.792C157.739 266.165 157.899 266.485 158.112 266.752C158.336 267.019 158.619 267.227 158.96 267.376C159.301 267.515 159.717 267.584 160.208 267.584C160.603 267.584 160.96 267.547 161.28 267.472C161.6 267.397 161.851 267.317 162.032 267.232L162.24 268.48C162.155 268.533 162.032 268.587 161.872 268.64C161.712 268.683 161.531 268.72 161.328 268.752C161.125 268.795 160.907 268.827 160.672 268.848C160.448 268.88 160.229 268.896 160.016 268.896ZM165.229 260.384H168.381V261.632H165.229V265.472C165.229 265.888 165.261 266.235 165.325 266.512C165.389 266.779 165.485 266.992 165.613 267.152C165.741 267.301 165.901 267.408 166.093 267.472C166.285 267.536 166.509 267.568 166.765 267.568C167.213 267.568 167.571 267.52 167.837 267.424C168.115 267.317 168.307 267.243 168.413 267.2L168.701 268.432C168.552 268.507 168.291 268.597 167.917 268.704C167.544 268.821 167.117 268.88 166.637 268.88C166.072 268.88 165.603 268.811 165.229 268.672C164.867 268.523 164.573 268.304 164.349 268.016C164.125 267.728 163.965 267.376 163.869 266.96C163.784 266.533 163.741 266.043 163.741 265.488V258.064L165.229 257.808V260.384ZM171.763 268.704H170.275V260.384H171.763V268.704ZM171.011 258.88C170.744 258.88 170.515 258.795 170.323 258.624C170.142 258.443 170.051 258.203 170.051 257.904C170.051 257.605 170.142 257.371 170.323 257.2C170.515 257.019 170.744 256.928 171.011 256.928C171.278 256.928 171.502 257.019 171.683 257.2C171.875 257.371 171.971 257.605 171.971 257.904C171.971 258.203 171.875 258.443 171.683 258.624C171.502 258.795 171.278 258.88 171.011 258.88ZM181.666 264.544C181.666 265.205 181.57 265.803 181.378 266.336C181.186 266.869 180.914 267.328 180.562 267.712C180.22 268.096 179.81 268.395 179.33 268.608C178.85 268.811 178.327 268.912 177.762 268.912C177.196 268.912 176.674 268.811 176.194 268.608C175.714 268.395 175.298 268.096 174.946 267.712C174.604 267.328 174.338 266.869 174.146 266.336C173.954 265.803 173.858 265.205 173.858 264.544C173.858 263.893 173.954 263.301 174.146 262.768C174.338 262.224 174.604 261.76 174.946 261.376C175.298 260.992 175.714 260.699 176.194 260.496C176.674 260.283 177.196 260.176 177.762 260.176C178.327 260.176 178.85 260.283 179.33 260.496C179.81 260.699 180.22 260.992 180.562 261.376C180.914 261.76 181.186 262.224 181.378 262.768C181.57 263.301 181.666 263.893 181.666 264.544ZM180.114 264.544C180.114 263.605 179.9 262.864 179.474 262.32C179.058 261.765 178.487 261.488 177.762 261.488C177.036 261.488 176.46 261.765 176.034 262.32C175.618 262.864 175.41 263.605 175.41 264.544C175.41 265.483 175.618 266.229 176.034 266.784C176.46 267.328 177.036 267.6 177.762 267.6C178.487 267.6 179.058 267.328 179.474 266.784C179.9 266.229 180.114 265.483 180.114 264.544ZM183.759 260.624C184.101 260.539 184.554 260.448 185.119 260.352C185.685 260.256 186.335 260.208 187.071 260.208C187.733 260.208 188.282 260.304 188.719 260.496C189.157 260.677 189.503 260.939 189.759 261.28C190.026 261.611 190.213 262.011 190.319 262.48C190.426 262.949 190.479 263.467 190.479 264.032V268.704H188.991V264.352C188.991 263.84 188.954 263.403 188.879 263.04C188.815 262.677 188.703 262.384 188.543 262.16C188.383 261.936 188.17 261.776 187.903 261.68C187.637 261.573 187.306 261.52 186.911 261.52C186.751 261.52 186.586 261.525 186.415 261.536C186.245 261.547 186.079 261.563 185.919 261.584C185.77 261.595 185.631 261.611 185.503 261.632C185.386 261.653 185.301 261.669 185.247 261.68V268.704H183.759V260.624ZM194.883 267.632C195.491 267.632 195.939 267.552 196.227 267.392C196.525 267.232 196.675 266.976 196.675 266.624C196.675 266.261 196.531 265.973 196.243 265.76C195.955 265.547 195.48 265.307 194.819 265.04C194.499 264.912 194.189 264.784 193.891 264.656C193.603 264.517 193.352 264.357 193.139 264.176C192.925 263.995 192.755 263.776 192.627 263.52C192.499 263.264 192.435 262.949 192.435 262.576C192.435 261.84 192.707 261.259 193.251 260.832C193.795 260.395 194.536 260.176 195.475 260.176C195.709 260.176 195.944 260.192 196.179 260.224C196.413 260.245 196.632 260.277 196.835 260.32C197.037 260.352 197.213 260.389 197.363 260.432C197.523 260.475 197.645 260.512 197.731 260.544L197.459 261.824C197.299 261.739 197.048 261.653 196.707 261.568C196.365 261.472 195.955 261.424 195.475 261.424C195.059 261.424 194.696 261.509 194.387 261.68C194.077 261.84 193.923 262.096 193.923 262.448C193.923 262.629 193.955 262.789 194.019 262.928C194.093 263.067 194.2 263.195 194.339 263.312C194.488 263.419 194.669 263.52 194.883 263.616C195.096 263.712 195.352 263.813 195.651 263.92C196.045 264.069 196.397 264.219 196.707 264.368C197.016 264.507 197.277 264.672 197.491 264.864C197.715 265.056 197.885 265.291 198.003 265.568C198.12 265.835 198.179 266.165 198.179 266.56C198.179 267.328 197.891 267.909 197.315 268.304C196.749 268.699 195.939 268.896 194.883 268.896C194.147 268.896 193.571 268.832 193.155 268.704C192.739 268.587 192.456 268.496 192.307 268.432L192.579 267.152C192.749 267.216 193.021 267.312 193.395 267.44C193.768 267.568 194.264 267.632 194.883 267.632Z" fill="#404A53"/>
<defs>
<filter id="filter0_d" x="3.20834" y="0" width="238.126" height="144.633" filterUnits="userSpaceOnUse" color-interpolation-filters="sRGB">
<feFlood flood-opacity="0" result="BackgroundImageFix"/>
<feColorMatrix in="SourceAlpha" type="matrix" values="0 0 0 0 0 0 0 0 0 0 0 0 0 0 0 0 0 0 127 0"/>
<feOffset dy="9.25626"/>
<feGaussianBlur stdDeviation="4.62813"/>
<feColorMatrix type="matrix" values="0 0 0 0 0 0 0 0 0 0 0 0 0 0 0 0 0 0 0.25 0"/>
<feBlend mode="normal" in2="BackgroundImageFix" result="effect1_dropShadow"/>
<feBlend mode="normal" in="SourceGraphic" in2="effect1_dropShadow" result="shape"/>
</filter>
<filter id="filter1_d" x="2.74374" y="126.121" width="238.126" height="293.391" filterUnits="userSpaceOnUse" color-interpolation-filters="sRGB">
<feFlood flood-opacity="0" result="BackgroundImageFix"/>
<feColorMatrix in="SourceAlpha" type="matrix" values="0 0 0 0 0 0 0 0 0 0 0 0 0 0 0 0 0 0 127 0"/>
<feOffset dy="9.25626"/>
<feGaussianBlur stdDeviation="4.62813"/>
<feColorMatrix type="matrix" values="0 0 0 0 0 0 0 0 0 0 0 0 0 0 0 0 0 0 0.25 0"/>
<feBlend mode="normal" in2="BackgroundImageFix" result="effect1_dropShadow"/>
<feBlend mode="normal" in="SourceGraphic" in2="effect1_dropShadow" result="shape"/>
</filter>
<filter id="filter2_d" x="88.6673" y="57.6917" width="67.6177" height="39.9875" filterUnits="userSpaceOnUse" color-interpolation-filters="sRGB">
<feFlood flood-opacity="0" result="BackgroundImageFix"/>
<feColorMatrix in="SourceAlpha" type="matrix" values="0 0 0 0 0 0 0 0 0 0 0 0 0 0 0 0 0 0 127 0"/>
<feOffset dy="1.85125"/>
<feGaussianBlur stdDeviation="0.925626"/>
<feColorMatrix type="matrix" values="0 0 0 0 0 0 0 0 0 0 0 0 0 0 0 0 0 0 0.25 0"/>
<feBlend mode="normal" in2="BackgroundImageFix" result="effect1_dropShadow"/>
<feBlend mode="normal" in="SourceGraphic" in2="effect1_dropShadow" result="shape"/>
</filter>
<filter id="filter3_d" x="75.168" y="26.7739" width="93.8291" height="21.9285" filterUnits="userSpaceOnUse" color-interpolation-filters="sRGB">
<feFlood flood-opacity="0" result="BackgroundImageFix"/>
<feColorMatrix in="SourceAlpha" type="matrix" values="0 0 0 0 0 0 0 0 0 0 0 0 0 0 0 0 0 0 127 0"/>
<feOffset dy="1.85125"/>
<feGaussianBlur stdDeviation="0.925626"/>
<feColorMatrix type="matrix" values="0 0 0 0 0 0 0 0 0 0 0 0 0 0 0 0 0 0 0.25 0"/>
<feBlend mode="normal" in2="BackgroundImageFix" result="effect1_dropShadow"/>
<feBlend mode="normal" in="SourceGraphic" in2="effect1_dropShadow" result="shape"/>
</filter>
<clipPath id="clip0">
<rect width="18.4938" height="18.4792" fill="white" transform="translate(35.1172 165.852)"/>
</clipPath>
<clipPath id="clip1">
<rect width="18.4938" height="18.4792" fill="white" transform="translate(35.1172 209.278)"/>
</clipPath>
<clipPath id="clip2">
<rect width="18.4938" height="18.4792" fill="white" transform="translate(35.1172 254.09)"/>
</clipPath>
</defs>
</svg>
