<svg width="243" height="433" viewBox="0 0 243 433" fill="none" xmlns="http://www.w3.org/2000/svg">
<rect width="243" height="433" fill="white"/>
<g filter="url(#filter0_d)">
<rect x="12.0007" width="219.613" height="126.121" fill="#404A53"/>
</g>
<g filter="url(#filter1_d)">
<rect x="12" y="126.121" width="219.613" height="274.879" fill="white"/>
</g>
<g filter="url(#filter2_d)">
<path d="M97.8354 85.6126C99.9401 85.6126 101.416 85.2846 102.263 84.6286C103.111 83.9452 103.534 83.0842 103.534 82.0456C103.534 81.2802 103.343 80.6242 102.96 80.0776C102.605 79.5309 102.113 79.0526 101.484 78.6426C100.883 78.2326 100.172 77.8636 99.3524 77.5356C98.5597 77.2076 97.7397 76.8932 96.8924 76.5926C96.0724 76.2919 95.2524 75.9639 94.4324 75.6086C93.6397 75.2259 92.9291 74.7749 92.3004 74.2556C91.6717 73.7089 91.1524 73.0666 90.7424 72.3286C90.3597 71.5632 90.1684 70.6339 90.1684 69.5406C90.1684 67.5999 90.7424 66.0146 91.8904 64.7846C93.0657 63.5272 94.7604 62.7346 96.9744 62.4066V57.6916H100.377V62.2836C101.58 62.3382 102.701 62.4886 103.739 62.7346C104.778 62.9806 105.598 63.2129 106.199 63.4316L105.42 66.6296C104.764 66.3836 103.944 66.1376 102.96 65.8916C101.976 65.6182 100.746 65.4816 99.2704 65.4816C97.6304 65.4816 96.3594 65.7959 95.4574 66.4246C94.5827 67.0532 94.1454 67.9416 94.1454 69.0896C94.1454 69.7182 94.2684 70.2512 94.5144 70.6886C94.7877 71.1259 95.1704 71.5222 95.6624 71.8776C96.1544 72.2056 96.7284 72.5062 97.3844 72.7796C98.0677 73.0529 98.8194 73.3399 99.6394 73.6406C100.705 74.0506 101.717 74.4742 102.673 74.9116C103.63 75.3489 104.464 75.8819 105.174 76.5106C105.912 77.1119 106.5 77.8362 106.937 78.6836C107.375 79.5309 107.593 80.5559 107.593 81.7586C107.593 83.6992 107.006 85.2709 105.83 86.4736C104.655 87.6489 102.837 88.3869 100.377 88.6876V93.9766H96.9744V88.8106C95.0611 88.7559 93.5031 88.5509 92.3004 88.1956C91.0977 87.8129 90.1957 87.4576 89.5944 87.1296L90.6194 84.0546C91.4394 84.4372 92.4234 84.7926 93.5714 85.1206C94.7194 85.4486 96.1407 85.6126 97.8354 85.6126ZM118.395 72.0416C122.522 72.2056 125.543 73.1076 127.456 74.7476C129.397 76.3876 130.367 78.6152 130.367 81.4306C130.367 82.6879 130.148 83.8496 129.711 84.9156C129.301 85.9816 128.659 86.8972 127.784 87.6626C126.937 88.4279 125.857 89.0292 124.545 89.4666C123.233 89.9039 121.675 90.1226 119.871 90.1226C119.16 90.1226 118.436 90.0679 117.698 89.9586C116.96 89.8492 116.277 89.7126 115.648 89.5486C115.019 89.3846 114.459 89.2206 113.967 89.0566C113.475 88.8926 113.12 88.7559 112.901 88.6466L113.639 85.3256C114.104 85.5442 114.855 85.8312 115.894 86.1866C116.96 86.5419 118.258 86.7196 119.789 86.7196C121.019 86.7196 122.044 86.5829 122.864 86.3096C123.711 86.0362 124.395 85.6672 124.914 85.2026C125.433 84.7379 125.802 84.2049 126.021 83.6036C126.267 82.9749 126.39 82.3189 126.39 81.6356C126.39 80.5969 126.212 79.6812 125.857 78.8886C125.502 78.0686 124.873 77.3852 123.971 76.8386C123.069 76.2919 121.866 75.8819 120.363 75.6086C118.86 75.3079 116.96 75.1576 114.664 75.1576C114.828 73.8182 114.951 72.5609 115.033 71.3856C115.142 70.2102 115.238 69.0622 115.32 67.9416C115.402 66.8209 115.47 65.7139 115.525 64.6206C115.58 63.4999 115.634 62.3246 115.689 61.0946H129.383V64.3336H119.01C118.983 64.7436 118.942 65.3039 118.887 66.0146C118.832 66.6979 118.778 67.4222 118.723 68.1876C118.668 68.9256 118.614 69.6499 118.559 70.3606C118.504 71.0712 118.45 71.6316 118.395 72.0416ZM135.429 75.2806C135.429 70.5246 136.262 66.8619 137.93 64.2926C139.624 61.7232 141.961 60.4386 144.941 60.4386C147.92 60.4386 150.243 61.7232 151.911 64.2926C153.605 66.8619 154.453 70.5246 154.453 75.2806C154.453 80.0366 153.605 83.6992 151.911 86.2686C150.243 88.8379 147.92 90.1226 144.941 90.1226C141.961 90.1226 139.624 88.8379 137.93 86.2686C136.262 83.6992 135.429 80.0366 135.429 75.2806ZM150.435 75.2806C150.435 73.7226 150.339 72.2466 150.148 70.8526C149.984 69.4586 149.683 68.2422 149.246 67.2036C148.836 66.1649 148.275 65.3449 147.565 64.7436C146.854 64.1149 145.979 63.8006 144.941 63.8006C143.902 63.8006 143.027 64.1149 142.317 64.7436C141.606 65.3449 141.032 66.1649 140.595 67.2036C140.185 68.2422 139.884 69.4586 139.693 70.8526C139.529 72.2466 139.447 73.7226 139.447 75.2806C139.447 76.8386 139.529 78.3146 139.693 79.7086C139.884 81.1026 140.185 82.3189 140.595 83.3576C141.032 84.3962 141.606 85.2299 142.317 85.8586C143.027 86.4599 143.902 86.7606 144.941 86.7606C145.979 86.7606 146.854 86.4599 147.565 85.8586C148.275 85.2299 148.836 84.3962 149.246 83.3576C149.683 82.3189 149.984 81.1026 150.148 79.7086C150.339 78.3146 150.435 76.8386 150.435 75.2806Z" fill="white"/>
</g>
<g filter="url(#filter3_d)">
<path d="M77.0911 44.9998V26.7738H83.8251C86.5118 26.7738 87.8551 28.2558 87.8551 31.2198V33.7938C87.8551 36.6538 86.5118 38.0838 83.8251 38.0838H79.1191V44.9998H77.0911ZM85.8011 31.2458C85.8011 29.6511 85.1338 28.8538 83.7991 28.8538H79.1191V36.1598H83.7991C85.1338 36.1598 85.8011 35.3711 85.8011 33.7938V31.2458ZM89.8372 44.9998V31.6618H91.7092V33.2998C91.9519 32.6931 92.2812 32.2684 92.6972 32.0258C93.1306 31.7831 93.7199 31.6618 94.4652 31.6618H97.1952V33.6898H93.6072C92.9312 33.6898 92.4546 33.8718 92.1772 34.2358C91.9172 34.5824 91.7872 35.1371 91.7872 35.8998V44.9998H89.8372ZM102.646 44.9998C100.046 44.9998 98.7463 43.6044 98.7463 40.8138V35.8478C98.7463 33.0571 100.046 31.6618 102.646 31.6618H105.012C107.63 31.6618 108.938 33.0571 108.938 35.8478V39.1498H100.644V40.7618C100.644 42.2524 101.312 42.9978 102.646 42.9978H108.574V44.9998H102.646ZM107.066 35.7958C107.066 34.3051 106.39 33.5598 105.038 33.5598H102.646C101.312 33.5598 100.644 34.3051 100.644 35.7958V37.4338H107.066V35.7958ZM126.266 44.9998V35.8738C126.266 34.4178 125.746 33.6898 124.706 33.6898H122.366C121.864 33.6898 121.465 33.8631 121.17 34.2098C120.893 34.5391 120.754 35.0938 120.754 35.8738V44.9998H118.83V35.8738C118.83 35.0938 118.692 34.5391 118.414 34.2098C118.137 33.8631 117.747 33.6898 117.244 33.6898H115.138C114.462 33.6898 113.986 33.8718 113.708 34.2358C113.448 34.5824 113.318 35.1371 113.318 35.8998V44.9998H111.368V31.6618H113.24V33.2998C113.483 32.6931 113.812 32.2684 114.228 32.0258C114.662 31.7831 115.251 31.6618 115.996 31.6618H117.764C118.423 31.6618 118.969 31.8264 119.402 32.1558C119.836 32.4678 120.148 32.9531 120.338 33.6118C120.564 32.8838 120.919 32.3811 121.404 32.1038C121.907 31.8091 122.522 31.6618 123.25 31.6618H125.2C127.211 31.6618 128.216 33.0224 128.216 35.7438V44.9998H126.266ZM130.846 29.8938V26.7738H132.822V29.8938H130.846ZM130.846 44.9998V31.6618H132.822V44.9998H130.846ZM143.888 44.9998V43.3878C143.645 43.9944 143.316 44.4191 142.9 44.6618C142.484 44.8871 141.894 44.9998 141.132 44.9998H138.428C136.417 44.9998 135.412 43.6391 135.412 40.9178V31.6618H137.336V40.8138C137.336 42.2698 137.864 42.9978 138.922 42.9978H141.99C142.666 42.9978 143.142 42.8158 143.42 42.4518C143.697 42.0878 143.836 41.5331 143.836 40.7878V31.6618H145.786V44.9998H143.888ZM163.235 44.9998V35.8738C163.235 34.4178 162.715 33.6898 161.675 33.6898H159.335C158.833 33.6898 158.434 33.8631 158.139 34.2098C157.862 34.5391 157.723 35.0938 157.723 35.8738V44.9998H155.799V35.8738C155.799 35.0938 155.661 34.5391 155.383 34.2098C155.106 33.8631 154.716 33.6898 154.213 33.6898H152.107C151.431 33.6898 150.955 33.8718 150.677 34.2358C150.417 34.5824 150.287 35.1371 150.287 35.8998V44.9998H148.337V31.6618H150.209V33.2998C150.452 32.6931 150.781 32.2684 151.197 32.0258C151.631 31.7831 152.22 31.6618 152.965 31.6618H154.733C155.392 31.6618 155.938 31.8264 156.371 32.1558C156.805 32.4678 157.117 32.9531 157.307 33.6118C157.533 32.8838 157.888 32.3811 158.373 32.1038C158.876 31.8091 159.491 31.6618 160.219 31.6618H162.169C164.18 31.6618 165.185 33.0224 165.185 35.7438V44.9998H163.235Z" fill="white"/>
</g>
<g clip-path="url(#clip0)">
<path d="M40.6653 165.852C35.5663 165.852 31.4185 169.996 31.4185 175.091C31.4185 180.186 35.5663 184.331 40.6653 184.331C45.7644 184.331 49.9122 180.186 49.9122 175.091C49.9122 169.997 45.7644 165.852 40.6653 165.852ZM40.6653 182.899C36.357 182.899 32.851 179.397 32.851 175.091C32.851 170.786 36.357 167.283 40.6653 167.283C44.9743 167.283 48.4797 170.786 48.4797 175.091C48.4797 179.397 44.9736 182.899 40.6653 182.899Z" fill="#5FB2F5"/>
<path d="M44.9075 171.878C44.616 171.613 44.1626 171.634 43.8962 171.927L39.527 176.734L37.4161 174.59C37.1375 174.308 36.6848 174.304 36.4033 174.581C36.1211 174.858 36.1168 175.311 36.3947 175.593L39.037 178.277C39.1724 178.415 39.3557 178.491 39.5477 178.491C39.552 178.491 39.557 178.491 39.5613 178.492C39.759 178.488 39.9452 178.403 40.0777 178.257L44.9562 172.889C45.2219 172.596 45.2004 172.144 44.9075 171.878Z" fill="#5FB2F5"/>
</g>
<path d="M62.0339 171.665C62.6419 171.43 63.2339 171.132 63.8099 170.769C64.3859 170.396 64.9139 169.932 65.3939 169.377H66.4499V180.465H64.9619V171.441C64.8339 171.558 64.6739 171.681 64.4819 171.809C64.3006 171.937 64.0979 172.06 63.8739 172.177C63.6606 172.294 63.4312 172.406 63.1859 172.513C62.9512 172.62 62.7219 172.71 62.4979 172.785L62.0339 171.665ZM70.3771 174.913C70.3771 173.057 70.7025 171.628 71.3531 170.625C72.0145 169.622 72.9265 169.121 74.0891 169.121C75.2518 169.121 76.1585 169.622 76.8091 170.625C77.4705 171.628 77.8011 173.057 77.8011 174.913C77.8011 176.769 77.4705 178.198 76.8091 179.201C76.1585 180.204 75.2518 180.705 74.0891 180.705C72.9265 180.705 72.0145 180.204 71.3531 179.201C70.7025 178.198 70.3771 176.769 70.3771 174.913ZM76.2331 174.913C76.2331 174.305 76.1958 173.729 76.1211 173.185C76.0571 172.641 75.9398 172.166 75.7691 171.761C75.6091 171.356 75.3905 171.036 75.1131 170.801C74.8358 170.556 74.4945 170.433 74.0891 170.433C73.6838 170.433 73.3425 170.556 73.0651 170.801C72.7878 171.036 72.5638 171.356 72.3931 171.761C72.2331 172.166 72.1158 172.641 72.0411 173.185C71.9771 173.729 71.9451 174.305 71.9451 174.913C71.9451 175.521 71.9771 176.097 72.0411 176.641C72.1158 177.185 72.2331 177.66 72.3931 178.065C72.5638 178.47 72.7878 178.796 73.0651 179.041C73.3425 179.276 73.6838 179.393 74.0891 179.393C74.4945 179.393 74.8358 179.276 75.1131 179.041C75.3905 178.796 75.6091 178.47 75.7691 178.065C75.9398 177.66 76.0571 177.185 76.1211 176.641C76.1958 176.097 76.2331 175.521 76.2331 174.913ZM79.4084 174.913C79.4084 173.057 79.7337 171.628 80.3844 170.625C81.0457 169.622 81.9577 169.121 83.1204 169.121C84.2831 169.121 85.1897 169.622 85.8404 170.625C86.5017 171.628 86.8324 173.057 86.8324 174.913C86.8324 176.769 86.5017 178.198 85.8404 179.201C85.1897 180.204 84.2831 180.705 83.1204 180.705C81.9577 180.705 81.0457 180.204 80.3844 179.201C79.7337 178.198 79.4084 176.769 79.4084 174.913ZM85.2644 174.913C85.2644 174.305 85.2271 173.729 85.1524 173.185C85.0884 172.641 84.9711 172.166 84.8004 171.761C84.6404 171.356 84.4217 171.036 84.1444 170.801C83.8671 170.556 83.5257 170.433 83.1204 170.433C82.7151 170.433 82.3737 170.556 82.0964 170.801C81.8191 171.036 81.5951 171.356 81.4244 171.761C81.2644 172.166 81.1471 172.641 81.0724 173.185C81.0084 173.729 80.9764 174.305 80.9764 174.913C80.9764 175.521 81.0084 176.097 81.0724 176.641C81.1471 177.185 81.2644 177.66 81.4244 178.065C81.5951 178.47 81.8191 178.796 82.0964 179.041C82.3737 179.276 82.7151 179.393 83.1204 179.393C83.5257 179.393 83.8671 179.276 84.1444 179.041C84.4217 178.796 84.6404 178.47 84.8004 178.065C84.9711 177.66 85.0884 177.185 85.1524 176.641C85.2271 176.097 85.2644 175.521 85.2644 174.913ZM88.4396 174.913C88.4396 173.057 88.765 171.628 89.4156 170.625C90.077 169.622 90.989 169.121 92.1516 169.121C93.3143 169.121 94.221 169.622 94.8716 170.625C95.533 171.628 95.8636 173.057 95.8636 174.913C95.8636 176.769 95.533 178.198 94.8716 179.201C94.221 180.204 93.3143 180.705 92.1516 180.705C90.989 180.705 90.077 180.204 89.4156 179.201C88.765 178.198 88.4396 176.769 88.4396 174.913ZM94.2956 174.913C94.2956 174.305 94.2583 173.729 94.1836 173.185C94.1196 172.641 94.0023 172.166 93.8316 171.761C93.6716 171.356 93.453 171.036 93.1756 170.801C92.8983 170.556 92.557 170.433 92.1516 170.433C91.7463 170.433 91.405 170.556 91.1276 170.801C90.8503 171.036 90.6263 171.356 90.4556 171.761C90.2956 172.166 90.1783 172.641 90.1036 173.185C90.0396 173.729 90.0076 174.305 90.0076 174.913C90.0076 175.521 90.0396 176.097 90.1036 176.641C90.1783 177.185 90.2956 177.66 90.4556 178.065C90.6263 178.47 90.8503 178.796 91.1276 179.041C91.405 179.276 91.7463 179.393 92.1516 179.393C92.557 179.393 92.8983 179.276 93.1756 179.041C93.453 178.796 93.6716 178.47 93.8316 178.065C94.0023 177.66 94.1196 177.185 94.1836 176.641C94.2583 176.097 94.2956 175.521 94.2956 174.913ZM108.518 175.009H110.07V180.193C109.942 180.236 109.755 180.284 109.51 180.337C109.275 180.39 108.998 180.444 108.678 180.497C108.369 180.55 108.027 180.593 107.654 180.625C107.281 180.668 106.902 180.689 106.518 180.689C105.739 180.689 105.03 180.561 104.39 180.305C103.75 180.049 103.201 179.676 102.742 179.185C102.283 178.694 101.926 178.092 101.67 177.377C101.425 176.662 101.302 175.841 101.302 174.913C101.302 173.985 101.441 173.164 101.718 172.449C102.006 171.724 102.39 171.116 102.87 170.625C103.35 170.134 103.91 169.761 104.55 169.505C105.201 169.249 105.894 169.121 106.63 169.121C107.131 169.121 107.574 169.153 107.958 169.217C108.353 169.281 108.689 169.356 108.966 169.441C109.243 169.526 109.467 169.612 109.638 169.697C109.819 169.782 109.942 169.846 110.006 169.889L109.51 171.185C109.201 170.982 108.79 170.817 108.278 170.689C107.766 170.55 107.243 170.481 106.71 170.481C106.145 170.481 105.627 170.582 105.158 170.785C104.699 170.988 104.305 171.281 103.974 171.665C103.654 172.049 103.403 172.518 103.222 173.073C103.041 173.617 102.95 174.23 102.95 174.913C102.95 175.574 103.025 176.177 103.174 176.721C103.334 177.265 103.569 177.734 103.878 178.129C104.198 178.513 104.587 178.812 105.046 179.025C105.515 179.238 106.065 179.345 106.694 179.345C107.142 179.345 107.521 179.324 107.83 179.281C108.15 179.228 108.379 179.18 108.518 179.137V175.009ZM115.492 180.561C115.268 180.561 115.023 180.556 114.756 180.545C114.5 180.534 114.239 180.518 113.972 180.497C113.716 180.476 113.46 180.449 113.204 180.417C112.948 180.385 112.713 180.342 112.5 180.289V169.537C112.713 169.484 112.948 169.441 113.204 169.409C113.46 169.377 113.716 169.35 113.972 169.329C114.239 169.308 114.5 169.292 114.756 169.281C115.012 169.27 115.252 169.265 115.476 169.265C116.116 169.265 116.713 169.313 117.268 169.409C117.833 169.505 118.319 169.67 118.724 169.905C119.14 170.129 119.465 170.428 119.7 170.801C119.935 171.174 120.052 171.633 120.052 172.177C120.052 172.785 119.908 173.286 119.62 173.681C119.332 174.065 118.948 174.353 118.468 174.545C119.119 174.737 119.636 175.041 120.02 175.457C120.404 175.873 120.596 176.46 120.596 177.217C120.596 178.326 120.185 179.164 119.364 179.729C118.553 180.284 117.263 180.561 115.492 180.561ZM114.036 175.297V179.201C114.153 179.212 114.292 179.222 114.452 179.233C114.591 179.244 114.751 179.254 114.932 179.265C115.124 179.265 115.343 179.265 115.588 179.265C116.047 179.265 116.479 179.238 116.884 179.185C117.3 179.121 117.663 179.014 117.972 178.865C118.281 178.716 118.527 178.508 118.708 178.241C118.9 177.974 118.996 177.638 118.996 177.233C118.996 176.87 118.927 176.566 118.788 176.321C118.649 176.065 118.447 175.862 118.18 175.713C117.924 175.564 117.615 175.457 117.252 175.393C116.889 175.329 116.484 175.297 116.036 175.297H114.036ZM114.036 174.049H115.668C116.052 174.049 116.415 174.022 116.756 173.969C117.097 173.916 117.391 173.82 117.636 173.681C117.892 173.542 118.089 173.361 118.228 173.137C118.377 172.913 118.452 172.63 118.452 172.289C118.452 171.969 118.377 171.702 118.228 171.489C118.079 171.265 117.871 171.089 117.604 170.961C117.348 170.822 117.044 170.721 116.692 170.657C116.34 170.593 115.967 170.561 115.572 170.561C115.177 170.561 114.868 170.566 114.644 170.577C114.42 170.588 114.217 170.604 114.036 170.625V174.049ZM133.732 176.305C133.732 176.966 133.636 177.564 133.444 178.097C133.252 178.63 132.98 179.089 132.628 179.473C132.287 179.857 131.876 180.156 131.396 180.369C130.916 180.572 130.394 180.673 129.828 180.673C129.263 180.673 128.74 180.572 128.26 180.369C127.78 180.156 127.364 179.857 127.012 179.473C126.671 179.089 126.404 178.63 126.212 178.097C126.02 177.564 125.924 176.966 125.924 176.305C125.924 175.654 126.02 175.062 126.212 174.529C126.404 173.985 126.671 173.521 127.012 173.137C127.364 172.753 127.78 172.46 128.26 172.257C128.74 172.044 129.263 171.937 129.828 171.937C130.394 171.937 130.916 172.044 131.396 172.257C131.876 172.46 132.287 172.753 132.628 173.137C132.98 173.521 133.252 173.985 133.444 174.529C133.636 175.062 133.732 175.654 133.732 176.305ZM132.18 176.305C132.18 175.366 131.967 174.625 131.54 174.081C131.124 173.526 130.554 173.249 129.828 173.249C129.103 173.249 128.527 173.526 128.1 174.081C127.684 174.625 127.476 175.366 127.476 176.305C127.476 177.244 127.684 177.99 128.1 178.545C128.527 179.089 129.103 179.361 129.828 179.361C130.554 179.361 131.124 179.089 131.54 178.545C131.967 177.99 132.18 177.244 132.18 176.305ZM139.074 168.049C139.511 168.049 139.885 168.081 140.194 168.145C140.514 168.209 140.738 168.268 140.866 168.321L140.594 169.601C140.466 169.537 140.285 169.478 140.05 169.425C139.815 169.361 139.527 169.329 139.186 169.329C138.493 169.329 138.007 169.521 137.73 169.905C137.453 170.278 137.314 170.785 137.314 171.425V172.145H140.514V173.393H137.314V180.465H135.826V171.393C135.826 170.326 136.087 169.505 136.61 168.929C137.133 168.342 137.954 168.049 139.074 168.049ZM147.637 179.393C148.245 179.393 148.693 179.313 148.981 179.153C149.28 178.993 149.429 178.737 149.429 178.385C149.429 178.022 149.285 177.734 148.997 177.521C148.709 177.308 148.234 177.068 147.573 176.801C147.253 176.673 146.944 176.545 146.645 176.417C146.357 176.278 146.106 176.118 145.893 175.937C145.68 175.756 145.509 175.537 145.381 175.281C145.253 175.025 145.189 174.71 145.189 174.337C145.189 173.601 145.461 173.02 146.005 172.593C146.549 172.156 147.29 171.937 148.229 171.937C148.464 171.937 148.698 171.953 148.933 171.985C149.168 172.006 149.386 172.038 149.589 172.081C149.792 172.113 149.968 172.15 150.117 172.193C150.277 172.236 150.4 172.273 150.485 172.305L150.213 173.585C150.053 173.5 149.802 173.414 149.461 173.329C149.12 173.233 148.709 173.185 148.229 173.185C147.813 173.185 147.45 173.27 147.141 173.441C146.832 173.601 146.677 173.857 146.677 174.209C146.677 174.39 146.709 174.55 146.773 174.689C146.848 174.828 146.954 174.956 147.093 175.073C147.242 175.18 147.424 175.281 147.637 175.377C147.85 175.473 148.106 175.574 148.405 175.681C148.8 175.83 149.152 175.98 149.461 176.129C149.77 176.268 150.032 176.433 150.245 176.625C150.469 176.817 150.64 177.052 150.757 177.329C150.874 177.596 150.933 177.926 150.933 178.321C150.933 179.089 150.645 179.67 150.069 180.065C149.504 180.46 148.693 180.657 147.637 180.657C146.901 180.657 146.325 180.593 145.909 180.465C145.493 180.348 145.21 180.257 145.061 180.193L145.333 178.913C145.504 178.977 145.776 179.073 146.149 179.201C146.522 179.329 147.018 179.393 147.637 179.393ZM154.234 172.145H157.386V173.393H154.234V177.233C154.234 177.649 154.266 177.996 154.33 178.273C154.394 178.54 154.49 178.753 154.618 178.913C154.746 179.062 154.906 179.169 155.098 179.233C155.29 179.297 155.514 179.329 155.77 179.329C156.218 179.329 156.575 179.281 156.842 179.185C157.119 179.078 157.311 179.004 157.418 178.961L157.706 180.193C157.556 180.268 157.295 180.358 156.922 180.465C156.548 180.582 156.122 180.641 155.642 180.641C155.076 180.641 154.607 180.572 154.234 180.433C153.871 180.284 153.578 180.065 153.354 179.777C153.13 179.489 152.97 179.137 152.874 178.721C152.788 178.294 152.746 177.804 152.746 177.249V169.825L154.234 169.569V172.145ZM166.404 176.305C166.404 176.966 166.308 177.564 166.116 178.097C165.924 178.63 165.652 179.089 165.3 179.473C164.959 179.857 164.548 180.156 164.068 180.369C163.588 180.572 163.066 180.673 162.5 180.673C161.935 180.673 161.412 180.572 160.932 180.369C160.452 180.156 160.036 179.857 159.684 179.473C159.343 179.089 159.076 178.63 158.884 178.097C158.692 177.564 158.596 176.966 158.596 176.305C158.596 175.654 158.692 175.062 158.884 174.529C159.076 173.985 159.343 173.521 159.684 173.137C160.036 172.753 160.452 172.46 160.932 172.257C161.412 172.044 161.935 171.937 162.5 171.937C163.066 171.937 163.588 172.044 164.068 172.257C164.548 172.46 164.959 172.753 165.3 173.137C165.652 173.521 165.924 173.985 166.116 174.529C166.308 175.062 166.404 175.654 166.404 176.305ZM164.852 176.305C164.852 175.366 164.639 174.625 164.212 174.081C163.796 173.526 163.226 173.249 162.5 173.249C161.775 173.249 161.199 173.526 160.772 174.081C160.356 174.625 160.148 175.366 160.148 176.305C160.148 177.244 160.356 177.99 160.772 178.545C161.199 179.089 161.775 179.361 162.5 179.361C163.226 179.361 163.796 179.089 164.212 178.545C164.639 177.99 164.852 177.244 164.852 176.305ZM171.57 171.969C171.698 171.969 171.842 171.98 172.002 172.001C172.172 172.012 172.338 172.033 172.498 172.065C172.658 172.086 172.802 172.113 172.93 172.145C173.068 172.166 173.17 172.188 173.234 172.209L172.978 173.505C172.86 173.462 172.663 173.414 172.386 173.361C172.119 173.297 171.772 173.265 171.346 173.265C171.068 173.265 170.791 173.297 170.514 173.361C170.247 173.414 170.071 173.452 169.986 173.473V180.465H168.498V172.497C168.85 172.369 169.287 172.252 169.81 172.145C170.332 172.028 170.919 171.969 171.57 171.969ZM177.486 179.393C177.838 179.393 178.147 179.388 178.414 179.377C178.691 179.356 178.92 179.324 179.102 179.281V176.801C178.995 176.748 178.819 176.705 178.574 176.673C178.339 176.63 178.051 176.609 177.71 176.609C177.486 176.609 177.246 176.625 176.99 176.657C176.744 176.689 176.515 176.758 176.302 176.865C176.099 176.961 175.928 177.1 175.79 177.281C175.651 177.452 175.582 177.681 175.582 177.969C175.582 178.502 175.752 178.876 176.094 179.089C176.435 179.292 176.899 179.393 177.486 179.393ZM177.358 171.937C177.955 171.937 178.456 172.017 178.862 172.177C179.278 172.326 179.608 172.545 179.854 172.833C180.11 173.11 180.291 173.446 180.398 173.841C180.504 174.225 180.558 174.652 180.558 175.121V180.321C180.43 180.342 180.248 180.374 180.014 180.417C179.79 180.449 179.534 180.481 179.246 180.513C178.958 180.545 178.643 180.572 178.302 180.593C177.971 180.625 177.64 180.641 177.31 180.641C176.84 180.641 176.408 180.593 176.014 180.497C175.619 180.401 175.278 180.252 174.99 180.049C174.702 179.836 174.478 179.558 174.318 179.217C174.158 178.876 174.078 178.465 174.078 177.985C174.078 177.526 174.168 177.132 174.35 176.801C174.542 176.47 174.798 176.204 175.118 176.001C175.438 175.798 175.811 175.649 176.238 175.553C176.664 175.457 177.112 175.409 177.582 175.409C177.731 175.409 177.886 175.42 178.046 175.441C178.206 175.452 178.355 175.473 178.494 175.505C178.643 175.526 178.771 175.548 178.878 175.569C178.984 175.59 179.059 175.606 179.102 175.617V175.201C179.102 174.956 179.075 174.716 179.022 174.481C178.968 174.236 178.872 174.022 178.734 173.841C178.595 173.649 178.403 173.5 178.158 173.393C177.923 173.276 177.614 173.217 177.23 173.217C176.739 173.217 176.307 173.254 175.934 173.329C175.571 173.393 175.299 173.462 175.118 173.537L174.942 172.305C175.134 172.22 175.454 172.14 175.902 172.065C176.35 171.98 176.835 171.937 177.358 171.937ZM188.245 179.633C188.117 179.718 187.866 179.83 187.493 179.969C187.13 180.097 186.704 180.161 186.213 180.161C185.712 180.161 185.237 180.081 184.789 179.921C184.352 179.761 183.968 179.516 183.637 179.185C183.306 178.844 183.045 178.422 182.853 177.921C182.661 177.42 182.565 176.822 182.565 176.129C182.565 175.521 182.656 174.966 182.837 174.465C183.018 173.953 183.28 173.516 183.621 173.153C183.973 172.78 184.4 172.492 184.901 172.289C185.402 172.076 185.968 171.969 186.597 171.969C187.29 171.969 187.893 172.022 188.405 172.129C188.928 172.225 189.365 172.316 189.717 172.401V179.825C189.717 181.105 189.386 182.033 188.725 182.609C188.064 183.185 187.061 183.473 185.717 183.473C185.194 183.473 184.698 183.43 184.229 183.345C183.77 183.26 183.37 183.158 183.029 183.041L183.301 181.745C183.6 181.862 183.962 181.964 184.389 182.049C184.826 182.145 185.28 182.193 185.749 182.193C186.634 182.193 187.269 182.017 187.653 181.665C188.048 181.313 188.245 180.753 188.245 179.985V179.633ZM188.229 173.457C188.08 173.414 187.877 173.377 187.621 173.345C187.376 173.302 187.04 173.281 186.613 173.281C185.813 173.281 185.194 173.542 184.757 174.065C184.33 174.588 184.117 175.281 184.117 176.145C184.117 176.625 184.176 177.036 184.293 177.377C184.421 177.718 184.586 178.001 184.789 178.225C185.002 178.449 185.242 178.614 185.509 178.721C185.786 178.828 186.069 178.881 186.357 178.881C186.752 178.881 187.114 178.828 187.445 178.721C187.776 178.604 188.037 178.47 188.229 178.321V173.457ZM191.815 176.321C191.815 175.585 191.922 174.945 192.135 174.401C192.348 173.846 192.631 173.388 192.983 173.025C193.335 172.662 193.74 172.39 194.199 172.209C194.658 172.028 195.127 171.937 195.607 171.937C196.727 171.937 197.586 172.289 198.183 172.993C198.78 173.686 199.079 174.748 199.079 176.177C199.079 176.241 199.079 176.326 199.079 176.433C199.079 176.529 199.074 176.62 199.063 176.705H193.367C193.431 177.569 193.682 178.225 194.119 178.673C194.556 179.121 195.239 179.345 196.167 179.345C196.69 179.345 197.127 179.302 197.479 179.217C197.842 179.121 198.114 179.03 198.295 178.945L198.503 180.193C198.322 180.289 198.002 180.39 197.543 180.497C197.095 180.604 196.583 180.657 196.007 180.657C195.282 180.657 194.652 180.55 194.119 180.337C193.596 180.113 193.164 179.809 192.823 179.425C192.482 179.041 192.226 178.588 192.055 178.065C191.895 177.532 191.815 176.95 191.815 176.321ZM197.527 175.505C197.538 174.833 197.367 174.284 197.015 173.857C196.674 173.42 196.199 173.201 195.591 173.201C195.25 173.201 194.946 173.27 194.679 173.409C194.423 173.537 194.204 173.708 194.023 173.921C193.842 174.134 193.698 174.38 193.591 174.657C193.495 174.934 193.431 175.217 193.399 175.505H197.527Z" fill="#404A53"/>
<g clip-path="url(#clip1)">
<path d="M40.6653 209.278C35.5663 209.278 31.4185 213.422 31.4185 218.517C31.4185 223.612 35.5663 227.757 40.6653 227.757C45.7644 227.757 49.9122 223.612 49.9122 218.517C49.9122 213.423 45.7644 209.278 40.6653 209.278ZM40.6653 226.325C36.357 226.325 32.851 222.823 32.851 218.517C32.851 214.212 36.357 210.709 40.6653 210.709C44.9743 210.709 48.4797 214.212 48.4797 218.517C48.4797 222.823 44.9736 226.325 40.6653 226.325Z" fill="#5FB2F5"/>
<path d="M44.9075 215.304C44.616 215.04 44.1626 215.06 43.8962 215.353L39.527 220.16L37.4161 218.016C37.1375 217.734 36.6848 217.73 36.4033 218.008C36.1211 218.285 36.1168 218.738 36.3947 219.02L39.037 221.704C39.1724 221.841 39.3557 221.917 39.5477 221.917C39.552 221.917 39.557 221.917 39.5613 221.918C39.759 221.914 39.9452 221.829 40.0777 221.683L44.9562 216.316C45.2219 216.022 45.2004 215.57 44.9075 215.304Z" fill="#5FB2F5"/>
</g>
<path d="M61.4739 219.726C61.4739 218.776 61.6126 217.939 61.8899 217.214C62.1779 216.488 62.5619 215.886 63.0419 215.406C63.5326 214.915 64.0979 214.547 64.7379 214.302C65.3886 214.056 66.0766 213.934 66.8019 213.934C67.5166 213.934 68.1886 214.056 68.8179 214.302C69.4579 214.547 70.0179 214.915 70.4979 215.406C70.9779 215.886 71.3566 216.488 71.6339 217.214C71.9219 217.939 72.0659 218.776 72.0659 219.726C72.0659 220.675 71.9219 221.512 71.6339 222.238C71.3566 222.963 70.9779 223.571 70.4979 224.062C70.0179 224.542 69.4579 224.904 68.8179 225.15C68.1886 225.395 67.5166 225.518 66.8019 225.518C66.0766 225.518 65.3886 225.395 64.7379 225.15C64.0979 224.904 63.5326 224.542 63.0419 224.062C62.5619 223.571 62.1779 222.963 61.8899 222.238C61.6126 221.512 61.4739 220.675 61.4739 219.726ZM63.1059 219.726C63.1059 220.398 63.1912 221.011 63.3619 221.566C63.5326 222.11 63.7726 222.574 64.0819 222.958C64.4019 223.342 64.7859 223.64 65.2339 223.854C65.6926 224.056 66.2046 224.158 66.7699 224.158C67.3352 224.158 67.8419 224.056 68.2899 223.854C68.7379 223.64 69.1166 223.342 69.4259 222.958C69.7459 222.574 69.9912 222.11 70.1619 221.566C70.3326 221.011 70.4179 220.398 70.4179 219.726C70.4179 219.054 70.3326 218.446 70.1619 217.902C69.9912 217.347 69.7459 216.878 69.4259 216.494C69.1166 216.11 68.7379 215.816 68.2899 215.614C67.8419 215.4 67.3352 215.294 66.7699 215.294C66.2046 215.294 65.6926 215.4 65.2339 215.614C64.7859 215.816 64.4019 216.11 64.0819 216.494C63.7726 216.878 63.5326 217.347 63.3619 217.902C63.1912 218.446 63.1059 219.054 63.1059 219.726ZM74.279 217.198C74.6204 217.112 75.0737 217.022 75.639 216.926C76.2044 216.83 76.855 216.782 77.591 216.782C78.2524 216.782 78.8017 216.878 79.239 217.07C79.6764 217.251 80.023 217.512 80.279 217.854C80.5457 218.184 80.7324 218.584 80.839 219.054C80.9457 219.523 80.999 220.04 80.999 220.606V225.278H79.511V220.926C79.511 220.414 79.4737 219.976 79.399 219.614C79.335 219.251 79.223 218.958 79.063 218.734C78.903 218.51 78.6897 218.35 78.423 218.254C78.1564 218.147 77.8257 218.094 77.431 218.094C77.271 218.094 77.1057 218.099 76.935 218.11C76.7644 218.12 76.599 218.136 76.439 218.158C76.2897 218.168 76.151 218.184 76.023 218.206C75.9057 218.227 75.8204 218.243 75.767 218.254V225.278H74.279V217.198ZM85.9625 225.438C85.0452 225.416 84.3945 225.219 84.0105 224.846C83.6265 224.472 83.4345 223.891 83.4345 223.102V213.118L84.9225 212.862V222.862C84.9225 223.107 84.9439 223.31 84.9865 223.47C85.0292 223.63 85.0985 223.758 85.1945 223.854C85.2905 223.95 85.4185 224.024 85.5785 224.078C85.7385 224.12 85.9359 224.158 86.1705 224.19L85.9625 225.438ZM89.3295 225.278H87.8415V216.958H89.3295V225.278ZM88.5775 215.454C88.3109 215.454 88.0815 215.368 87.8895 215.198C87.7082 215.016 87.6175 214.776 87.6175 214.478C87.6175 214.179 87.7082 213.944 87.8895 213.774C88.0815 213.592 88.3109 213.502 88.5775 213.502C88.8442 213.502 89.0682 213.592 89.2495 213.774C89.4415 213.944 89.5375 214.179 89.5375 214.478C89.5375 214.776 89.4415 215.016 89.2495 215.198C89.0682 215.368 88.8442 215.454 88.5775 215.454ZM91.8884 217.198C92.2297 217.112 92.6831 217.022 93.2484 216.926C93.8137 216.83 94.4644 216.782 95.2004 216.782C95.8617 216.782 96.4111 216.878 96.8484 217.07C97.2857 217.251 97.6324 217.512 97.8884 217.854C98.1551 218.184 98.3417 218.584 98.4484 219.054C98.5551 219.523 98.6084 220.04 98.6084 220.606V225.278H97.1204V220.926C97.1204 220.414 97.0831 219.976 97.0084 219.614C96.9444 219.251 96.8324 218.958 96.6724 218.734C96.5124 218.51 96.2991 218.35 96.0324 218.254C95.7657 218.147 95.4351 218.094 95.0404 218.094C94.8804 218.094 94.7151 218.099 94.5444 218.11C94.3737 218.12 94.2084 218.136 94.0484 218.158C93.8991 218.168 93.7604 218.184 93.6324 218.206C93.5151 218.227 93.4297 218.243 93.3764 218.254V225.278H91.8884V217.198ZM100.612 221.134C100.612 220.398 100.719 219.758 100.932 219.214C101.145 218.659 101.428 218.2 101.78 217.838C102.132 217.475 102.537 217.203 102.996 217.022C103.455 216.84 103.924 216.75 104.404 216.75C105.524 216.75 106.383 217.102 106.98 217.806C107.577 218.499 107.876 219.56 107.876 220.99C107.876 221.054 107.876 221.139 107.876 221.246C107.876 221.342 107.871 221.432 107.86 221.518H102.164C102.228 222.382 102.479 223.038 102.916 223.486C103.353 223.934 104.036 224.158 104.964 224.158C105.487 224.158 105.924 224.115 106.276 224.03C106.639 223.934 106.911 223.843 107.092 223.758L107.3 225.006C107.119 225.102 106.799 225.203 106.34 225.31C105.892 225.416 105.38 225.47 104.804 225.47C104.079 225.47 103.449 225.363 102.916 225.15C102.393 224.926 101.961 224.622 101.62 224.238C101.279 223.854 101.023 223.4 100.852 222.878C100.692 222.344 100.612 221.763 100.612 221.134ZM106.324 220.318C106.335 219.646 106.164 219.096 105.812 218.67C105.471 218.232 104.996 218.014 104.388 218.014C104.047 218.014 103.743 218.083 103.476 218.222C103.22 218.35 103.001 218.52 102.82 218.734C102.639 218.947 102.495 219.192 102.388 219.47C102.292 219.747 102.228 220.03 102.196 220.318H106.324ZM116.533 224.206C116.885 224.206 117.194 224.2 117.461 224.19C117.738 224.168 117.967 224.136 118.149 224.094V221.614C118.042 221.56 117.866 221.518 117.621 221.486C117.386 221.443 117.098 221.422 116.757 221.422C116.533 221.422 116.293 221.438 116.037 221.47C115.791 221.502 115.562 221.571 115.349 221.678C115.146 221.774 114.975 221.912 114.837 222.094C114.698 222.264 114.629 222.494 114.629 222.782C114.629 223.315 114.799 223.688 115.141 223.902C115.482 224.104 115.946 224.206 116.533 224.206ZM116.405 216.75C117.002 216.75 117.503 216.83 117.909 216.99C118.325 217.139 118.655 217.358 118.901 217.646C119.157 217.923 119.338 218.259 119.445 218.654C119.551 219.038 119.605 219.464 119.605 219.934V225.134C119.477 225.155 119.295 225.187 119.061 225.23C118.837 225.262 118.581 225.294 118.293 225.326C118.005 225.358 117.69 225.384 117.349 225.406C117.018 225.438 116.687 225.454 116.357 225.454C115.887 225.454 115.455 225.406 115.061 225.31C114.666 225.214 114.325 225.064 114.037 224.862C113.749 224.648 113.525 224.371 113.365 224.03C113.205 223.688 113.125 223.278 113.125 222.798C113.125 222.339 113.215 221.944 113.397 221.614C113.589 221.283 113.845 221.016 114.165 220.814C114.485 220.611 114.858 220.462 115.285 220.366C115.711 220.27 116.159 220.222 116.629 220.222C116.778 220.222 116.933 220.232 117.093 220.254C117.253 220.264 117.402 220.286 117.541 220.318C117.69 220.339 117.818 220.36 117.925 220.382C118.031 220.403 118.106 220.419 118.149 220.43V220.014C118.149 219.768 118.122 219.528 118.069 219.294C118.015 219.048 117.919 218.835 117.781 218.654C117.642 218.462 117.45 218.312 117.205 218.206C116.97 218.088 116.661 218.03 116.277 218.03C115.786 218.03 115.354 218.067 114.981 218.142C114.618 218.206 114.346 218.275 114.165 218.35L113.989 217.118C114.181 217.032 114.501 216.952 114.949 216.878C115.397 216.792 115.882 216.75 116.405 216.75ZM122.076 217.198C122.417 217.112 122.871 217.022 123.436 216.926C124.001 216.83 124.652 216.782 125.388 216.782C126.049 216.782 126.599 216.878 127.036 217.07C127.473 217.251 127.82 217.512 128.076 217.854C128.343 218.184 128.529 218.584 128.636 219.054C128.743 219.523 128.796 220.04 128.796 220.606V225.278H127.308V220.926C127.308 220.414 127.271 219.976 127.196 219.614C127.132 219.251 127.02 218.958 126.86 218.734C126.7 218.51 126.487 218.35 126.22 218.254C125.953 218.147 125.623 218.094 125.228 218.094C125.068 218.094 124.903 218.099 124.732 218.11C124.561 218.12 124.396 218.136 124.236 218.158C124.087 218.168 123.948 218.184 123.82 218.206C123.703 218.227 123.617 218.243 123.564 218.254V225.278H122.076V217.198ZM136.639 218.718C136.458 218.568 136.197 218.424 135.855 218.286C135.514 218.147 135.141 218.078 134.735 218.078C134.309 218.078 133.941 218.158 133.631 218.318C133.333 218.467 133.087 218.68 132.895 218.958C132.703 219.224 132.565 219.544 132.479 219.918C132.394 220.291 132.351 220.691 132.351 221.118C132.351 222.088 132.591 222.84 133.071 223.374C133.551 223.896 134.191 224.158 134.991 224.158C135.397 224.158 135.733 224.142 135.999 224.11C136.277 224.067 136.49 224.024 136.639 223.982V218.718ZM136.639 213.118L138.127 212.862V225.038C137.786 225.134 137.349 225.23 136.815 225.326C136.282 225.422 135.669 225.47 134.975 225.47C134.335 225.47 133.759 225.368 133.247 225.166C132.735 224.963 132.298 224.675 131.935 224.302C131.573 223.928 131.29 223.475 131.087 222.942C130.895 222.398 130.799 221.79 130.799 221.118C130.799 220.478 130.879 219.891 131.039 219.358C131.21 218.824 131.455 218.366 131.775 217.982C132.095 217.598 132.485 217.299 132.943 217.086C133.413 216.872 133.946 216.766 134.543 216.766C135.023 216.766 135.445 216.83 135.807 216.958C136.181 217.086 136.458 217.208 136.639 217.326V213.118ZM151.732 221.118C151.732 221.779 151.636 222.376 151.444 222.91C151.252 223.443 150.98 223.902 150.628 224.286C150.287 224.67 149.876 224.968 149.396 225.182C148.916 225.384 148.394 225.486 147.828 225.486C147.263 225.486 146.74 225.384 146.26 225.182C145.78 224.968 145.364 224.67 145.012 224.286C144.671 223.902 144.404 223.443 144.212 222.91C144.02 222.376 143.924 221.779 143.924 221.118C143.924 220.467 144.02 219.875 144.212 219.342C144.404 218.798 144.671 218.334 145.012 217.95C145.364 217.566 145.78 217.272 146.26 217.07C146.74 216.856 147.263 216.75 147.828 216.75C148.394 216.75 148.916 216.856 149.396 217.07C149.876 217.272 150.287 217.566 150.628 217.95C150.98 218.334 151.252 218.798 151.444 219.342C151.636 219.875 151.732 220.467 151.732 221.118ZM150.18 221.118C150.18 220.179 149.967 219.438 149.54 218.894C149.124 218.339 148.554 218.062 147.828 218.062C147.103 218.062 146.527 218.339 146.1 218.894C145.684 219.438 145.476 220.179 145.476 221.118C145.476 222.056 145.684 222.803 146.1 223.358C146.527 223.902 147.103 224.174 147.828 224.174C148.554 224.174 149.124 223.902 149.54 223.358C149.967 222.803 150.18 222.056 150.18 221.118ZM157.074 212.862C157.511 212.862 157.885 212.894 158.194 212.958C158.514 213.022 158.738 213.08 158.866 213.134L158.594 214.414C158.466 214.35 158.285 214.291 158.05 214.238C157.815 214.174 157.527 214.142 157.186 214.142C156.493 214.142 156.007 214.334 155.73 214.718C155.453 215.091 155.314 215.598 155.314 216.238V216.958H158.514V218.206H155.314V225.278H153.826V216.206C153.826 215.139 154.087 214.318 154.61 213.742C155.133 213.155 155.954 212.862 157.074 212.862ZM163.314 212.862C163.687 212.862 164.007 212.888 164.274 212.942C164.541 212.984 164.733 213.027 164.85 213.07L164.642 214.35C164.525 214.307 164.365 214.264 164.162 214.222C163.959 214.168 163.714 214.142 163.426 214.142C162.733 214.142 162.247 214.334 161.97 214.718C161.693 215.091 161.554 215.598 161.554 216.238V216.958H164.754V218.206H161.554V225.278H160.066V216.206C160.066 215.139 160.327 214.318 160.85 213.742C161.373 213.155 162.194 212.862 163.314 212.862ZM168.802 225.438C167.885 225.416 167.234 225.219 166.85 224.846C166.466 224.472 166.274 223.891 166.274 223.102V213.118L167.762 212.862V222.862C167.762 223.107 167.783 223.31 167.826 223.47C167.869 223.63 167.938 223.758 168.034 223.854C168.13 223.95 168.258 224.024 168.418 224.078C168.578 224.12 168.775 224.158 169.01 224.19L168.802 225.438ZM172.158 225.278H170.67V216.958H172.158V225.278ZM171.406 215.454C171.139 215.454 170.91 215.368 170.718 215.198C170.536 215.016 170.446 214.776 170.446 214.478C170.446 214.179 170.536 213.944 170.718 213.774C170.91 213.592 171.139 213.502 171.406 213.502C171.672 213.502 171.896 213.592 172.078 213.774C172.27 213.944 172.366 214.179 172.366 214.478C172.366 214.776 172.27 215.016 172.078 215.198C171.896 215.368 171.672 215.454 171.406 215.454ZM174.717 217.198C175.058 217.112 175.511 217.022 176.077 216.926C176.642 216.83 177.293 216.782 178.029 216.782C178.69 216.782 179.239 216.878 179.677 217.07C180.114 217.251 180.461 217.512 180.717 217.854C180.983 218.184 181.17 218.584 181.277 219.054C181.383 219.523 181.437 220.04 181.437 220.606V225.278H179.949V220.926C179.949 220.414 179.911 219.976 179.837 219.614C179.773 219.251 179.661 218.958 179.501 218.734C179.341 218.51 179.127 218.35 178.861 218.254C178.594 218.147 178.263 218.094 177.869 218.094C177.709 218.094 177.543 218.099 177.373 218.11C177.202 218.12 177.037 218.136 176.877 218.158C176.727 218.168 176.589 218.184 176.461 218.206C176.343 218.227 176.258 218.243 176.205 218.254V225.278H174.717V217.198ZM183.44 221.134C183.44 220.398 183.547 219.758 183.76 219.214C183.973 218.659 184.256 218.2 184.608 217.838C184.96 217.475 185.365 217.203 185.824 217.022C186.283 216.84 186.752 216.75 187.232 216.75C188.352 216.75 189.211 217.102 189.808 217.806C190.405 218.499 190.704 219.56 190.704 220.99C190.704 221.054 190.704 221.139 190.704 221.246C190.704 221.342 190.699 221.432 190.688 221.518H184.992C185.056 222.382 185.307 223.038 185.744 223.486C186.181 223.934 186.864 224.158 187.792 224.158C188.315 224.158 188.752 224.115 189.104 224.03C189.467 223.934 189.739 223.843 189.92 223.758L190.128 225.006C189.947 225.102 189.627 225.203 189.168 225.31C188.72 225.416 188.208 225.47 187.632 225.47C186.907 225.47 186.277 225.363 185.744 225.15C185.221 224.926 184.789 224.622 184.448 224.238C184.107 223.854 183.851 223.4 183.68 222.878C183.52 222.344 183.44 221.763 183.44 221.134ZM189.152 220.318C189.163 219.646 188.992 219.096 188.64 218.67C188.299 218.232 187.824 218.014 187.216 218.014C186.875 218.014 186.571 218.083 186.304 218.222C186.048 218.35 185.829 218.52 185.648 218.734C185.467 218.947 185.323 219.192 185.216 219.47C185.12 219.747 185.056 220.03 185.024 220.318H189.152Z" fill="#404A53"/>
<g clip-path="url(#clip2)">
<path d="M40.6653 254.09C35.5663 254.09 31.4185 258.234 31.4185 263.329C31.4185 268.424 35.5663 272.569 40.6653 272.569C45.7644 272.569 49.9122 268.424 49.9122 263.329C49.9122 258.235 45.7644 254.09 40.6653 254.09ZM40.6653 271.137C36.357 271.137 32.851 267.635 32.851 263.329C32.851 259.024 36.357 255.521 40.6653 255.521C44.9743 255.521 48.4797 259.024 48.4797 263.329C48.4797 267.635 44.9736 271.137 40.6653 271.137Z" fill="#5FB2F5"/>
<path d="M44.9075 260.116C44.616 259.852 44.1626 259.872 43.8962 260.165L39.527 264.972L37.4161 262.828C37.1375 262.546 36.6848 262.542 36.4033 262.82C36.1211 263.097 36.1168 263.55 36.3947 263.832L39.037 266.516C39.1724 266.653 39.3557 266.73 39.5477 266.73C39.552 266.73 39.557 266.73 39.5613 266.73C39.759 266.726 39.9452 266.641 40.0777 266.495L44.9562 261.128C45.2219 260.834 45.2004 260.382 44.9075 260.116Z" fill="#5FB2F5"/>
</g>
<path d="M66.0499 268.944C65.3246 268.944 64.6952 268.832 64.1619 268.608C63.6286 268.384 63.1912 268.08 62.8499 267.696C62.5086 267.301 62.2526 266.837 62.0819 266.304C61.9219 265.77 61.8419 265.194 61.8419 264.576V257.616H63.3939V264.4C63.3939 265.509 63.6392 266.314 64.1299 266.816C64.6206 267.317 65.2606 267.568 66.0499 267.568C66.4446 267.568 66.8019 267.509 67.1219 267.392C67.4526 267.264 67.7352 267.072 67.9699 266.816C68.2046 266.56 68.3859 266.234 68.5139 265.84C68.6419 265.434 68.7059 264.954 68.7059 264.4V257.616H70.2579V264.576C70.2579 265.194 70.1726 265.77 70.0019 266.304C69.8419 266.837 69.5859 267.301 69.2339 267.696C68.8926 268.08 68.4552 268.384 67.9219 268.608C67.3992 268.832 66.7752 268.944 66.0499 268.944ZM72.8415 260.624C73.1829 260.538 73.6362 260.448 74.2015 260.352C74.7669 260.256 75.4175 260.208 76.1535 260.208C76.8149 260.208 77.3642 260.304 77.8015 260.496C78.2389 260.677 78.5855 260.938 78.8415 261.28C79.1082 261.61 79.2949 262.01 79.4015 262.48C79.5082 262.949 79.5615 263.466 79.5615 264.032V268.704H78.0735V264.352C78.0735 263.84 78.0362 263.402 77.9615 263.04C77.8975 262.677 77.7855 262.384 77.6255 262.16C77.4655 261.936 77.2522 261.776 76.9855 261.68C76.7189 261.573 76.3882 261.52 75.9935 261.52C75.8335 261.52 75.6682 261.525 75.4975 261.536C75.3269 261.546 75.1615 261.562 75.0015 261.584C74.8522 261.594 74.7135 261.61 74.5855 261.632C74.4682 261.653 74.3829 261.669 74.3295 261.68V268.704H72.8415V260.624ZM84.525 268.864C83.6077 268.842 82.957 268.645 82.573 268.272C82.189 267.898 81.997 267.317 81.997 266.528V256.544L83.485 256.288V266.288C83.485 266.533 83.5064 266.736 83.549 266.896C83.5917 267.056 83.661 267.184 83.757 267.28C83.853 267.376 83.981 267.45 84.141 267.504C84.301 267.546 84.4984 267.584 84.733 267.616L84.525 268.864ZM87.892 268.704H86.404V260.384H87.892V268.704ZM87.14 258.88C86.8734 258.88 86.644 258.794 86.452 258.624C86.2707 258.442 86.18 258.202 86.18 257.904C86.18 257.605 86.2707 257.37 86.452 257.2C86.644 257.018 86.8734 256.928 87.14 256.928C87.4067 256.928 87.6307 257.018 87.812 257.2C88.004 257.37 88.1 257.605 88.1 257.904C88.1 258.202 88.004 258.442 87.812 258.624C87.6307 258.794 87.4067 258.88 87.14 258.88ZM90.4509 260.624C90.7922 260.538 91.2402 260.448 91.7949 260.352C92.3602 260.256 93.0109 260.208 93.7469 260.208C94.2802 260.208 94.7282 260.282 95.0909 260.432C95.4536 260.57 95.7576 260.778 96.0029 261.056C96.0776 261.002 96.1949 260.928 96.3549 260.832C96.5149 260.736 96.7122 260.645 96.9469 260.56C97.1816 260.464 97.4429 260.384 97.7309 260.32C98.0189 260.245 98.3282 260.208 98.6589 260.208C99.2989 260.208 99.8216 260.304 100.227 260.496C100.632 260.677 100.947 260.938 101.171 261.28C101.406 261.621 101.56 262.026 101.635 262.496C101.72 262.965 101.763 263.477 101.763 264.032V268.704H100.275V264.352C100.275 263.861 100.248 263.44 100.195 263.088C100.152 262.736 100.062 262.442 99.9229 262.208C99.7949 261.973 99.6136 261.802 99.3789 261.696C99.1549 261.578 98.8616 261.52 98.4989 261.52C97.9976 261.52 97.5816 261.589 97.2509 261.728C96.9309 261.856 96.7122 261.973 96.5949 262.08C96.6802 262.357 96.7442 262.661 96.7869 262.992C96.8296 263.322 96.8509 263.669 96.8509 264.032V268.704H95.3629V264.352C95.3629 263.861 95.3362 263.44 95.2829 263.088C95.2296 262.736 95.1336 262.442 94.9949 262.208C94.8669 261.973 94.6856 261.802 94.4509 261.696C94.2269 261.578 93.9389 261.52 93.5869 261.52C93.4376 261.52 93.2776 261.525 93.1069 261.536C92.9362 261.546 92.7709 261.562 92.6109 261.584C92.4616 261.594 92.3229 261.61 92.1949 261.632C92.0669 261.653 91.9816 261.669 91.9389 261.68V268.704H90.4509V260.624ZM105.72 268.704H104.232V260.384H105.72V268.704ZM104.968 258.88C104.701 258.88 104.472 258.794 104.28 258.624C104.099 258.442 104.008 258.202 104.008 257.904C104.008 257.605 104.099 257.37 104.28 257.2C104.472 257.018 104.701 256.928 104.968 256.928C105.235 256.928 105.459 257.018 105.64 257.2C105.832 257.37 105.928 257.605 105.928 257.904C105.928 258.202 105.832 258.442 105.64 258.624C105.459 258.794 105.235 258.88 104.968 258.88ZM109.671 260.384H112.823V261.632H109.671V265.472C109.671 265.888 109.703 266.234 109.767 266.512C109.831 266.778 109.927 266.992 110.055 267.152C110.183 267.301 110.343 267.408 110.535 267.472C110.727 267.536 110.951 267.568 111.207 267.568C111.655 267.568 112.012 267.52 112.279 267.424C112.556 267.317 112.748 267.242 112.855 267.2L113.143 268.432C112.994 268.506 112.732 268.597 112.359 268.704C111.986 268.821 111.559 268.88 111.079 268.88C110.514 268.88 110.044 268.81 109.671 268.672C109.308 268.522 109.015 268.304 108.791 268.016C108.567 267.728 108.407 267.376 108.311 266.96C108.226 266.533 108.183 266.042 108.183 265.488V258.064L109.671 257.808V260.384ZM114.096 264.56C114.096 263.824 114.203 263.184 114.416 262.64C114.63 262.085 114.912 261.626 115.264 261.264C115.616 260.901 116.022 260.629 116.48 260.448C116.939 260.266 117.408 260.176 117.888 260.176C119.008 260.176 119.867 260.528 120.464 261.232C121.062 261.925 121.36 262.986 121.36 264.416C121.36 264.48 121.36 264.565 121.36 264.672C121.36 264.768 121.355 264.858 121.344 264.944H115.648C115.712 265.808 115.963 266.464 116.4 266.912C116.838 267.36 117.52 267.584 118.448 267.584C118.971 267.584 119.408 267.541 119.76 267.456C120.123 267.36 120.395 267.269 120.576 267.184L120.784 268.432C120.603 268.528 120.283 268.629 119.824 268.736C119.376 268.842 118.864 268.896 118.288 268.896C117.563 268.896 116.934 268.789 116.4 268.576C115.878 268.352 115.446 268.048 115.104 267.664C114.763 267.28 114.507 266.826 114.336 266.304C114.176 265.77 114.096 265.189 114.096 264.56ZM119.808 263.744C119.819 263.072 119.648 262.522 119.296 262.096C118.955 261.658 118.48 261.44 117.872 261.44C117.531 261.44 117.227 261.509 116.96 261.648C116.704 261.776 116.486 261.946 116.304 262.16C116.123 262.373 115.979 262.618 115.872 262.896C115.776 263.173 115.712 263.456 115.68 263.744H119.808ZM128.874 262.144C128.692 261.994 128.431 261.85 128.09 261.712C127.748 261.573 127.375 261.504 126.97 261.504C126.543 261.504 126.175 261.584 125.866 261.744C125.567 261.893 125.322 262.106 125.13 262.384C124.938 262.65 124.799 262.97 124.714 263.344C124.628 263.717 124.586 264.117 124.586 264.544C124.586 265.514 124.826 266.266 125.306 266.8C125.786 267.322 126.426 267.584 127.226 267.584C127.631 267.584 127.967 267.568 128.234 267.536C128.511 267.493 128.724 267.45 128.874 267.408V262.144ZM128.874 256.544L130.362 256.288V268.464C130.02 268.56 129.583 268.656 129.05 268.752C128.516 268.848 127.903 268.896 127.21 268.896C126.57 268.896 125.994 268.794 125.482 268.592C124.97 268.389 124.532 268.101 124.17 267.728C123.807 267.354 123.524 266.901 123.322 266.368C123.13 265.824 123.034 265.216 123.034 264.544C123.034 263.904 123.114 263.317 123.274 262.784C123.444 262.25 123.69 261.792 124.01 261.408C124.33 261.024 124.719 260.725 125.178 260.512C125.647 260.298 126.18 260.192 126.778 260.192C127.258 260.192 127.679 260.256 128.042 260.384C128.415 260.512 128.692 260.634 128.874 260.752V256.544ZM138.559 267.632C139.167 267.632 139.615 267.552 139.903 267.392C140.201 267.232 140.351 266.976 140.351 266.624C140.351 266.261 140.207 265.973 139.919 265.76C139.631 265.546 139.156 265.306 138.495 265.04C138.175 264.912 137.865 264.784 137.567 264.656C137.279 264.517 137.028 264.357 136.815 264.176C136.601 263.994 136.431 263.776 136.303 263.52C136.175 263.264 136.111 262.949 136.111 262.576C136.111 261.84 136.383 261.258 136.927 260.832C137.471 260.394 138.212 260.176 139.151 260.176C139.385 260.176 139.62 260.192 139.855 260.224C140.089 260.245 140.308 260.277 140.511 260.32C140.713 260.352 140.889 260.389 141.039 260.432C141.199 260.474 141.321 260.512 141.407 260.544L141.135 261.824C140.975 261.738 140.724 261.653 140.383 261.568C140.041 261.472 139.631 261.424 139.151 261.424C138.735 261.424 138.372 261.509 138.063 261.68C137.753 261.84 137.599 262.096 137.599 262.448C137.599 262.629 137.631 262.789 137.695 262.928C137.769 263.066 137.876 263.194 138.015 263.312C138.164 263.418 138.345 263.52 138.559 263.616C138.772 263.712 139.028 263.813 139.327 263.92C139.721 264.069 140.073 264.218 140.383 264.368C140.692 264.506 140.953 264.672 141.167 264.864C141.391 265.056 141.561 265.29 141.679 265.568C141.796 265.834 141.855 266.165 141.855 266.56C141.855 267.328 141.567 267.909 140.991 268.304C140.425 268.698 139.615 268.896 138.559 268.896C137.823 268.896 137.247 268.832 136.831 268.704C136.415 268.586 136.132 268.496 135.983 268.432L136.255 267.152C136.425 267.216 136.697 267.312 137.071 267.44C137.444 267.568 137.94 267.632 138.559 267.632ZM143.299 264.56C143.299 263.824 143.406 263.184 143.619 262.64C143.833 262.085 144.115 261.626 144.467 261.264C144.819 260.901 145.225 260.629 145.683 260.448C146.142 260.266 146.611 260.176 147.091 260.176C148.211 260.176 149.07 260.528 149.667 261.232C150.265 261.925 150.563 262.986 150.563 264.416C150.563 264.48 150.563 264.565 150.563 264.672C150.563 264.768 150.558 264.858 150.547 264.944H144.851C144.915 265.808 145.166 266.464 145.603 266.912C146.041 267.36 146.723 267.584 147.651 267.584C148.174 267.584 148.611 267.541 148.963 267.456C149.326 267.36 149.598 267.269 149.779 267.184L149.987 268.432C149.806 268.528 149.486 268.629 149.027 268.736C148.579 268.842 148.067 268.896 147.491 268.896C146.766 268.896 146.137 268.789 145.603 268.576C145.081 268.352 144.649 268.048 144.307 267.664C143.966 267.28 143.71 266.826 143.539 266.304C143.379 265.77 143.299 265.189 143.299 264.56ZM149.011 263.744C149.022 263.072 148.851 262.522 148.499 262.096C148.158 261.658 147.683 261.44 147.075 261.44C146.734 261.44 146.43 261.509 146.163 261.648C145.907 261.776 145.689 261.946 145.507 262.16C145.326 262.373 145.182 262.618 145.075 262.896C144.979 263.173 144.915 263.456 144.883 263.744H149.011ZM156.317 268.896C155.645 268.896 155.053 268.789 154.541 268.576C154.04 268.362 153.613 268.064 153.261 267.68C152.92 267.296 152.664 266.842 152.493 266.32C152.322 265.786 152.237 265.2 152.237 264.56C152.237 263.92 152.328 263.333 152.509 262.8C152.701 262.266 152.968 261.808 153.309 261.424C153.65 261.029 154.066 260.725 154.557 260.512C155.058 260.288 155.613 260.176 156.221 260.176C156.594 260.176 156.968 260.208 157.341 260.272C157.714 260.336 158.072 260.437 158.413 260.576L158.077 261.84C157.853 261.733 157.592 261.648 157.293 261.584C157.005 261.52 156.696 261.488 156.365 261.488C155.533 261.488 154.893 261.749 154.445 262.272C154.008 262.794 153.789 263.557 153.789 264.56C153.789 265.008 153.837 265.418 153.933 265.792C154.04 266.165 154.2 266.485 154.413 266.752C154.637 267.018 154.92 267.226 155.261 267.376C155.602 267.514 156.018 267.584 156.509 267.584C156.904 267.584 157.261 267.546 157.581 267.472C157.901 267.397 158.152 267.317 158.333 267.232L158.541 268.48C158.456 268.533 158.333 268.586 158.173 268.64C158.013 268.682 157.832 268.72 157.629 268.752C157.426 268.794 157.208 268.826 156.973 268.848C156.749 268.88 156.53 268.896 156.317 268.896ZM161.53 260.384H164.682V261.632H161.53V265.472C161.53 265.888 161.562 266.234 161.626 266.512C161.69 266.778 161.786 266.992 161.914 267.152C162.042 267.301 162.202 267.408 162.394 267.472C162.586 267.536 162.81 267.568 163.066 267.568C163.514 267.568 163.872 267.52 164.138 267.424C164.416 267.317 164.608 267.242 164.714 267.2L165.002 268.432C164.853 268.506 164.592 268.597 164.218 268.704C163.845 268.821 163.418 268.88 162.938 268.88C162.373 268.88 161.904 268.81 161.53 268.672C161.168 268.522 160.874 268.304 160.65 268.016C160.426 267.728 160.266 267.376 160.17 266.96C160.085 266.533 160.042 266.042 160.042 265.488V258.064L161.53 257.808V260.384ZM168.064 268.704H166.576V260.384H168.064V268.704ZM167.312 258.88C167.045 258.88 166.816 258.794 166.624 258.624C166.443 258.442 166.352 258.202 166.352 257.904C166.352 257.605 166.443 257.37 166.624 257.2C166.816 257.018 167.045 256.928 167.312 256.928C167.579 256.928 167.803 257.018 167.984 257.2C168.176 257.37 168.272 257.605 168.272 257.904C168.272 258.202 168.176 258.442 167.984 258.624C167.803 258.794 167.579 258.88 167.312 258.88ZM177.967 264.544C177.967 265.205 177.871 265.802 177.679 266.336C177.487 266.869 177.215 267.328 176.863 267.712C176.521 268.096 176.111 268.394 175.631 268.608C175.151 268.81 174.628 268.912 174.063 268.912C173.497 268.912 172.975 268.81 172.495 268.608C172.015 268.394 171.599 268.096 171.247 267.712C170.905 267.328 170.639 266.869 170.447 266.336C170.255 265.802 170.159 265.205 170.159 264.544C170.159 263.893 170.255 263.301 170.447 262.768C170.639 262.224 170.905 261.76 171.247 261.376C171.599 260.992 172.015 260.698 172.495 260.496C172.975 260.282 173.497 260.176 174.063 260.176C174.628 260.176 175.151 260.282 175.631 260.496C176.111 260.698 176.521 260.992 176.863 261.376C177.215 261.76 177.487 262.224 177.679 262.768C177.871 263.301 177.967 263.893 177.967 264.544ZM176.415 264.544C176.415 263.605 176.201 262.864 175.775 262.32C175.359 261.765 174.788 261.488 174.063 261.488C173.337 261.488 172.761 261.765 172.335 262.32C171.919 262.864 171.711 263.605 171.711 264.544C171.711 265.482 171.919 266.229 172.335 266.784C172.761 267.328 173.337 267.6 174.063 267.6C174.788 267.6 175.359 267.328 175.775 266.784C176.201 266.229 176.415 265.482 176.415 264.544ZM180.06 260.624C180.402 260.538 180.855 260.448 181.42 260.352C181.986 260.256 182.636 260.208 183.372 260.208C184.034 260.208 184.583 260.304 185.02 260.496C185.458 260.677 185.804 260.938 186.06 261.28C186.327 261.61 186.514 262.01 186.62 262.48C186.727 262.949 186.78 263.466 186.78 264.032V268.704H185.292V264.352C185.292 263.84 185.255 263.402 185.18 263.04C185.116 262.677 185.004 262.384 184.844 262.16C184.684 261.936 184.471 261.776 184.204 261.68C183.938 261.573 183.607 261.52 183.212 261.52C183.052 261.52 182.887 261.525 182.716 261.536C182.546 261.546 182.38 261.562 182.22 261.584C182.071 261.594 181.932 261.61 181.804 261.632C181.687 261.653 181.602 261.669 181.548 261.68V268.704H180.06V260.624ZM191.184 267.632C191.792 267.632 192.24 267.552 192.528 267.392C192.826 267.232 192.976 266.976 192.976 266.624C192.976 266.261 192.832 265.973 192.544 265.76C192.256 265.546 191.781 265.306 191.12 265.04C190.8 264.912 190.49 264.784 190.192 264.656C189.904 264.517 189.653 264.357 189.44 264.176C189.226 263.994 189.056 263.776 188.928 263.52C188.8 263.264 188.736 262.949 188.736 262.576C188.736 261.84 189.008 261.258 189.552 260.832C190.096 260.394 190.837 260.176 191.776 260.176C192.01 260.176 192.245 260.192 192.48 260.224C192.714 260.245 192.933 260.277 193.136 260.32C193.338 260.352 193.514 260.389 193.664 260.432C193.824 260.474 193.946 260.512 194.032 260.544L193.76 261.824C193.6 261.738 193.349 261.653 193.008 261.568C192.666 261.472 192.256 261.424 191.776 261.424C191.36 261.424 190.997 261.509 190.688 261.68C190.378 261.84 190.224 262.096 190.224 262.448C190.224 262.629 190.256 262.789 190.32 262.928C190.394 263.066 190.501 263.194 190.64 263.312C190.789 263.418 190.97 263.52 191.184 263.616C191.397 263.712 191.653 263.813 191.952 263.92C192.346 264.069 192.698 264.218 193.008 264.368C193.317 264.506 193.578 264.672 193.792 264.864C194.016 265.056 194.186 265.29 194.304 265.568C194.421 265.834 194.48 266.165 194.48 266.56C194.48 267.328 194.192 267.909 193.616 268.304C193.05 268.698 192.24 268.896 191.184 268.896C190.448 268.896 189.872 268.832 189.456 268.704C189.04 268.586 188.757 268.496 188.608 268.432L188.88 267.152C189.05 267.216 189.322 267.312 189.696 267.44C190.069 267.568 190.565 267.632 191.184 267.632Z" fill="#404A53"/>
<defs>
<filter id="filter0_d" x="2.74447" y="0" width="238.126" height="144.633" filterUnits="userSpaceOnUse" color-interpolation-filters="sRGB">
<feFlood flood-opacity="0" result="BackgroundImageFix"/>
<feColorMatrix in="SourceAlpha" type="matrix" values="0 0 0 0 0 0 0 0 0 0 0 0 0 0 0 0 0 0 127 0"/>
<feOffset dy="9.25626"/>
<feGaussianBlur stdDeviation="4.62813"/>
<feColorMatrix type="matrix" values="0 0 0 0 0 0 0 0 0 0 0 0 0 0 0 0 0 0 0.25 0"/>
<feBlend mode="normal" in2="BackgroundImageFix" result="effect1_dropShadow"/>
<feBlend mode="normal" in="SourceGraphic" in2="effect1_dropShadow" result="shape"/>
</filter>
<filter id="filter1_d" x="2.74374" y="126.121" width="238.126" height="293.391" filterUnits="userSpaceOnUse" color-interpolation-filters="sRGB">
<feFlood flood-opacity="0" result="BackgroundImageFix"/>
<feColorMatrix in="SourceAlpha" type="matrix" values="0 0 0 0 0 0 0 0 0 0 0 0 0 0 0 0 0 0 127 0"/>
<feOffset dy="9.25626"/>
<feGaussianBlur stdDeviation="4.62813"/>
<feColorMatrix type="matrix" values="0 0 0 0 0 0 0 0 0 0 0 0 0 0 0 0 0 0 0.25 0"/>
<feBlend mode="normal" in2="BackgroundImageFix" result="effect1_dropShadow"/>
<feBlend mode="normal" in="SourceGraphic" in2="effect1_dropShadow" result="shape"/>
</filter>
<filter id="filter2_d" x="87.7432" y="57.6917" width="68.5607" height="39.9875" filterUnits="userSpaceOnUse" color-interpolation-filters="sRGB">
<feFlood flood-opacity="0" result="BackgroundImageFix"/>
<feColorMatrix in="SourceAlpha" type="matrix" values="0 0 0 0 0 0 0 0 0 0 0 0 0 0 0 0 0 0 127 0"/>
<feOffset dy="1.85125"/>
<feGaussianBlur stdDeviation="0.925626"/>
<feColorMatrix type="matrix" values="0 0 0 0 0 0 0 0 0 0 0 0 0 0 0 0 0 0 0.25 0"/>
<feBlend mode="normal" in2="BackgroundImageFix" result="effect1_dropShadow"/>
<feBlend mode="normal" in="SourceGraphic" in2="effect1_dropShadow" result="shape"/>
</filter>
<filter id="filter3_d" x="75.2398" y="26.7737" width="91.7966" height="21.9285" filterUnits="userSpaceOnUse" color-interpolation-filters="sRGB">
<feFlood flood-opacity="0" result="BackgroundImageFix"/>
<feColorMatrix in="SourceAlpha" type="matrix" values="0 0 0 0 0 0 0 0 0 0 0 0 0 0 0 0 0 0 127 0"/>
<feOffset dy="1.85125"/>
<feGaussianBlur stdDeviation="0.925626"/>
<feColorMatrix type="matrix" values="0 0 0 0 0 0 0 0 0 0 0 0 0 0 0 0 0 0 0.25 0"/>
<feBlend mode="normal" in2="BackgroundImageFix" result="effect1_dropShadow"/>
<feBlend mode="normal" in="SourceGraphic" in2="effect1_dropShadow" result="shape"/>
</filter>
<clipPath id="clip0">
<rect width="18.4938" height="18.4792" fill="white" transform="translate(31.4185 165.852)"/>
</clipPath>
<clipPath id="clip1">
<rect width="18.4938" height="18.4792" fill="white" transform="translate(31.4185 209.278)"/>
</clipPath>
<clipPath id="clip2">
<rect width="18.4938" height="18.4792" fill="white" transform="translate(31.4185 254.09)"/>
</clipPath>
</defs>
</svg>
