<svg width="66" height="66" viewBox="0 0 66 66" fill="none" xmlns="http://www.w3.org/2000/svg">
<path d="M32.8907 41.0257C28.6738 41.0257 25.243 37.5949 25.243 33.3779C25.243 29.1609 28.6738 25.7301 32.8907 25.7301C37.1077 25.7301 40.5385 29.1609 40.5385 33.3779C40.5385 37.5949 37.1077 41.0257 32.8907 41.0257ZM32.8907 30.1003C31.0835 30.1003 29.6131 31.5706 29.6131 33.3779C29.6131 35.1852 31.0835 36.6555 32.8907 36.6555C34.698 36.6555 36.1684 35.1852 36.1684 33.3779C36.1684 31.5706 34.698 30.1003 32.8907 30.1003ZM19.5774 41.8841L11.1804 33.4872L19.5774 25.0901L16.4872 22L5 33.4872L16.4872 44.9744L19.5774 41.8841ZM61 33.4872L49.8407 22.3278L46.7505 25.4179L54.8197 33.4872L46.6412 41.6656L49.7315 44.7558L61 33.4872Z" fill="#4075A0"/>
</svg>
