<svg width="360" height="66" viewBox="0 0 360 66" fill="none" xmlns="http://www.w3.org/2000/svg">
<path d="M16.9995 17.3335C15.3455 17.3335 13.9995 18.6795 13.9995 20.3335C13.9995 21.9875 15.3455 23.3335 16.9995 23.3335C18.6535 23.3335 19.9995 21.9875 19.9995 20.3335C19.9995 18.6795 18.6535 17.3335 16.9995 17.3335ZM16.9995 22.0002C16.0808 22.0002 15.3328 21.2528 15.3328 20.3335C15.3328 19.4142 16.0808 18.6668 16.9995 18.6668C17.9182 18.6668 18.6662 19.4142 18.6662 20.3335C18.6662 21.2528 17.9182 22.0002 16.9995 22.0002Z" fill="#404A53"/>
<path d="M43.3334 20.0001C43.7016 20.0001 44.0001 19.7016 44.0001 19.3334C44.0001 18.9652 43.7016 18.6667 43.3334 18.6667C42.9652 18.6667 42.6667 18.9652 42.6667 19.3334C42.6667 19.7016 42.9652 20.0001 43.3334 20.0001Z" fill="#404A53"/>
<path d="M40.6667 20.0001C41.0349 20.0001 41.3333 19.7016 41.3333 19.3334C41.3333 18.9652 41.0349 18.6667 40.6667 18.6667C40.2985 18.6667 40 18.9652 40 19.3334C40 19.7016 40.2985 20.0001 40.6667 20.0001Z" fill="#404A53"/>
<path d="M44.6667 22.0001C45.0349 22.0001 45.3333 21.7016 45.3333 21.3334C45.3333 20.9652 45.0349 20.6667 44.6667 20.6667C44.2985 20.6667 44 20.9652 44 21.3334C44 21.7016 44.2985 22.0001 44.6667 22.0001Z" fill="#404A53"/>
<path d="M42.0002 22.0001C42.3684 22.0001 42.6668 21.7016 42.6668 21.3334C42.6668 20.9652 42.3684 20.6667 42.0002 20.6667C41.632 20.6667 41.3335 20.9652 41.3335 21.3334C41.3335 21.7016 41.632 22.0001 42.0002 22.0001Z" fill="#404A53"/>
<path d="M38.0002 20.0001C38.3684 20.0001 38.6668 19.7016 38.6668 19.3334C38.6668 18.9652 38.3684 18.6667 38.0002 18.6667C37.632 18.6667 37.3335 18.9652 37.3335 19.3334C37.3335 19.7016 37.632 20.0001 38.0002 20.0001Z" fill="#404A53"/>
<path d="M39.3332 22.0001C39.7014 22.0001 39.9998 21.7016 39.9998 21.3334C39.9998 20.9652 39.7014 20.6667 39.3332 20.6667C38.965 20.6667 38.6665 20.9652 38.6665 21.3334C38.6665 21.7016 38.965 22.0001 39.3332 22.0001Z" fill="#404A53"/>
<path d="M35.3334 20.0001C35.7016 20.0001 36.0001 19.7016 36.0001 19.3334C36.0001 18.9652 35.7016 18.6667 35.3334 18.6667C34.9652 18.6667 34.6667 18.9652 34.6667 19.3334C34.6667 19.7016 34.9652 20.0001 35.3334 20.0001Z" fill="#404A53"/>
<path d="M36.6664 22.0001C37.0346 22.0001 37.3331 21.7016 37.3331 21.3334C37.3331 20.9652 37.0346 20.6667 36.6664 20.6667C36.2982 20.6667 35.9998 20.9652 35.9998 21.3334C35.9998 21.7016 36.2982 22.0001 36.6664 22.0001Z" fill="#404A53"/>
<path d="M32.6659 20.0001C33.0341 20.0001 33.3326 19.7016 33.3326 19.3334C33.3326 18.9652 33.0341 18.6667 32.6659 18.6667C32.2977 18.6667 31.9993 18.9652 31.9993 19.3334C31.9993 19.7016 32.2977 20.0001 32.6659 20.0001Z" fill="#404A53"/>
<path d="M34.0004 22.0001C34.3686 22.0001 34.6671 21.7016 34.6671 21.3334C34.6671 20.9652 34.3686 20.6667 34.0004 20.6667C33.6322 20.6667 33.3337 20.9652 33.3337 21.3334C33.3337 21.7016 33.6322 22.0001 34.0004 22.0001Z" fill="#404A53"/>
<path d="M50 24.2617V16.4057C50 14.7117 48.622 13.3337 46.928 13.3337H13.072C11.378 13.3337 10 14.7117 10 16.4057V24.2611C10 25.2404 10.4687 26.1037 11.1847 26.6664C10.4687 27.2297 10 28.0937 10 29.0724V36.9277C10 37.9071 10.4687 38.7704 11.1847 39.3331C10.4687 39.8964 10 40.7604 10 41.7391V49.5944C10 51.2891 11.378 52.6671 13.072 52.6671H46.9273C48.6213 52.6671 49.9993 51.2891 49.9993 49.5951V41.7391C49.9993 40.7597 49.5307 39.8964 48.8147 39.3337C49.5313 38.7711 50 37.9071 50 36.9284V29.0724C50 28.0931 49.5313 27.2297 48.8153 26.6671C49.5313 26.1044 50 25.2404 50 24.2617ZM48.6667 41.7391V49.5944C48.6667 50.5531 47.8867 51.3331 46.928 51.3331H13.072C12.1133 51.3337 11.3333 50.5537 11.3333 49.5951V41.7391C11.3333 40.7804 12.1133 40.0004 13.072 40.0004H46.9273C47.8867 40.0004 48.6667 40.7804 48.6667 41.7391ZM48.6667 29.0724V36.9277C48.6667 37.8864 47.8867 38.6664 46.928 38.6664H13.072C12.1133 38.6671 11.3333 37.8871 11.3333 36.9284V29.0724C11.3333 28.1137 12.1133 27.3337 13.072 27.3337H46.9273C47.8867 27.3337 48.6667 28.1137 48.6667 29.0724ZM13.072 26.0004C12.1133 26.0004 11.3333 25.2204 11.3333 24.2617V16.4057C11.3333 15.4471 12.1133 14.6671 13.072 14.6671H46.9273C47.8867 14.6671 48.6667 15.4471 48.6667 16.4057V24.2611C48.6667 25.2197 47.8867 25.9997 46.928 25.9997H13.072V26.0004Z" fill="#404A53"/>
<path d="M16.9995 36.0002C18.6535 36.0002 19.9995 34.6542 19.9995 33.0002C19.9995 31.3462 18.6535 30.0002 16.9995 30.0002C15.3455 30.0002 13.9995 31.3462 13.9995 33.0002C13.9995 34.6542 15.3455 36.0002 16.9995 36.0002ZM16.9995 31.3336C17.9182 31.3336 18.6662 32.0809 18.6662 33.0002C18.6662 33.9196 17.9182 34.6669 16.9995 34.6669C16.0808 34.6669 15.3328 33.9196 15.3328 33.0002C15.3328 32.0809 16.0808 31.3336 16.9995 31.3336Z" fill="#404A53"/>
<path d="M43.3334 32.6668C43.7016 32.6668 44.0001 32.3684 44.0001 32.0002C44.0001 31.632 43.7016 31.3335 43.3334 31.3335C42.9652 31.3335 42.6667 31.632 42.6667 32.0002C42.6667 32.3684 42.9652 32.6668 43.3334 32.6668Z" fill="#404A53"/>
<path d="M40.6667 32.6668C41.0349 32.6668 41.3333 32.3684 41.3333 32.0002C41.3333 31.632 41.0349 31.3335 40.6667 31.3335C40.2985 31.3335 40 31.632 40 32.0002C40 32.3684 40.2985 32.6668 40.6667 32.6668Z" fill="#404A53"/>
<path d="M44.6667 34.6668C45.0349 34.6668 45.3333 34.3683 45.3333 34.0002C45.3333 33.632 45.0349 33.3335 44.6667 33.3335C44.2985 33.3335 44 33.632 44 34.0002C44 34.3683 44.2985 34.6668 44.6667 34.6668Z" fill="#404A53"/>
<path d="M42.0002 34.6668C42.3684 34.6668 42.6668 34.3683 42.6668 34.0002C42.6668 33.632 42.3684 33.3335 42.0002 33.3335C41.632 33.3335 41.3335 33.632 41.3335 34.0002C41.3335 34.3683 41.632 34.6668 42.0002 34.6668Z" fill="#404A53"/>
<path d="M38.0002 32.6668C38.3684 32.6668 38.6668 32.3684 38.6668 32.0002C38.6668 31.632 38.3684 31.3335 38.0002 31.3335C37.632 31.3335 37.3335 31.632 37.3335 32.0002C37.3335 32.3684 37.632 32.6668 38.0002 32.6668Z" fill="#404A53"/>
<path d="M39.3332 34.6668C39.7014 34.6668 39.9998 34.3683 39.9998 34.0002C39.9998 33.632 39.7014 33.3335 39.3332 33.3335C38.965 33.3335 38.6665 33.632 38.6665 34.0002C38.6665 34.3683 38.965 34.6668 39.3332 34.6668Z" fill="#404A53"/>
<path d="M35.3334 32.6668C35.7016 32.6668 36.0001 32.3684 36.0001 32.0002C36.0001 31.632 35.7016 31.3335 35.3334 31.3335C34.9652 31.3335 34.6667 31.632 34.6667 32.0002C34.6667 32.3684 34.9652 32.6668 35.3334 32.6668Z" fill="#404A53"/>
<path d="M36.6664 34.6668C37.0346 34.6668 37.3331 34.3683 37.3331 34.0002C37.3331 33.632 37.0346 33.3335 36.6664 33.3335C36.2982 33.3335 35.9998 33.632 35.9998 34.0002C35.9998 34.3683 36.2982 34.6668 36.6664 34.6668Z" fill="#404A53"/>
<path d="M32.6659 32.6668C33.0341 32.6668 33.3326 32.3684 33.3326 32.0002C33.3326 31.632 33.0341 31.3335 32.6659 31.3335C32.2977 31.3335 31.9993 31.632 31.9993 32.0002C31.9993 32.3684 32.2977 32.6668 32.6659 32.6668Z" fill="#404A53"/>
<path d="M34.0004 34.6668C34.3686 34.6668 34.6671 34.3683 34.6671 34.0002C34.6671 33.632 34.3686 33.3335 34.0004 33.3335C33.6322 33.3335 33.3337 33.632 33.3337 34.0002C33.3337 34.3683 33.6322 34.6668 34.0004 34.6668Z" fill="#404A53"/>
<path d="M16.9995 48.6667C18.6535 48.6667 19.9995 47.3207 19.9995 45.6667C19.9995 44.0127 18.6535 42.6667 16.9995 42.6667C15.3455 42.6667 13.9995 44.0127 13.9995 45.6667C13.9995 47.3207 15.3455 48.6667 16.9995 48.6667ZM16.9995 44.0001C17.9182 44.0001 18.6662 44.7474 18.6662 45.6667C18.6662 46.5861 17.9182 47.3334 16.9995 47.3334C16.0808 47.3334 15.3328 46.5861 15.3328 45.6667C15.3328 44.7474 16.0808 44.0001 16.9995 44.0001Z" fill="#404A53"/>
<path d="M43.3334 45.3333C43.7016 45.3333 44.0001 45.0349 44.0001 44.6667C44.0001 44.2985 43.7016 44 43.3334 44C42.9652 44 42.6667 44.2985 42.6667 44.6667C42.6667 45.0349 42.9652 45.3333 43.3334 45.3333Z" fill="#404A53"/>
<path d="M40.6667 45.3333C41.0349 45.3333 41.3333 45.0349 41.3333 44.6667C41.3333 44.2985 41.0349 44 40.6667 44C40.2985 44 40 44.2985 40 44.6667C40 45.0349 40.2985 45.3333 40.6667 45.3333Z" fill="#404A53"/>
<path d="M44.6667 47.3333C45.0349 47.3333 45.3333 47.0349 45.3333 46.6667C45.3333 46.2985 45.0349 46 44.6667 46C44.2985 46 44 46.2985 44 46.6667C44 47.0349 44.2985 47.3333 44.6667 47.3333Z" fill="#404A53"/>
<path d="M42.0002 47.3333C42.3684 47.3333 42.6668 47.0349 42.6668 46.6667C42.6668 46.2985 42.3684 46 42.0002 46C41.632 46 41.3335 46.2985 41.3335 46.6667C41.3335 47.0349 41.632 47.3333 42.0002 47.3333Z" fill="#404A53"/>
<path d="M38.0002 45.3333C38.3684 45.3333 38.6668 45.0349 38.6668 44.6667C38.6668 44.2985 38.3684 44 38.0002 44C37.632 44 37.3335 44.2985 37.3335 44.6667C37.3335 45.0349 37.632 45.3333 38.0002 45.3333Z" fill="#404A53"/>
<path d="M39.3332 47.3333C39.7014 47.3333 39.9998 47.0349 39.9998 46.6667C39.9998 46.2985 39.7014 46 39.3332 46C38.965 46 38.6665 46.2985 38.6665 46.6667C38.6665 47.0349 38.965 47.3333 39.3332 47.3333Z" fill="#404A53"/>
<path d="M35.3334 45.3333C35.7016 45.3333 36.0001 45.0349 36.0001 44.6667C36.0001 44.2985 35.7016 44 35.3334 44C34.9652 44 34.6667 44.2985 34.6667 44.6667C34.6667 45.0349 34.9652 45.3333 35.3334 45.3333Z" fill="#404A53"/>
<path d="M36.6664 47.3333C37.0346 47.3333 37.3331 47.0349 37.3331 46.6667C37.3331 46.2985 37.0346 46 36.6664 46C36.2982 46 35.9998 46.2985 35.9998 46.6667C35.9998 47.0349 36.2982 47.3333 36.6664 47.3333Z" fill="#404A53"/>
<path d="M32.6659 45.3333C33.0341 45.3333 33.3326 45.0349 33.3326 44.6667C33.3326 44.2985 33.0341 44 32.6659 44C32.2977 44 31.9993 44.2985 31.9993 44.6667C31.9993 45.0349 32.2977 45.3333 32.6659 45.3333Z" fill="#404A53"/>
<path d="M34.0004 47.3333C34.3686 47.3333 34.6671 47.0349 34.6671 46.6667C34.6671 46.2985 34.3686 46 34.0004 46C33.6322 46 33.3337 46.2985 33.3337 46.6667C33.3337 47.0349 33.6322 47.3333 34.0004 47.3333Z" fill="#404A53"/>
<path d="M294.713 41V37.1H296.689V41H294.713ZM294.713 32.342V28.442H296.689V32.342H294.713ZM342.27 41V37.1H344.246V41H342.27ZM342.27 32.342V28.442H344.246V32.342H342.27Z" fill="#B32B27"/>
<path d="M299.574 41V38.998H306.282C307.374 38.998 307.92 38.4867 307.92 37.464V36.528C307.92 36.0427 307.772 35.6787 307.478 35.436C307.183 35.176 306.784 35.046 306.282 35.046H302.902C301.74 35.046 300.839 34.8207 300.198 34.37C299.574 33.9193 299.262 33.1047 299.262 31.926V31.328C299.262 30.6173 299.34 30.028 299.496 29.56C299.652 29.092 299.886 28.7193 300.198 28.442C300.527 28.1473 300.934 27.948 301.42 27.844C301.922 27.7227 302.512 27.662 303.188 27.662H309.168V29.69H302.668C302.165 29.69 301.775 29.82 301.498 30.08C301.238 30.34 301.108 30.7473 301.108 31.302V31.718C301.108 32.238 301.255 32.654 301.55 32.966C301.844 33.278 302.295 33.434 302.902 33.434H306.36C307.417 33.434 308.249 33.6507 308.856 34.084C309.48 34.5173 309.792 35.28 309.792 36.372V37.23C309.792 38.4953 309.523 39.44 308.986 40.064C308.466 40.688 307.582 41 306.334 41H299.574ZM316.228 41C315.362 41 314.651 40.922 314.096 40.766C313.542 40.61 313.1 40.3587 312.77 40.012C312.441 39.6653 312.216 39.206 312.094 38.634C311.973 38.0447 311.912 37.3253 311.912 36.476V32.186C311.912 31.302 311.982 30.5653 312.12 29.976C312.259 29.3867 312.493 28.9273 312.822 28.598C313.169 28.2513 313.62 28.0087 314.174 27.87C314.729 27.7313 315.414 27.662 316.228 27.662H318.1C318.95 27.662 319.652 27.74 320.206 27.896C320.778 28.052 321.22 28.312 321.532 28.676C321.862 29.0227 322.087 29.482 322.208 30.054C322.347 30.626 322.416 31.3367 322.416 32.186V36.476C322.416 38.0013 322.156 39.1367 321.636 39.882C321.134 40.6273 320.206 41 318.854 41H316.228ZM320.466 31.848C320.466 31.1547 320.336 30.626 320.076 30.262C319.816 29.8807 319.383 29.69 318.776 29.69H315.526C314.417 29.69 313.862 30.3053 313.862 31.536V36.84C313.862 37.516 313.984 38.0447 314.226 38.426C314.486 38.8073 314.92 38.998 315.526 38.998H318.776C319.903 38.998 320.466 38.3827 320.466 37.152V31.848ZM324.839 41V27.662H326.711V29.3C326.954 28.6933 327.283 28.2687 327.699 28.026C328.132 27.7833 328.722 27.662 329.467 27.662H332.197V29.69H328.609C327.933 29.69 327.456 29.872 327.179 30.236C326.919 30.5827 326.789 31.1373 326.789 31.9V41H324.839ZM337.848 41C335.37 41 334.13 39.5787 334.13 36.736V23.112H336.106V27.662H339.46V29.378H336.106V36.814C336.106 38.374 336.748 39.154 338.03 39.154H339.408V41H337.848Z" fill="#404A53"/>
<g clip-path="url(#clip0)">
<path d="M204.427 42.3099L184.143 22.0686C181.859 19.7841 178.141 19.784 175.858 22.0672L155.573 42.3098C154.81 43.0717 154.809 44.3083 155.571 45.0719C156.333 45.8354 157.569 45.8367 158.333 45.0747L178.619 24.8306C179.381 24.0692 180.62 24.0691 181.383 24.8321L201.667 45.0748C202.049 45.4553 202.548 45.6454 203.047 45.6454C203.547 45.6454 204.048 45.4542 204.429 45.072C205.191 44.3084 205.19 43.0718 204.427 42.3099Z" fill="#404A53"/>
</g>
<defs>
<clipPath id="clip0">
<rect width="50" height="50" fill="white" transform="translate(155 8)"/>
</clipPath>
</defs>
</svg>
