<svg width="44" height="45" viewBox="0 0 44 45" fill="none" xmlns="http://www.w3.org/2000/svg">
<g clip-path="url(#clip0)">
<path d="M7.67118 5.5769C5.85846 5.5769 4.3833 7.05207 4.3833 8.86479C4.3833 10.6775 5.85846 12.1527 7.67118 12.1527C9.4839 12.1527 10.9591 10.6775 10.9591 8.86479C10.9591 7.05207 9.4839 5.5769 7.67118 5.5769ZM7.67118 10.6914C6.66436 10.6914 5.84458 9.87234 5.84458 8.86479C5.84458 7.85723 6.66436 7.03819 7.67118 7.03819C8.67801 7.03819 9.49779 7.85723 9.49779 8.86479C9.49779 9.87234 8.67801 10.6914 7.67118 10.6914Z" fill="#404A53"/>
<path d="M36.5322 8.49949C36.9357 8.49949 37.2628 8.17237 37.2628 7.76885C37.2628 7.36533 36.9357 7.03821 36.5322 7.03821C36.1286 7.03821 35.8015 7.36533 35.8015 7.76885C35.8015 8.17237 36.1286 8.49949 36.5322 8.49949Z" fill="#404A53"/>
<path d="M33.6095 8.49949C34.0131 8.49949 34.3402 8.17237 34.3402 7.76885C34.3402 7.36533 34.0131 7.03821 33.6095 7.03821C33.206 7.03821 32.8789 7.36533 32.8789 7.76885C32.8789 8.17237 33.206 8.49949 33.6095 8.49949Z" fill="#404A53"/>
<path d="M37.9936 10.6914C38.3971 10.6914 38.7242 10.3643 38.7242 9.96074C38.7242 9.55722 38.3971 9.2301 37.9936 9.2301C37.5901 9.2301 37.2629 9.55722 37.2629 9.96074C37.2629 10.3643 37.5901 10.6914 37.9936 10.6914Z" fill="#404A53"/>
<path d="M35.071 10.6914C35.4745 10.6914 35.8016 10.3643 35.8016 9.96074C35.8016 9.55722 35.4745 9.2301 35.071 9.2301C34.6675 9.2301 34.3403 9.55722 34.3403 9.96074C34.3403 10.3643 34.6675 10.6914 35.071 10.6914Z" fill="#404A53"/>
<path d="M30.6869 8.49949C31.0905 8.49949 31.4176 8.17237 31.4176 7.76885C31.4176 7.36533 31.0905 7.03821 30.6869 7.03821C30.2834 7.03821 29.9563 7.36533 29.9563 7.76885C29.9563 8.17237 30.2834 8.49949 30.6869 8.49949Z" fill="#404A53"/>
<path d="M32.1481 10.6914C32.5516 10.6914 32.8788 10.3643 32.8788 9.96074C32.8788 9.55722 32.5516 9.2301 32.1481 9.2301C31.7446 9.2301 31.4175 9.55722 31.4175 9.96074C31.4175 10.3643 31.7446 10.6914 32.1481 10.6914Z" fill="#404A53"/>
<path d="M27.7643 8.49949C28.1679 8.49949 28.495 8.17237 28.495 7.76885C28.495 7.36533 28.1679 7.03821 27.7643 7.03821C27.3608 7.03821 27.0337 7.36533 27.0337 7.76885C27.0337 8.17237 27.3608 8.49949 27.7643 8.49949Z" fill="#404A53"/>
<path d="M29.2258 10.6914C29.6293 10.6914 29.9564 10.3643 29.9564 9.96074C29.9564 9.55722 29.6293 9.2301 29.2258 9.2301C28.8222 9.2301 28.4951 9.55722 28.4951 9.96074C28.4951 10.3643 28.8222 10.6914 29.2258 10.6914Z" fill="#404A53"/>
<path d="M24.8412 8.49949C25.2448 8.49949 25.5719 8.17237 25.5719 7.76885C25.5719 7.36533 25.2448 7.03821 24.8412 7.03821C24.4377 7.03821 24.1106 7.36533 24.1106 7.76885C24.1106 8.17237 24.4377 8.49949 24.8412 8.49949Z" fill="#404A53"/>
<path d="M26.3036 10.6914C26.7072 10.6914 27.0343 10.3643 27.0343 9.96074C27.0343 9.55722 26.7072 9.2301 26.3036 9.2301C25.9001 9.2301 25.573 9.55722 25.573 9.96074C25.573 10.3643 25.9001 10.6914 26.3036 10.6914Z" fill="#404A53"/>
<path d="M43.8384 13.17V4.56015C43.8384 2.70359 42.3282 1.19336 40.4716 1.19336H3.36679C1.51023 1.19336 0 2.70359 0 4.56015V13.1693C0 14.2426 0.51364 15.1888 1.29835 15.8054C0.51364 16.4228 0 17.3697 0 18.4423V27.0515C0 28.1248 0.51364 29.071 1.29835 29.6876C0.51364 30.305 0 31.2519 0 32.3245V40.9336C0 42.7909 1.51023 44.3012 3.36679 44.3012H40.4709C42.3275 44.3012 43.8377 42.7909 43.8377 40.9344V32.3245C43.8377 31.2512 43.3241 30.305 42.5394 29.6883C43.3248 29.0717 43.8384 28.1248 43.8384 27.0522V18.4423C43.8384 17.369 43.3248 16.4228 42.5401 15.8062C43.3248 15.1895 43.8384 14.2426 43.8384 13.17ZM42.3772 32.3245V40.9336C42.3772 41.9843 41.5223 42.8391 40.4716 42.8391H3.36679C2.31613 42.8399 1.46128 41.985 1.46128 40.9344V32.3245C1.46128 31.2738 2.31613 30.419 3.36679 30.419H40.4709C41.5223 30.419 42.3772 31.2738 42.3772 32.3245ZM42.3772 18.4423V27.0515C42.3772 28.1021 41.5223 28.957 40.4716 28.957H3.36679C2.31613 28.9577 1.46128 28.1029 1.46128 27.0522V18.4423C1.46128 17.3917 2.31613 16.5368 3.36679 16.5368H40.4709C41.5223 16.5368 42.3772 17.3917 42.3772 18.4423ZM3.36679 15.0755C2.31613 15.0755 1.46128 14.2207 1.46128 13.17V4.56015C1.46128 3.50949 2.31613 2.65464 3.36679 2.65464H40.4709C41.5223 2.65464 42.3772 3.50949 42.3772 4.56015V13.1693C42.3772 14.22 41.5223 15.0748 40.4716 15.0748H3.36679V15.0755Z" fill="#404A53"/>
<path d="M7.67118 26.035C9.4839 26.035 10.9591 24.5598 10.9591 22.7471C10.9591 20.9344 9.4839 19.4592 7.67118 19.4592C5.85846 19.4592 4.3833 20.9344 4.3833 22.7471C4.3833 24.5598 5.85846 26.035 7.67118 26.035ZM7.67118 20.9205C8.67801 20.9205 9.49779 21.7396 9.49779 22.7471C9.49779 23.7547 8.67801 24.5737 7.67118 24.5737C6.66436 24.5737 5.84458 23.7547 5.84458 22.7471C5.84458 21.7396 6.66436 20.9205 7.67118 20.9205Z" fill="#404A53"/>
<path d="M36.5322 22.3819C36.9357 22.3819 37.2628 22.0548 37.2628 21.6513C37.2628 21.2478 36.9357 20.9207 36.5322 20.9207C36.1286 20.9207 35.8015 21.2478 35.8015 21.6513C35.8015 22.0548 36.1286 22.3819 36.5322 22.3819Z" fill="#404A53"/>
<path d="M33.6095 22.3819C34.0131 22.3819 34.3402 22.0548 34.3402 21.6513C34.3402 21.2478 34.0131 20.9207 33.6095 20.9207C33.206 20.9207 32.8789 21.2478 32.8789 21.6513C32.8789 22.0548 33.206 22.3819 33.6095 22.3819Z" fill="#404A53"/>
<path d="M37.9936 24.5736C38.3971 24.5736 38.7242 24.2465 38.7242 23.8429C38.7242 23.4394 38.3971 23.1123 37.9936 23.1123C37.5901 23.1123 37.2629 23.4394 37.2629 23.8429C37.2629 24.2465 37.5901 24.5736 37.9936 24.5736Z" fill="#404A53"/>
<path d="M35.071 24.5736C35.4745 24.5736 35.8016 24.2465 35.8016 23.8429C35.8016 23.4394 35.4745 23.1123 35.071 23.1123C34.6675 23.1123 34.3403 23.4394 34.3403 23.8429C34.3403 24.2465 34.6675 24.5736 35.071 24.5736Z" fill="#404A53"/>
<path d="M30.6869 22.3819C31.0905 22.3819 31.4176 22.0548 31.4176 21.6513C31.4176 21.2478 31.0905 20.9207 30.6869 20.9207C30.2834 20.9207 29.9563 21.2478 29.9563 21.6513C29.9563 22.0548 30.2834 22.3819 30.6869 22.3819Z" fill="#404A53"/>
<path d="M32.1481 24.5736C32.5516 24.5736 32.8788 24.2465 32.8788 23.8429C32.8788 23.4394 32.5516 23.1123 32.1481 23.1123C31.7446 23.1123 31.4175 23.4394 31.4175 23.8429C31.4175 24.2465 31.7446 24.5736 32.1481 24.5736Z" fill="#404A53"/>
<path d="M27.7643 22.3819C28.1679 22.3819 28.495 22.0548 28.495 21.6513C28.495 21.2478 28.1679 20.9207 27.7643 20.9207C27.3608 20.9207 27.0337 21.2478 27.0337 21.6513C27.0337 22.0548 27.3608 22.3819 27.7643 22.3819Z" fill="#404A53"/>
<path d="M29.2258 24.5736C29.6293 24.5736 29.9564 24.2465 29.9564 23.8429C29.9564 23.4394 29.6293 23.1123 29.2258 23.1123C28.8222 23.1123 28.4951 23.4394 28.4951 23.8429C28.4951 24.2465 28.8222 24.5736 29.2258 24.5736Z" fill="#404A53"/>
<path d="M24.8412 22.3819C25.2448 22.3819 25.5719 22.0548 25.5719 21.6513C25.5719 21.2478 25.2448 20.9207 24.8412 20.9207C24.4377 20.9207 24.1106 21.2478 24.1106 21.6513C24.1106 22.0548 24.4377 22.3819 24.8412 22.3819Z" fill="#404A53"/>
<path d="M26.3036 24.5736C26.7072 24.5736 27.0343 24.2465 27.0343 23.8429C27.0343 23.4394 26.7072 23.1123 26.3036 23.1123C25.9001 23.1123 25.573 23.4394 25.573 23.8429C25.573 24.2465 25.9001 24.5736 26.3036 24.5736Z" fill="#404A53"/>
<path d="M7.67118 39.9171C9.4839 39.9171 10.9591 38.4419 10.9591 36.6292C10.9591 34.8165 9.4839 33.3413 7.67118 33.3413C5.85846 33.3413 4.3833 34.8165 4.3833 36.6292C4.3833 38.4419 5.85846 39.9171 7.67118 39.9171ZM7.67118 34.8026C8.67801 34.8026 9.49779 35.6216 9.49779 36.6292C9.49779 37.6367 8.67801 38.4558 7.67118 38.4558C6.66436 38.4558 5.84458 37.6367 5.84458 36.6292C5.84458 35.6216 6.66436 34.8026 7.67118 34.8026Z" fill="#404A53"/>
<path d="M36.5322 36.2638C36.9357 36.2638 37.2628 35.9367 37.2628 35.5331C37.2628 35.1296 36.9357 34.8025 36.5322 34.8025C36.1286 34.8025 35.8015 35.1296 35.8015 35.5331C35.8015 35.9367 36.1286 36.2638 36.5322 36.2638Z" fill="#404A53"/>
<path d="M33.6095 36.2638C34.0131 36.2638 34.3402 35.9367 34.3402 35.5331C34.3402 35.1296 34.0131 34.8025 33.6095 34.8025C33.206 34.8025 32.8789 35.1296 32.8789 35.5331C32.8789 35.9367 33.206 36.2638 33.6095 36.2638Z" fill="#404A53"/>
<path d="M37.9936 38.4559C38.3971 38.4559 38.7242 38.1288 38.7242 37.7253C38.7242 37.3217 38.3971 36.9946 37.9936 36.9946C37.5901 36.9946 37.2629 37.3217 37.2629 37.7253C37.2629 38.1288 37.5901 38.4559 37.9936 38.4559Z" fill="#404A53"/>
<path d="M35.071 38.4559C35.4745 38.4559 35.8016 38.1288 35.8016 37.7253C35.8016 37.3217 35.4745 36.9946 35.071 36.9946C34.6675 36.9946 34.3403 37.3217 34.3403 37.7253C34.3403 38.1288 34.6675 38.4559 35.071 38.4559Z" fill="#404A53"/>
<path d="M30.6869 36.2638C31.0905 36.2638 31.4176 35.9367 31.4176 35.5331C31.4176 35.1296 31.0905 34.8025 30.6869 34.8025C30.2834 34.8025 29.9563 35.1296 29.9563 35.5331C29.9563 35.9367 30.2834 36.2638 30.6869 36.2638Z" fill="#404A53"/>
<path d="M32.1481 38.4559C32.5516 38.4559 32.8788 38.1288 32.8788 37.7253C32.8788 37.3217 32.5516 36.9946 32.1481 36.9946C31.7446 36.9946 31.4175 37.3217 31.4175 37.7253C31.4175 38.1288 31.7446 38.4559 32.1481 38.4559Z" fill="#404A53"/>
<path d="M27.7643 36.2638C28.1679 36.2638 28.495 35.9367 28.495 35.5331C28.495 35.1296 28.1679 34.8025 27.7643 34.8025C27.3608 34.8025 27.0337 35.1296 27.0337 35.5331C27.0337 35.9367 27.3608 36.2638 27.7643 36.2638Z" fill="#404A53"/>
<path d="M29.2258 38.4559C29.6293 38.4559 29.9564 38.1288 29.9564 37.7253C29.9564 37.3217 29.6293 36.9946 29.2258 36.9946C28.8222 36.9946 28.4951 37.3217 28.4951 37.7253C28.4951 38.1288 28.8222 38.4559 29.2258 38.4559Z" fill="#404A53"/>
<path d="M24.8412 36.2638C25.2448 36.2638 25.5719 35.9367 25.5719 35.5331C25.5719 35.1296 25.2448 34.8025 24.8412 34.8025C24.4377 34.8025 24.1106 35.1296 24.1106 35.5331C24.1106 35.9367 24.4377 36.2638 24.8412 36.2638Z" fill="#404A53"/>
<path d="M26.3036 38.4559C26.7072 38.4559 27.0343 38.1288 27.0343 37.7253C27.0343 37.3217 26.7072 36.9946 26.3036 36.9946C25.9001 36.9946 25.573 37.3217 25.573 37.7253C25.573 38.1288 25.9001 38.4559 26.3036 38.4559Z" fill="#404A53"/>
</g>
<defs>
<clipPath id="clip0">
<rect width="43.8384" height="43.8384" fill="white" transform="translate(0 0.827637)"/>
</clipPath>
</defs>
</svg>
