<svg width="360" height="75" viewBox="0 0 360 75" fill="none" xmlns="http://www.w3.org/2000/svg">
<g filter="url(#filter0_d)">
<rect y="9" width="360" height="66" fill="#404A53"/>
</g>
<path d="M16.9995 26.3335C15.3455 26.3335 13.9995 27.6795 13.9995 29.3335C13.9995 30.9875 15.3455 32.3335 16.9995 32.3335C18.6535 32.3335 19.9995 30.9875 19.9995 29.3335C19.9995 27.6795 18.6535 26.3335 16.9995 26.3335ZM16.9995 31.0002C16.0808 31.0002 15.3328 30.2528 15.3328 29.3335C15.3328 28.4142 16.0808 27.6668 16.9995 27.6668C17.9182 27.6668 18.6662 28.4142 18.6662 29.3335C18.6662 30.2528 17.9182 31.0002 16.9995 31.0002Z" fill="white"/>
<path d="M43.3334 29.0001C43.7016 29.0001 44.0001 28.7016 44.0001 28.3334C44.0001 27.9652 43.7016 27.6667 43.3334 27.6667C42.9652 27.6667 42.6667 27.9652 42.6667 28.3334C42.6667 28.7016 42.9652 29.0001 43.3334 29.0001Z" fill="white"/>
<path d="M40.6667 29.0001C41.0349 29.0001 41.3333 28.7016 41.3333 28.3334C41.3333 27.9652 41.0349 27.6667 40.6667 27.6667C40.2985 27.6667 40 27.9652 40 28.3334C40 28.7016 40.2985 29.0001 40.6667 29.0001Z" fill="white"/>
<path d="M44.6667 31.0001C45.0349 31.0001 45.3333 30.7016 45.3333 30.3334C45.3333 29.9652 45.0349 29.6667 44.6667 29.6667C44.2985 29.6667 44 29.9652 44 30.3334C44 30.7016 44.2985 31.0001 44.6667 31.0001Z" fill="white"/>
<path d="M42.0002 31.0001C42.3684 31.0001 42.6668 30.7016 42.6668 30.3334C42.6668 29.9652 42.3684 29.6667 42.0002 29.6667C41.632 29.6667 41.3335 29.9652 41.3335 30.3334C41.3335 30.7016 41.632 31.0001 42.0002 31.0001Z" fill="white"/>
<path d="M38.0002 29.0001C38.3684 29.0001 38.6668 28.7016 38.6668 28.3334C38.6668 27.9652 38.3684 27.6667 38.0002 27.6667C37.632 27.6667 37.3335 27.9652 37.3335 28.3334C37.3335 28.7016 37.632 29.0001 38.0002 29.0001Z" fill="white"/>
<path d="M39.3332 31.0001C39.7014 31.0001 39.9998 30.7016 39.9998 30.3334C39.9998 29.9652 39.7014 29.6667 39.3332 29.6667C38.965 29.6667 38.6665 29.9652 38.6665 30.3334C38.6665 30.7016 38.965 31.0001 39.3332 31.0001Z" fill="white"/>
<path d="M35.3334 29.0001C35.7016 29.0001 36.0001 28.7016 36.0001 28.3334C36.0001 27.9652 35.7016 27.6667 35.3334 27.6667C34.9652 27.6667 34.6667 27.9652 34.6667 28.3334C34.6667 28.7016 34.9652 29.0001 35.3334 29.0001Z" fill="white"/>
<path d="M36.6664 31.0001C37.0346 31.0001 37.3331 30.7016 37.3331 30.3334C37.3331 29.9652 37.0346 29.6667 36.6664 29.6667C36.2982 29.6667 35.9998 29.9652 35.9998 30.3334C35.9998 30.7016 36.2982 31.0001 36.6664 31.0001Z" fill="white"/>
<path d="M32.6659 29.0001C33.0341 29.0001 33.3326 28.7016 33.3326 28.3334C33.3326 27.9652 33.0341 27.6667 32.6659 27.6667C32.2977 27.6667 31.9993 27.9652 31.9993 28.3334C31.9993 28.7016 32.2977 29.0001 32.6659 29.0001Z" fill="white"/>
<path d="M34.0004 31.0001C34.3686 31.0001 34.6671 30.7016 34.6671 30.3334C34.6671 29.9652 34.3686 29.6667 34.0004 29.6667C33.6322 29.6667 33.3337 29.9652 33.3337 30.3334C33.3337 30.7016 33.6322 31.0001 34.0004 31.0001Z" fill="white"/>
<path d="M50 33.2617V25.4057C50 23.7117 48.622 22.3337 46.928 22.3337H13.072C11.378 22.3337 10 23.7117 10 25.4057V33.2611C10 34.2404 10.4687 35.1037 11.1847 35.6664C10.4687 36.2297 10 37.0937 10 38.0724V45.9277C10 46.9071 10.4687 47.7704 11.1847 48.3331C10.4687 48.8964 10 49.7604 10 50.7391V58.5944C10 60.2891 11.378 61.6671 13.072 61.6671H46.9273C48.6213 61.6671 49.9993 60.2891 49.9993 58.5951V50.7391C49.9993 49.7597 49.5307 48.8964 48.8147 48.3337C49.5313 47.7711 50 46.9071 50 45.9284V38.0724C50 37.0931 49.5313 36.2297 48.8153 35.6671C49.5313 35.1044 50 34.2404 50 33.2617ZM48.6667 50.7391V58.5944C48.6667 59.5531 47.8867 60.3331 46.928 60.3331H13.072C12.1133 60.3337 11.3333 59.5537 11.3333 58.5951V50.7391C11.3333 49.7804 12.1133 49.0004 13.072 49.0004H46.9273C47.8867 49.0004 48.6667 49.7804 48.6667 50.7391ZM48.6667 38.0724V45.9277C48.6667 46.8864 47.8867 47.6664 46.928 47.6664H13.072C12.1133 47.6671 11.3333 46.8871 11.3333 45.9284V38.0724C11.3333 37.1137 12.1133 36.3337 13.072 36.3337H46.9273C47.8867 36.3337 48.6667 37.1137 48.6667 38.0724ZM13.072 35.0004C12.1133 35.0004 11.3333 34.2204 11.3333 33.2617V25.4057C11.3333 24.4471 12.1133 23.6671 13.072 23.6671H46.9273C47.8867 23.6671 48.6667 24.4471 48.6667 25.4057V33.2611C48.6667 34.2197 47.8867 34.9997 46.928 34.9997H13.072V35.0004Z" fill="white"/>
<path d="M16.9995 45.0002C18.6535 45.0002 19.9995 43.6542 19.9995 42.0002C19.9995 40.3462 18.6535 39.0002 16.9995 39.0002C15.3455 39.0002 13.9995 40.3462 13.9995 42.0002C13.9995 43.6542 15.3455 45.0002 16.9995 45.0002ZM16.9995 40.3336C17.9182 40.3336 18.6662 41.0809 18.6662 42.0002C18.6662 42.9196 17.9182 43.6669 16.9995 43.6669C16.0808 43.6669 15.3328 42.9196 15.3328 42.0002C15.3328 41.0809 16.0808 40.3336 16.9995 40.3336Z" fill="white"/>
<path d="M43.3334 41.6668C43.7016 41.6668 44.0001 41.3684 44.0001 41.0002C44.0001 40.632 43.7016 40.3335 43.3334 40.3335C42.9652 40.3335 42.6667 40.632 42.6667 41.0002C42.6667 41.3684 42.9652 41.6668 43.3334 41.6668Z" fill="white"/>
<path d="M40.6667 41.6668C41.0349 41.6668 41.3333 41.3684 41.3333 41.0002C41.3333 40.632 41.0349 40.3335 40.6667 40.3335C40.2985 40.3335 40 40.632 40 41.0002C40 41.3684 40.2985 41.6668 40.6667 41.6668Z" fill="white"/>
<path d="M44.6667 43.6668C45.0349 43.6668 45.3333 43.3683 45.3333 43.0002C45.3333 42.632 45.0349 42.3335 44.6667 42.3335C44.2985 42.3335 44 42.632 44 43.0002C44 43.3683 44.2985 43.6668 44.6667 43.6668Z" fill="white"/>
<path d="M42.0002 43.6668C42.3684 43.6668 42.6668 43.3683 42.6668 43.0002C42.6668 42.632 42.3684 42.3335 42.0002 42.3335C41.632 42.3335 41.3335 42.632 41.3335 43.0002C41.3335 43.3683 41.632 43.6668 42.0002 43.6668Z" fill="white"/>
<path d="M38.0002 41.6668C38.3684 41.6668 38.6668 41.3684 38.6668 41.0002C38.6668 40.632 38.3684 40.3335 38.0002 40.3335C37.632 40.3335 37.3335 40.632 37.3335 41.0002C37.3335 41.3684 37.632 41.6668 38.0002 41.6668Z" fill="white"/>
<path d="M39.3332 43.6668C39.7014 43.6668 39.9998 43.3683 39.9998 43.0002C39.9998 42.632 39.7014 42.3335 39.3332 42.3335C38.965 42.3335 38.6665 42.632 38.6665 43.0002C38.6665 43.3683 38.965 43.6668 39.3332 43.6668Z" fill="white"/>
<path d="M35.3334 41.6668C35.7016 41.6668 36.0001 41.3684 36.0001 41.0002C36.0001 40.632 35.7016 40.3335 35.3334 40.3335C34.9652 40.3335 34.6667 40.632 34.6667 41.0002C34.6667 41.3684 34.9652 41.6668 35.3334 41.6668Z" fill="white"/>
<path d="M36.6664 43.6668C37.0346 43.6668 37.3331 43.3683 37.3331 43.0002C37.3331 42.632 37.0346 42.3335 36.6664 42.3335C36.2982 42.3335 35.9998 42.632 35.9998 43.0002C35.9998 43.3683 36.2982 43.6668 36.6664 43.6668Z" fill="white"/>
<path d="M32.6659 41.6668C33.0341 41.6668 33.3326 41.3684 33.3326 41.0002C33.3326 40.632 33.0341 40.3335 32.6659 40.3335C32.2977 40.3335 31.9993 40.632 31.9993 41.0002C31.9993 41.3684 32.2977 41.6668 32.6659 41.6668Z" fill="white"/>
<path d="M34.0004 43.6668C34.3686 43.6668 34.6671 43.3683 34.6671 43.0002C34.6671 42.632 34.3686 42.3335 34.0004 42.3335C33.6322 42.3335 33.3337 42.632 33.3337 43.0002C33.3337 43.3683 33.6322 43.6668 34.0004 43.6668Z" fill="white"/>
<path d="M16.9995 57.6667C18.6535 57.6667 19.9995 56.3207 19.9995 54.6667C19.9995 53.0127 18.6535 51.6667 16.9995 51.6667C15.3455 51.6667 13.9995 53.0127 13.9995 54.6667C13.9995 56.3207 15.3455 57.6667 16.9995 57.6667ZM16.9995 53.0001C17.9182 53.0001 18.6662 53.7474 18.6662 54.6667C18.6662 55.5861 17.9182 56.3334 16.9995 56.3334C16.0808 56.3334 15.3328 55.5861 15.3328 54.6667C15.3328 53.7474 16.0808 53.0001 16.9995 53.0001Z" fill="white"/>
<path d="M43.3334 54.3333C43.7016 54.3333 44.0001 54.0349 44.0001 53.6667C44.0001 53.2985 43.7016 53 43.3334 53C42.9652 53 42.6667 53.2985 42.6667 53.6667C42.6667 54.0349 42.9652 54.3333 43.3334 54.3333Z" fill="white"/>
<path d="M40.6667 54.3333C41.0349 54.3333 41.3333 54.0349 41.3333 53.6667C41.3333 53.2985 41.0349 53 40.6667 53C40.2985 53 40 53.2985 40 53.6667C40 54.0349 40.2985 54.3333 40.6667 54.3333Z" fill="white"/>
<path d="M44.6667 56.3333C45.0349 56.3333 45.3333 56.0349 45.3333 55.6667C45.3333 55.2985 45.0349 55 44.6667 55C44.2985 55 44 55.2985 44 55.6667C44 56.0349 44.2985 56.3333 44.6667 56.3333Z" fill="white"/>
<path d="M42.0002 56.3333C42.3684 56.3333 42.6668 56.0349 42.6668 55.6667C42.6668 55.2985 42.3684 55 42.0002 55C41.632 55 41.3335 55.2985 41.3335 55.6667C41.3335 56.0349 41.632 56.3333 42.0002 56.3333Z" fill="white"/>
<path d="M38.0002 54.3333C38.3684 54.3333 38.6668 54.0349 38.6668 53.6667C38.6668 53.2985 38.3684 53 38.0002 53C37.632 53 37.3335 53.2985 37.3335 53.6667C37.3335 54.0349 37.632 54.3333 38.0002 54.3333Z" fill="white"/>
<path d="M39.3332 56.3333C39.7014 56.3333 39.9998 56.0349 39.9998 55.6667C39.9998 55.2985 39.7014 55 39.3332 55C38.965 55 38.6665 55.2985 38.6665 55.6667C38.6665 56.0349 38.965 56.3333 39.3332 56.3333Z" fill="white"/>
<path d="M35.3334 54.3333C35.7016 54.3333 36.0001 54.0349 36.0001 53.6667C36.0001 53.2985 35.7016 53 35.3334 53C34.9652 53 34.6667 53.2985 34.6667 53.6667C34.6667 54.0349 34.9652 54.3333 35.3334 54.3333Z" fill="white"/>
<path d="M36.6664 56.3333C37.0346 56.3333 37.3331 56.0349 37.3331 55.6667C37.3331 55.2985 37.0346 55 36.6664 55C36.2982 55 35.9998 55.2985 35.9998 55.6667C35.9998 56.0349 36.2982 56.3333 36.6664 56.3333Z" fill="white"/>
<path d="M32.6659 54.3333C33.0341 54.3333 33.3326 54.0349 33.3326 53.6667C33.3326 53.2985 33.0341 53 32.6659 53C32.2977 53 31.9993 53.2985 31.9993 53.6667C31.9993 54.0349 32.2977 54.3333 32.6659 54.3333Z" fill="white"/>
<path d="M34.0004 56.3333C34.3686 56.3333 34.6671 56.0349 34.6671 55.6667C34.6671 55.2985 34.3686 55 34.0004 55C33.6322 55 33.3337 55.2985 33.3337 55.6667C33.3337 56.0349 33.6322 56.3333 34.0004 56.3333Z" fill="white"/>
<path d="M294.713 50V46.1H296.689V50H294.713ZM294.713 41.342V37.442H296.689V41.342H294.713ZM342.27 50V46.1H344.246V50H342.27ZM342.27 41.342V37.442H344.246V41.342H342.27Z" fill="#B32B27"/>
<path d="M299.574 50V47.998H306.282C307.374 47.998 307.92 47.4867 307.92 46.464V45.528C307.92 45.0427 307.772 44.6787 307.478 44.436C307.183 44.176 306.784 44.046 306.282 44.046H302.902C301.74 44.046 300.839 43.8207 300.198 43.37C299.574 42.9193 299.262 42.1047 299.262 40.926V40.328C299.262 39.6173 299.34 39.028 299.496 38.56C299.652 38.092 299.886 37.7193 300.198 37.442C300.527 37.1473 300.934 36.948 301.42 36.844C301.922 36.7227 302.512 36.662 303.188 36.662H309.168V38.69H302.668C302.165 38.69 301.775 38.82 301.498 39.08C301.238 39.34 301.108 39.7473 301.108 40.302V40.718C301.108 41.238 301.255 41.654 301.55 41.966C301.844 42.278 302.295 42.434 302.902 42.434H306.36C307.417 42.434 308.249 42.6507 308.856 43.084C309.48 43.5173 309.792 44.28 309.792 45.372V46.23C309.792 47.4953 309.523 48.44 308.986 49.064C308.466 49.688 307.582 50 306.334 50H299.574ZM316.228 50C315.362 50 314.651 49.922 314.096 49.766C313.542 49.61 313.1 49.3587 312.77 49.012C312.441 48.6653 312.216 48.206 312.094 47.634C311.973 47.0447 311.912 46.3253 311.912 45.476V41.186C311.912 40.302 311.982 39.5653 312.12 38.976C312.259 38.3867 312.493 37.9273 312.822 37.598C313.169 37.2513 313.62 37.0087 314.174 36.87C314.729 36.7313 315.414 36.662 316.228 36.662H318.1C318.95 36.662 319.652 36.74 320.206 36.896C320.778 37.052 321.22 37.312 321.532 37.676C321.862 38.0227 322.087 38.482 322.208 39.054C322.347 39.626 322.416 40.3367 322.416 41.186V45.476C322.416 47.0013 322.156 48.1367 321.636 48.882C321.134 49.6273 320.206 50 318.854 50H316.228ZM320.466 40.848C320.466 40.1547 320.336 39.626 320.076 39.262C319.816 38.8807 319.383 38.69 318.776 38.69H315.526C314.417 38.69 313.862 39.3053 313.862 40.536V45.84C313.862 46.516 313.984 47.0447 314.226 47.426C314.486 47.8073 314.92 47.998 315.526 47.998H318.776C319.903 47.998 320.466 47.3827 320.466 46.152V40.848ZM324.839 50V36.662H326.711V38.3C326.954 37.6933 327.283 37.2687 327.699 37.026C328.132 36.7833 328.722 36.662 329.467 36.662H332.197V38.69H328.609C327.933 38.69 327.456 38.872 327.179 39.236C326.919 39.5827 326.789 40.1373 326.789 40.9V50H324.839ZM337.848 50C335.37 50 334.13 48.5787 334.13 45.736V32.112H336.106V36.662H339.46V38.378H336.106V45.814C336.106 47.374 336.748 48.154 338.03 48.154H339.408V50H337.848Z" fill="white"/>
<path d="M204.389 29.0694C203.575 28.2549 202.258 28.2549 201.443 29.0694L180 50.5127L158.557 29.0694C157.742 28.2549 156.425 28.2549 155.611 29.0694C154.796 29.8839 154.796 31.2006 155.611 32.0151L178.527 54.9313C178.933 55.3376 179.467 55.5418 180 55.5418C180.533 55.5418 181.067 55.3376 181.473 54.9313L204.389 32.0151C205.204 31.2006 205.204 29.8839 204.389 29.0694Z" fill="white"/>
<defs>
<filter id="filter0_d" x="-4" y="0" width="368" height="75" filterUnits="userSpaceOnUse" color-interpolation-filters="sRGB">
<feFlood flood-opacity="0" result="BackgroundImageFix"/>
<feColorMatrix in="SourceAlpha" type="matrix" values="0 0 0 0 0 0 0 0 0 0 0 0 0 0 0 0 0 0 127 0"/>
<feOffset dy="-5"/>
<feGaussianBlur stdDeviation="2"/>
<feColorMatrix type="matrix" values="0 0 0 0 0 0 0 0 0 0 0 0 0 0 0 0 0 0 0.25 0"/>
<feBlend mode="normal" in2="BackgroundImageFix" result="effect1_dropShadow"/>
<feBlend mode="normal" in="SourceGraphic" in2="effect1_dropShadow" result="shape"/>
</filter>
</defs>
</svg>
