<svg width="360" height="120" viewBox="0 0 360 120" fill="none" xmlns="http://www.w3.org/2000/svg">
<rect width="360" height="120" fill="#404A53"/>
<path d="M30.7198 19C25.3603 19 21 23.3603 21 28.7198C21 35.3711 29.6983 45.1356 30.0686 45.548C30.4165 45.9354 31.0238 45.9347 31.371 45.548C31.7414 45.1356 40.4397 35.3711 40.4397 28.7198C40.4396 23.3603 36.0793 19 30.7198 19ZM30.7198 43.6225C27.7924 40.1452 22.7504 33.2847 22.7504 28.7199C22.7504 24.3254 26.3254 20.7504 30.7198 20.7504C35.1142 20.7504 38.6893 24.3254 38.6893 28.7198C38.6892 33.2849 33.648 40.1441 30.7198 43.6225Z" fill="#B32B27"/>
<path d="M42.3222 74H20.5161C19.1286 74 18 75.1286 18 76.5161V91.6127C18 93.0001 19.1286 94.1288 20.5161 94.1288H42.3222C43.7097 94.1288 44.8383 93.0001 44.8383 91.6127V76.5161C44.8383 75.1286 43.7097 74 42.3222 74ZM42.3222 75.6774C42.4362 75.6774 42.5446 75.701 42.6437 75.7423L31.4192 85.4707L20.1946 75.7423C20.2937 75.7011 20.4021 75.6774 20.5161 75.6774H42.3222ZM42.3222 92.4513H20.5161C20.0534 92.4513 19.6774 92.0754 19.6774 91.6126V77.5145L30.8696 87.2144C31.0277 87.3512 31.2234 87.4192 31.4192 87.4192C31.6149 87.4192 31.8107 87.3512 31.9688 87.2144L43.1609 77.5145V91.6127C43.1609 92.0754 42.785 92.4513 42.3222 92.4513Z" fill="#B32B27"/>
</svg>
